<svg width="78" height="63" viewBox="0 0 78 63" fill="none" xmlns="http://www.w3.org/2000/svg">
<path opacity="0.25" d="M77.5309 9.16922V8.91218L77.231 8.99786V8.8265L77.0311 8.91218L77.131 8.74083L76.9311 8.8265L77.0311 8.65515L76.8312 8.74083L76.9311 8.56947L76.7312 8.65515L76.8312 8.48379L76.6313 8.56947L76.7312 8.39811L76.5313 8.48379L76.6313 8.31243L76.4313 8.39811L76.5313 8.22676L76.3314 8.31243L76.4313 8.14107L76.2314 8.22676L76.3314 8.0554L76.1315 8.14107L76.2314 7.96972L76.0315 8.0554L76.1315 7.88404L75.9315 7.96972L76.1315 7.79837L75.9315 7.88404L76.0315 7.71268L75.8316 7.79837L75.9315 7.62701L75.7316 7.71268L75.8316 7.54133L75.6317 7.62701L75.7316 7.45565L75.5317 7.54133L75.6317 7.36997L75.4318 7.45565L75.5317 7.28429L75.3318 7.36997L75.4318 7.19861L75.2318 7.28429L75.3318 7.11294L75.1319 7.19861L75.2318 7.02726L75.0319 7.11294L75.1319 6.94158L74.932 7.02726L75.0319 6.8559L74.832 6.94158L74.932 6.77022L74.7321 6.8559L74.832 6.68455L74.6321 6.77022L74.7321 6.59887L72.9328 5.39937L73.0328 5.22802L72.8328 5.31369L72.9328 5.14233L69.7342 5.82776C68.6346 6.0848 67.635 6.25615 66.7354 6.42751L64.0366 6.94158C63.2369 7.11294 62.3373 7.28429 61.4376 7.45565C60.538 7.62701 59.6384 7.71269 58.6388 7.88404L57.7392 7.96972L57.3394 8.65515C57.1394 8.91218 57.0395 9.08354 56.8396 9.34057H56.6397L56.7396 9.16922H56.5397L56.6397 8.99786H56.4397L56.5397 8.8265H56.3398L56.4397 8.65515H56.2398L56.3398 8.48379H56.1399L56.2398 8.31243H56.1399L56.2398 8.14107H56.0399L56.1399 7.96972H55.9399L56.0399 7.79837H55.84L55.9399 7.62701H55.74L55.84 7.45565L52.9412 7.79837C50.5422 8.0554 48.3431 8.39811 46.344 8.65515C44.4448 8.91218 42.3457 9.08354 40.2465 9.08354H39.147L38.6472 9.94032C37.5477 11.8252 36.3482 13.8815 35.0487 16.0235C33.6493 18.2511 32.1499 20.5644 30.6506 22.8777C29.0512 25.2767 27.4519 27.6757 25.8526 30.0747C24.2533 32.388 22.6539 34.7013 21.0546 37.0147C17.2562 42.4124 13.3578 47.8101 9.35952 53.1222L7.26041 55.7782H7.56028L7.46032 55.9496H7.7602L7.66023 56.1209H7.96011L7.86015 56.2923H8.16002L8.06007 56.4636H8.35994L8.25999 56.635H8.55986L8.4599 56.8063H8.75978L8.65981 56.9777H8.95969L8.85973 57.149H9.1596L9.05965 57.3204H9.35952L9.25957 57.4918H9.55944L9.45948 57.6631H9.75936L9.65939 57.8345H9.95927L9.85931 58.0058H10.1592L10.0592 58.1772H10.3591L10.2591 58.3486H10.559L10.4591 58.5199H10.7589L10.659 58.6913H10.9588L10.8589 58.8626H11.1588L11.0588 59.034H11.3587L11.2587 59.2053H11.5586L11.4586 59.3767H11.7585L11.6586 59.548H11.9584L11.8585 59.7194H12.1583L12.0584 59.8908H12.3583L12.2583 60.0621H12.5582L12.4582 60.2335H12.7581L12.6581 60.4048H12.958L12.8581 60.5762H13.1579L13.058 60.7475H13.3578L13.2579 60.9189H13.5578L13.4578 61.0903H13.7577L13.6577 61.2616H13.9576L13.8576 61.433H14.1575L14.0575 61.6043H14.3574L14.2575 61.7757H14.5573L14.4574 61.947H14.7573L14.6573 62.1184H14.9572L14.8572 62.2897H15.1571L12.958 61.0903H13.2579L13.1579 61.2616L16.8564 61.0046C20.7547 60.7475 24.853 60.4048 28.9513 60.0621L29.8509 59.9764L30.2507 59.3767H30.4507L30.3507 59.548H30.5506L30.4507 59.7194H30.6506L30.5506 59.8908H30.7505L30.6506 60.0621H30.8505L30.7505 60.2335H30.9504L30.8505 60.4048H31.0504L30.9504 60.5762H31.1504L31.0504 60.7475H31.2503L31.1504 60.9189H31.3503L31.2503 61.0903L34.1491 60.8332C35.7484 60.6619 37.1478 60.5762 38.3473 60.4048C39.4469 60.3191 40.8463 60.1478 42.6455 60.0621L43.6451 59.9764L44.1449 59.2053C44.3448 58.8626 44.5447 58.5199 44.7447 58.1772H44.8446V58.3486L45.0445 58.2629V58.4342L45.2444 58.3486V58.5199L45.4444 58.4342V58.6056L45.6443 58.5199V58.6913L45.8442 58.6056V58.7769L46.0441 58.6913V58.8626L46.244 58.7769V58.9483L46.4439 58.8626V59.034L46.6439 58.9483V59.1197L46.8438 59.034V59.2053L47.0437 59.1197V59.291L47.2436 59.2053V59.3767L47.4435 59.291V59.4624L47.6434 59.3767V59.548L47.8433 59.4624V59.6337L58.6388 58.6056" fill="#333333"/>
<path d="M46.344 4.97102C43.1453 12.5964 39.9467 20.1361 36.748 27.6758C37.1478 27.8471 37.3477 27.5901 37.5477 27.333C38.9471 25.2768 40.3465 23.3062 41.7459 21.2499C45.2444 15.9378 48.643 10.6258 52.1415 5.31373C52.4414 4.79966 52.8412 4.6283 53.441 4.45695C56.7396 3.8572 60.0382 3.25745 63.2369 2.6577C63.4368 2.6577 63.6367 2.57202 63.8366 2.57202C63.8366 2.74338 63.7367 2.91473 63.7367 3.00041C59.8383 14.0529 56.3398 25.1911 52.9412 36.4149C52.0416 39.1566 51.2419 41.984 50.3423 44.7257C50.2423 44.9828 50.1424 45.1541 49.7425 45.2398C45.7442 46.0966 41.6459 46.9534 37.6476 47.8102C37.5477 47.8102 37.4477 47.8102 37.2478 47.8958C37.6476 46.6963 37.9475 45.5825 38.4473 44.4687C40.6464 38.6426 42.8454 32.9021 45.0445 27.076C45.1445 26.819 45.1445 26.5619 45.1445 26.3049C44.9446 26.4763 44.7446 26.6476 44.5447 26.9047C40.9462 32.3024 37.2478 37.7858 33.6493 43.1835C32.6497 44.7257 31.6501 46.1823 30.5506 47.7245C30.4506 47.8958 30.1508 48.0672 29.8509 48.1529C27.252 48.4099 24.753 48.6669 22.1541 48.8383C22.0542 48.8383 21.8543 48.8383 21.6543 48.8383C22.1541 47.7245 22.554 46.6107 22.9538 45.5825C25.1529 40.0991 27.3519 34.7014 29.551 29.218C29.651 28.8753 29.7509 28.6182 29.2512 28.5325C28.7514 28.3612 28.5514 28.4469 28.3515 28.8753C24.5531 35.3011 20.5548 41.6413 16.3566 47.8958C16.0567 48.4099 15.6569 48.6669 14.9572 48.6669C11.3587 48.924 7.76018 49.2667 4.26165 49.5237C4.16169 49.5237 4.06173 49.5237 3.86182 49.5237C4.06173 49.2667 4.16169 49.0953 4.26165 49.0096C13.1579 37.2717 21.4544 25.1911 29.2512 12.9391C30.5506 10.8828 31.7501 8.82654 32.9496 6.77026C33.0496 6.51322 33.2495 6.34187 33.6493 6.34187C36.748 6.34187 39.8467 5.8278 42.9454 5.48508C44.1449 5.22805 45.1445 5.14237 46.344 4.97102Z" fill="white"/>
<path d="M50.2423 46.6963C49.8425 47.3817 49.4427 48.1528 49.1428 48.7526C50.1424 49.6093 51.042 50.4661 52.0416 51.3229C51.8417 51.4086 51.6417 51.4943 51.4418 51.4943C50.3423 51.7513 49.2427 52.0083 48.0432 52.1797C47.7434 52.2654 47.2436 52.1797 47.0437 52.0083C46.344 51.4942 45.8442 50.8945 45.1445 50.3804C44.4448 49.7807 43.7451 49.2666 43.0453 48.6669C42.9454 48.5812 42.8454 48.4098 42.6455 48.2385C45.1445 47.7244 47.6434 47.2103 50.1424 46.6106C50.1424 46.6106 50.1424 46.6106 50.2423 46.6963Z" fill="#063F5B"/>
<path d="M35.0487 49.4382C35.7484 50.0379 36.3482 50.552 36.848 51.0661C36.9479 51.1517 36.9479 51.1517 37.0479 51.2374C37.5477 51.5801 37.5477 51.7515 37.0479 52.2655C36.5481 51.8372 35.9483 51.4088 35.4485 50.8947C34.449 50.0379 33.4494 49.0955 32.3499 48.2387C32.05 47.9816 32.05 47.8103 32.2499 47.5532C34.2491 44.6402 36.2482 41.7271 38.1474 38.8141C38.3473 38.557 38.5472 38.2143 38.7472 37.9573C37.4477 41.8128 35.9483 45.6683 35.0487 49.4382Z" fill="#063F5B"/>
<path d="M52.3414 42.5838C53.441 38.9854 54.5405 35.4725 55.64 32.0454C55.74 32.0454 55.74 32.0454 55.74 32.0454C55.84 32.3024 55.9399 32.4738 56.0399 32.7308C56.2398 32.9879 56.4397 33.3306 56.7396 33.5019C57.0395 33.6733 57.0395 33.8447 56.9395 34.016C55.4401 36.8434 54.0407 39.6708 52.5414 42.4125C52.5414 42.4125 52.5413 42.4982 52.3414 42.5838Z" fill="#063F5B"/>
<path d="M23.6535 39.6707C22.354 42.8408 21.0546 46.0109 19.6552 49.2667C19.1554 48.8383 18.6556 48.4956 18.1558 48.0672C18.0559 47.9815 18.1558 47.7245 18.2558 47.5531C19.5552 45.5825 20.8547 43.6119 22.1541 41.6413C22.7539 40.9559 23.1537 40.2705 23.6535 39.6707C23.6535 39.585 23.5535 39.585 23.6535 39.6707Z" fill="#063F5B"/>
<path d="M70.6338 4.54256C70.134 3.94281 67.8349 2.14356 66.8353 1.28678C66.3356 0.858389 65.8358 0.687032 65.1361 0.858389C60.7379 1.88653 56.3398 2.82899 51.7417 3.42874C51.5418 3.42874 51.2419 3.6001 51.1419 3.77145C50.8421 4.11417 50.5422 4.54256 50.1424 5.1423C49.5426 4.62823 49.0428 4.11417 48.543 3.68577C48.4431 3.6001 48.1432 3.51442 47.9433 3.51442C46.7438 3.6001 45.6443 3.77146 44.4448 3.94281C40.4464 4.3712 36.5481 5.1423 32.4498 5.05663C32.05 5.05663 31.8501 5.1423 31.7501 5.48502C30.7505 7.11291 29.8509 8.82647 28.8513 10.4544C20.8547 23.3918 12.1583 35.9008 2.86224 48.2385C2.16253 49.1809 1.36287 50.1234 0.763123 51.0659C1.26291 51.4943 1.7627 51.9227 2.26249 52.351C2.9622 52.9508 3.56195 53.5505 4.26165 54.0646C4.96136 54.6644 5.76102 55.1784 6.36077 55.7782C6.86056 56.2922 7.26039 56.5493 8.06005 56.3779C8.6598 56.2922 9.25955 56.2922 9.75934 56.2922C13.7577 55.9495 17.8559 55.6068 21.8543 55.3498C22.6539 55.2641 23.3536 55.0927 23.6535 54.4073C23.6535 54.4073 23.7535 54.4073 23.8534 54.3216C24.2533 54.6644 24.753 55.0927 25.1529 55.5211C25.4527 55.7782 25.7526 55.8638 26.1524 55.8638C29.7509 55.5211 33.3494 55.1784 36.848 54.9214C37.2478 54.9214 37.4477 54.8357 37.6476 54.493C37.9475 53.9789 38.3473 53.4649 38.6472 52.8651C38.8471 52.9508 38.9471 52.9508 39.047 53.0365C39.7467 53.5505 40.3465 54.1503 41.0462 54.75C41.0462 54.75 41.1462 54.9214 41.546 55.0071C42.0458 55.1784 48.4431 54.493 52.3414 53.6362C52.9412 53.5505 55.3402 52.9508 55.3402 52.8651C58.4389 44.1259 71.1335 5.05663 70.6338 4.54256ZM18.2558 48.0671C18.1558 47.9815 18.2558 47.7244 18.3557 47.5531C19.6552 45.5825 20.9546 43.6119 22.2541 41.6413C22.6539 40.9558 23.1537 40.2704 23.5535 39.6707H23.6535C22.354 42.8408 21.0546 46.0108 19.6552 49.2666C19.1554 48.8382 18.6556 48.4098 18.2558 48.0671ZM23.9534 51.2372C23.8534 51.2372 23.8534 51.3229 23.7535 51.3229C23.3536 50.9802 22.9538 50.6375 22.554 50.2948C23.3536 50.0377 23.5535 50.5518 23.9534 50.8088C24.0533 50.8945 23.9534 51.0659 23.9534 51.2372ZM37.1478 52.2654C36.5481 51.837 36.0483 51.4086 35.5485 50.8945C34.5489 50.0377 33.4494 49.0953 32.4498 48.2385C32.1499 47.9814 32.1499 47.8101 32.3498 47.5531C34.349 44.64 36.3482 41.7269 38.2474 38.8139C38.4473 38.5568 38.6472 38.2141 38.8471 37.9571C37.5477 41.8126 36.0483 45.5825 35.0487 49.438C35.7484 50.0377 36.3482 50.5518 36.848 51.0659C36.9479 51.1515 36.9479 51.1515 37.0479 51.2372C37.6476 51.5799 37.6476 51.6656 37.1478 52.2654ZM38.9471 49.7807C38.8471 49.7807 38.8471 49.8664 38.7472 49.8664C38.5472 49.6093 38.3473 49.438 38.0475 49.0096C38.4473 49.0953 38.7472 49.1809 38.9471 49.2666C39.047 49.2666 38.9471 49.6093 38.9471 49.7807ZM37.7476 47.8101C37.6476 47.8101 37.5477 47.8101 37.3477 47.8958C37.7476 46.6963 38.0475 45.5825 38.5472 44.4686C40.7463 38.6425 42.9454 32.9021 45.1445 27.0759C45.2444 26.8189 45.2444 26.5619 45.2444 26.3048C45.0445 26.4762 44.8446 26.6476 44.6447 26.9046C41.0462 32.3023 37.3477 37.7857 33.7493 43.1835C32.7497 44.7257 31.7501 46.1822 30.6506 47.7244C30.5506 47.8958 30.2507 48.0671 29.9509 48.1528C27.3519 48.4098 24.853 48.6669 22.2541 48.8382C22.1541 48.8382 21.9542 48.8382 21.7543 48.8382C22.2541 47.7244 22.6539 46.6106 23.0538 45.5825C25.2528 40.099 27.4519 34.7013 29.651 29.2179C29.7509 28.8752 29.8509 28.6182 29.3511 28.5325C28.8513 28.3611 28.6514 28.4468 28.4515 28.8752C24.6531 35.3011 20.6548 41.6413 16.4565 47.8958C16.1567 48.4098 15.7568 48.6669 15.0571 48.6669C11.4586 48.9239 7.86014 49.2666 4.36161 49.5237C4.26165 49.5237 4.16169 49.5237 3.96178 49.5237C4.16169 49.2666 4.26165 49.0953 4.36161 49.0096C13.2579 37.2717 21.5544 25.191 29.3511 12.939C30.6506 10.8828 31.8501 8.82647 33.0496 6.77019C33.1495 6.51316 33.3494 6.3418 33.7493 6.3418C36.848 6.3418 39.9467 5.82773 43.0454 5.48502C44.0449 5.31366 45.1445 5.22798 46.344 5.05663C43.1453 12.682 39.9467 20.2217 36.748 27.7614C37.1478 27.9327 37.3477 27.6757 37.5477 27.4187C38.9471 25.3624 40.3465 23.3918 41.7459 21.3355C45.2444 16.0234 48.643 10.7114 52.1415 5.39934C52.4414 4.88527 52.8412 4.71391 53.5409 4.54256C56.8396 3.94281 60.1382 3.34306 63.3368 2.74332C63.5367 2.74332 63.6367 2.65764 63.9366 2.65764C63.9366 2.82899 63.8366 3.00035 63.8366 3.08603C59.9382 14.1385 56.4397 25.2767 52.9412 36.4149C52.0416 39.1566 51.2419 41.984 50.4422 44.7257C50.3423 44.9827 50.2423 45.1541 49.8425 45.2397C45.8442 46.0965 41.7459 46.9533 37.7476 47.8101ZM51.4418 51.4086C50.3423 51.6656 49.2428 51.9227 48.0433 52.094C47.7434 52.1797 47.2436 52.094 47.0437 51.9227C46.344 51.4086 45.8442 50.8088 45.1445 50.2948C44.4448 49.695 43.7451 49.1809 43.0454 48.5812C42.9454 48.4955 42.8454 48.3242 42.6455 48.1528C45.1445 47.6387 47.6434 47.1247 50.1424 46.5249C50.1424 46.6106 50.2423 46.6106 50.2423 46.6106C49.8425 47.296 49.4427 48.0671 49.1428 48.6669C50.1424 49.5237 51.042 50.3804 52.0416 51.2372C51.7417 51.3229 51.5418 51.4086 51.4418 51.4086Z" fill="#1E3061"/>
<path d="M22.554 50.2949C23.3536 50.0379 23.5535 50.5519 23.9534 50.809C24.0533 50.8947 23.9534 51.1517 23.9534 51.3231C23.8534 51.3231 23.8534 51.4087 23.7535 51.4087C23.3536 50.9803 22.9538 50.6376 22.554 50.2949Z" fill="#063F5B"/>
<path d="M38.0475 49.0098C38.4473 49.0954 38.7472 49.1811 38.9471 49.2668C39.047 49.3525 38.9471 49.6095 38.9471 49.7809C38.8471 49.7809 38.8471 49.8665 38.7472 49.8665C38.5472 49.6095 38.3473 49.3525 38.0475 49.0098Z" fill="#063F5B"/>
</svg>
