<svg width="24" height="24" viewBox="0 0 24 24" fill="none" xmlns="http://www.w3.org/2000/svg">
<path d="M4 3.25767H5.17791M20 3.25767H18.8221M18.8221 3.25767L17.2515 21.908C17.2515 22.2679 17.0356 22.9877 16.1718 22.9877C15.308 22.9877 10.2495 22.9877 7.82822 22.9877C7.53374 22.9877 6.92515 22.7718 6.84663 21.908C6.7681 21.0442 5.70143 9.11452 5.17791 3.25767M18.8221 3.25767H14.6994M5.17791 3.25767H9.39877M9.39877 5.1227V20.9264M12.0491 5.1227V20.9264M14.8957 5.1227V20.9264M9.39877 3.25767V1.78528C9.36605 1.52352 9.49693 1 10.2822 1C11.0675 1 13.0307 1 13.9141 1C14.1759 1 14.6994 1.15706 14.6994 1.78528C14.6994 2.4135 14.6994 3.02863 14.6994 3.25767M9.39877 3.25767H14.6994" stroke="#1E1E1E"/>
</svg>
