<svg width="24" height="24" viewBox="0 0 24 24" fill="none" xmlns="http://www.w3.org/2000/svg">
<path d="M1 7.57868C1.00006 7.74315 1 7.79797 1.00008 7.90761C1.00008 10.7584 1.00008 17.0629 1.00008 19.4751C1.00008 21.5036 3.17589 22.9838 4.2638 22.9838C8.07148 23.0203 16.3984 22.9838 19.2528 22.9838C22.0934 22.9838 23 20.6812 23 19.4751C23 16.8437 23 10.8461 23 7.90761C23 7.79475 23 7.68833 23 7.57868M1 7.57868C0.999455 6.1533 2.40551 4.30754 4.2638 4.23452C4.80768 4.21315 5.75803 4.21654 6.98357 4.21315M1 7.57868H23M23 7.57868C23 4.94721 20.7032 4.24091 19.2528 4.23452C18.6534 4.23188 17.957 4.22909 17.1978 4.22638M17.1978 4.22638V1M17.1978 4.22638C14.053 4.21514 9.8322 4.20525 6.98357 4.21315M6.98357 4.21315V1" stroke="#252525"/>
</svg>
