<svg width="35" height="34" viewBox="0 0 35 34" fill="none" xmlns="http://www.w3.org/2000/svg">
<path d="M0.5 0C0.223858 0 0 0.223858 0 0.5C0 0.776142 0.223858 1 0.5 1V0ZM5 0.5V1V0.5ZM8.00772 1.70326L8.46839 1.50887L8.00772 1.70326ZM14.834 28.3002L14.3496 28.4242L14.3586 28.4594L14.3726 28.4929L14.834 28.3002ZM28.4865 30.3725C28.7626 30.3725 28.9865 30.1486 28.9865 29.8725C28.9865 29.5963 28.7626 29.3725 28.4865 29.3725V30.3725ZM10.0681 9.69545L9.5838 9.81975L10.0681 9.69545ZM34 9.69545L34.4653 9.87845C34.5258 9.72453 34.5063 9.55063 34.4132 9.41394C34.3201 9.27725 34.1654 9.19545 34 9.19545V9.69545ZM28.4865 23.7146V24.2146C28.692 24.2146 28.8766 24.0888 28.9518 23.8976L28.4865 23.7146ZM2.5 0.5V0V0.5ZM5 1C5.51147 1 6.07001 1.00283 6.55951 1.13349C7.03325 1.25995 7.37369 1.48678 7.54705 1.89764L8.46839 1.50887C8.13403 0.716478 7.47061 0.34168 6.81742 0.167321C6.17999 -0.00282907 5.48853 2.08616e-07 5 2.08616e-07V1ZM14.3726 28.4929C14.5013 28.8013 14.7557 29.2493 15.1195 29.6289C15.4799 30.0048 16.0065 30.3725 16.6718 30.3725V29.3725C16.392 29.3725 16.1091 29.2161 15.8415 28.9369C15.5774 28.6614 15.3854 28.3233 15.2954 28.1076L14.3726 28.4929ZM16.6718 30.3725C16.6737 30.3725 16.6755 30.3725 16.6774 30.3725C16.6793 30.3725 16.6812 30.3725 16.6832 30.3725C16.6851 30.3725 16.6871 30.3725 16.6891 30.3725C16.691 30.3725 16.693 30.3725 16.6951 30.3725C16.6971 30.3725 16.6992 30.3725 16.7012 30.3725C16.7033 30.3725 16.7054 30.3725 16.7075 30.3725C16.7097 30.3725 16.7118 30.3725 16.714 30.3725C16.7161 30.3725 16.7183 30.3725 16.7205 30.3725C16.7227 30.3725 16.725 30.3725 16.7272 30.3725C16.7295 30.3725 16.7318 30.3725 16.7341 30.3725C16.7364 30.3725 16.7387 30.3725 16.7411 30.3725C16.7434 30.3725 16.7458 30.3725 16.7482 30.3725C16.7506 30.3725 16.753 30.3725 16.7554 30.3725C16.7578 30.3725 16.7603 30.3725 16.7628 30.3725C16.7653 30.3725 16.7678 30.3725 16.7703 30.3725C16.7728 30.3725 16.7754 30.3725 16.7779 30.3725C16.7805 30.3725 16.7831 30.3725 16.7857 30.3725C16.7883 30.3725 16.791 30.3725 16.7936 30.3725C16.7963 30.3725 16.799 30.3725 16.8017 30.3725C16.8044 30.3725 16.8071 30.3725 16.8098 30.3725C16.8126 30.3725 16.8153 30.3725 16.8181 30.3725C16.8209 30.3725 16.8237 30.3725 16.8266 30.3725C16.8294 30.3725 16.8322 30.3725 16.8351 30.3725C16.838 30.3725 16.8409 30.3725 16.8438 30.3725C16.8467 30.3725 16.8497 30.3725 16.8526 30.3725C16.8556 30.3725 16.8586 30.3725 16.8616 30.3725C16.8646 30.3725 16.8676 30.3725 16.8707 30.3725C16.8737 30.3725 16.8768 30.3725 16.8799 30.3725C16.883 30.3725 16.8861 30.3725 16.8892 30.3725C16.8923 30.3725 16.8955 30.3725 16.8987 30.3725C16.9018 30.3725 16.905 30.3725 16.9082 30.3725C16.9115 30.3725 16.9147 30.3725 16.918 30.3725C16.9212 30.3725 16.9245 30.3725 16.9278 30.3725C16.9311 30.3725 16.9344 30.3725 16.9378 30.3725C16.9411 30.3725 16.9445 30.3725 16.9478 30.3725C16.9512 30.3725 16.9546 30.3725 16.9581 30.3725C16.9615 30.3725 16.9649 30.3725 16.9684 30.3725C16.9719 30.3725 16.9753 30.3725 16.9789 30.3725C16.9824 30.3725 16.9859 30.3725 16.9894 30.3725C16.993 30.3725 16.9966 30.3725 17.0001 30.3725C17.0037 30.3725 17.0073 30.3725 17.011 30.3725C17.0146 30.3725 17.0183 30.3725 17.0219 30.3725C17.0256 30.3725 17.0293 30.3725 17.033 30.3725C17.0367 30.3725 17.0404 30.3725 17.0442 30.3725C17.0479 30.3725 17.0517 30.3725 17.0555 30.3725C17.0593 30.3725 17.0631 30.3725 17.0669 30.3725C17.0708 30.3725 17.0746 30.3725 17.0785 30.3725C17.0824 30.3725 17.0863 30.3725 17.0902 30.3725C17.0941 30.3725 17.098 30.3725 17.102 30.3725C17.1059 30.3725 17.1099 30.3725 17.1139 30.3725C17.1179 30.3725 17.1219 30.3725 17.1259 30.3725C17.1299 30.3725 17.134 30.3725 17.1381 30.3725C17.1421 30.3725 17.1462 30.3725 17.1503 30.3725C17.1544 30.3725 17.1586 30.3725 17.1627 30.3725C17.1669 30.3725 17.171 30.3725 17.1752 30.3725C17.1794 30.3725 17.1836 30.3725 17.1878 30.3725C17.1921 30.3725 17.1963 30.3725 17.2006 30.3725C17.2048 30.3725 17.2091 30.3725 17.2134 30.3725C17.2177 30.3725 17.222 30.3725 17.2264 30.3725C17.2307 30.3725 17.2351 30.3725 17.2395 30.3725C17.2438 30.3725 17.2482 30.3725 17.2526 30.3725C17.2571 30.3725 17.2615 30.3725 17.266 30.3725C17.2704 30.3725 17.2749 30.3725 17.2794 30.3725C17.2839 30.3725 17.2884 30.3725 17.2929 30.3725C17.2974 30.3725 17.302 30.3725 17.3065 30.3725C17.3111 30.3725 17.3157 30.3725 17.3203 30.3725C17.3249 30.3725 17.3295 30.3725 17.3342 30.3725C17.3388 30.3725 17.3435 30.3725 17.3482 30.3725C17.3528 30.3725 17.3575 30.3725 17.3622 30.3725C17.367 30.3725 17.3717 30.3725 17.3764 30.3725C17.3812 30.3725 17.386 30.3725 17.3908 30.3725C17.3955 30.3725 17.4004 30.3725 17.4052 30.3725C17.41 30.3725 17.4149 30.3725 17.4197 30.3725C17.4246 30.3725 17.4295 30.3725 17.4344 30.3725C17.4393 30.3725 17.4442 30.3725 17.4491 30.3725C17.454 30.3725 17.459 30.3725 17.464 30.3725C17.4689 30.3725 17.4739 30.3725 17.4789 30.3725C17.4839 30.3725 17.489 30.3725 17.494 30.3725C17.499 30.3725 17.5041 30.3725 17.5092 30.3725C17.5142 30.3725 17.5193 30.3725 17.5245 30.3725C17.5296 30.3725 17.5347 30.3725 17.5398 30.3725C17.545 30.3725 17.5502 30.3725 17.5553 30.3725C17.5605 30.3725 17.5657 30.3725 17.5709 30.3725C17.5762 30.3725 17.5814 30.3725 17.5866 30.3725C17.5919 30.3725 17.5972 30.3725 17.6025 30.3725C17.6077 30.3725 17.613 30.3725 17.6184 30.3725C17.6237 30.3725 17.629 30.3725 17.6344 30.3725C17.6397 30.3725 17.6451 30.3725 17.6505 30.3725C17.6559 30.3725 17.6613 30.3725 17.6667 30.3725C17.6722 30.3725 17.6776 30.3725 17.6831 30.3725C17.6885 30.3725 17.694 30.3725 17.6995 30.3725C17.705 30.3725 17.7105 30.3725 17.716 30.3725C17.7215 30.3725 17.7271 30.3725 17.7326 30.3725C17.7382 30.3725 17.7438 30.3725 17.7494 30.3725C17.755 30.3725 17.7606 30.3725 17.7662 30.3725C17.7718 30.3725 17.7775 30.3725 17.7831 30.3725C17.7888 30.3725 17.7945 30.3725 17.8002 30.3725C17.8059 30.3725 17.8116 30.3725 17.8173 30.3725C17.823 30.3725 17.8288 30.3725 17.8345 30.3725C17.8403 30.3725 17.8461 30.3725 17.8518 30.3725C17.8576 30.3725 17.8634 30.3725 17.8693 30.3725C17.8751 30.3725 17.8809 30.3725 17.8868 30.3725C17.8926 30.3725 17.8985 30.3725 17.9044 30.3725C17.9103 30.3725 17.9162 30.3725 17.9221 30.3725C17.928 30.3725 17.934 30.3725 17.9399 30.3725C17.9459 30.3725 17.9518 30.3725 17.9578 30.3725C17.9638 30.3725 17.9698 30.3725 17.9758 30.3725C17.9818 30.3725 17.9879 30.3725 17.9939 30.3725C18 30.3725 18.006 30.3725 18.0121 30.3725C18.0182 30.3725 18.0243 30.3725 18.0304 30.3725C18.0365 30.3725 18.0426 30.3725 18.0488 30.3725C18.0549 30.3725 18.0611 30.3725 18.0672 30.3725C18.0734 30.3725 18.0796 30.3725 18.0858 30.3725C18.092 30.3725 18.0982 30.3725 18.1045 30.3725C18.1107 30.3725 18.1169 30.3725 18.1232 30.3725C18.1295 30.3725 18.1358 30.3725 18.142 30.3725C18.1483 30.3725 18.1547 30.3725 18.161 30.3725C18.1673 30.3725 18.1736 30.3725 18.18 30.3725C18.1864 30.3725 18.1927 30.3725 18.1991 30.3725C18.2055 30.3725 18.2119 30.3725 18.2183 30.3725C18.2247 30.3725 18.2312 30.3725 18.2376 30.3725C18.244 30.3725 18.2505 30.3725 18.257 30.3725C18.2635 30.3725 18.2699 30.3725 18.2764 30.3725C18.2829 30.3725 18.2895 30.3725 18.296 30.3725C18.3025 30.3725 18.3091 30.3725 18.3156 30.3725C18.3222 30.3725 18.3288 30.3725 18.3354 30.3725C18.342 30.3725 18.3486 30.3725 18.3552 30.3725C18.3618 30.3725 18.3684 30.3725 18.3751 30.3725C18.3817 30.3725 18.3884 30.3725 18.3951 30.3725C18.4018 30.3725 18.4085 30.3725 18.4152 30.3725C18.4219 30.3725 18.4286 30.3725 18.4353 30.3725C18.4421 30.3725 18.4488 30.3725 18.4556 30.3725C18.4623 30.3725 18.4691 30.3725 18.4759 30.3725C18.4827 30.3725 18.4895 30.3725 18.4963 30.3725C18.5031 30.3725 18.51 30.3725 18.5168 30.3725C18.5237 30.3725 18.5305 30.3725 18.5374 30.3725C18.5443 30.3725 18.5512 30.3725 18.5581 30.3725C18.565 30.3725 18.5719 30.3725 18.5788 30.3725C18.5857 30.3725 18.5927 30.3725 18.5996 30.3725C18.6066 30.3725 18.6136 30.3725 18.6205 30.3725C18.6275 30.3725 18.6345 30.3725 18.6415 30.3725C18.6486 30.3725 18.6556 30.3725 18.6626 30.3725C18.6697 30.3725 18.6767 30.3725 18.6838 30.3725C18.6908 30.3725 18.6979 30.3725 18.705 30.3725C18.7121 30.3725 18.7192 30.3725 18.7263 30.3725C18.7334 30.3725 18.7406 30.3725 18.7477 30.3725C18.7548 30.3725 18.762 30.3725 18.7692 30.3725C18.7763 30.3725 18.7835 30.3725 18.7907 30.3725C18.7979 30.3725 18.8051 30.3725 18.8123 30.3725C18.8196 30.3725 18.8268 30.3725 18.8341 30.3725C18.8413 30.3725 18.8486 30.3725 18.8558 30.3725C18.8631 30.3725 18.8704 30.3725 18.8777 30.3725C18.885 30.3725 18.8923 30.3725 18.8996 30.3725C18.9069 30.3725 18.9143 30.3725 18.9216 30.3725C18.929 30.3725 18.9363 30.3725 18.9437 30.3725C18.9511 30.3725 18.9585 30.3725 18.9659 30.3725C18.9733 30.3725 18.9807 30.3725 18.9881 30.3725C18.9955 30.3725 19.003 30.3725 19.0104 30.3725C19.0179 30.3725 19.0253 30.3725 19.0328 30.3725C19.0403 30.3725 19.0478 30.3725 19.0553 30.3725C19.0628 30.3725 19.0703 30.3725 19.0778 30.3725C19.0853 30.3725 19.0928 30.3725 19.1004 30.3725C19.1079 30.3725 19.1155 30.3725 19.1231 30.3725C19.1306 30.3725 19.1382 30.3725 19.1458 30.3725C19.1534 30.3725 19.161 30.3725 19.1686 30.3725C19.1762 30.3725 19.1839 30.3725 19.1915 30.3725C19.1992 30.3725 19.2068 30.3725 19.2145 30.3725C19.2221 30.3725 19.2298 30.3725 19.2375 30.3725C19.2452 30.3725 19.2529 30.3725 19.2606 30.3725C19.2683 30.3725 19.276 30.3725 19.2838 30.3725C19.2915 30.3725 19.2992 30.3725 19.307 30.3725C19.3148 30.3725 19.3225 30.3725 19.3303 30.3725C19.3381 30.3725 19.3459 30.3725 19.3537 30.3725C19.3615 30.3725 19.3693 30.3725 19.3771 30.3725C19.3849 30.3725 19.3928 30.3725 19.4006 30.3725C19.4085 30.3725 19.4163 30.3725 19.4242 30.3725C19.4321 30.3725 19.4399 30.3725 19.4478 30.3725C19.4557 30.3725 19.4636 30.3725 19.4715 30.3725C19.4794 30.3725 19.4874 30.3725 19.4953 30.3725C19.5032 30.3725 19.5112 30.3725 19.5191 30.3725C19.5271 30.3725 19.5351 30.3725 19.543 30.3725C19.551 30.3725 19.559 30.3725 19.567 30.3725C19.575 30.3725 19.583 30.3725 19.591 30.3725C19.599 30.3725 19.6071 30.3725 19.6151 30.3725C19.6232 30.3725 19.6312 30.3725 19.6393 30.3725C19.6473 30.3725 19.6554 30.3725 19.6635 30.3725C19.6716 30.3725 19.6797 30.3725 19.6878 30.3725C19.6959 30.3725 19.704 30.3725 19.7121 30.3725C19.7202 30.3725 19.7284 30.3725 19.7365 30.3725C19.7447 30.3725 19.7528 30.3725 19.761 30.3725C19.7691 30.3725 19.7773 30.3725 19.7855 30.3725C19.7937 30.3725 19.8019 30.3725 19.8101 30.3725C19.8183 30.3725 19.8265 30.3725 19.8347 30.3725C19.843 30.3725 19.8512 30.3725 19.8594 30.3725C19.8677 30.3725 19.8759 30.3725 19.8842 30.3725C19.8925 30.3725 19.9007 30.3725 19.909 30.3725C19.9173 30.3725 19.9256 30.3725 19.9339 30.3725C19.9422 30.3725 19.9505 30.3725 19.9588 30.3725C19.9672 30.3725 19.9755 30.3725 19.9838 30.3725C19.9922 30.3725 20.0005 30.3725 20.0089 30.3725C20.0172 30.3725 20.0256 30.3725 20.034 30.3725C20.0424 30.3725 20.0507 30.3725 20.0591 30.3725C20.0675 30.3725 20.0759 30.3725 20.0844 30.3725C20.0928 30.3725 20.1012 30.3725 20.1096 30.3725C20.1181 30.3725 20.1265 30.3725 20.135 30.3725C20.1434 30.3725 20.1519 30.3725 20.1603 30.3725C20.1688 30.3725 20.1773 30.3725 20.1858 30.3725C20.1943 30.3725 20.2028 30.3725 20.2113 30.3725C20.2198 30.3725 20.2283 30.3725 20.2368 30.3725C20.2453 30.3725 20.2539 30.3725 20.2624 30.3725C20.2709 30.3725 20.2795 30.3725 20.2881 30.3725C20.2966 30.3725 20.3052 30.3725 20.3138 30.3725C20.3223 30.3725 20.3309 30.3725 20.3395 30.3725C20.3481 30.3725 20.3567 30.3725 20.3653 30.3725C20.3739 30.3725 20.3825 30.3725 20.3912 30.3725C20.3998 30.3725 20.4084 30.3725 20.4171 30.3725C20.4257 30.3725 20.4344 30.3725 20.443 30.3725C20.4517 30.3725 20.4603 30.3725 20.469 30.3725C20.4777 30.3725 20.4864 30.3725 20.4951 30.3725C20.5038 30.3725 20.5125 30.3725 20.5212 30.3725C20.5299 30.3725 20.5386 30.3725 20.5473 30.3725C20.556 30.3725 20.5648 30.3725 20.5735 30.3725C20.5822 30.3725 20.591 30.3725 20.5997 30.3725C20.6085 30.3725 20.6173 30.3725 20.626 30.3725C20.6348 30.3725 20.6436 30.3725 20.6524 30.3725C20.6612 30.3725 20.67 30.3725 20.6788 30.3725C20.6876 30.3725 20.6964 30.3725 20.7052 30.3725C20.714 30.3725 20.7228 30.3725 20.7317 30.3725C20.7405 30.3725 20.7493 30.3725 20.7582 30.3725C20.767 30.3725 20.7759 30.3725 20.7847 30.3725C20.7936 30.3725 20.8025 30.3725 20.8113 30.3725C20.8202 30.3725 20.8291 30.3725 20.838 30.3725C20.8469 30.3725 20.8558 30.3725 20.8647 30.3725C20.8736 30.3725 20.8825 30.3725 20.8914 30.3725C20.9003 30.3725 20.9093 30.3725 20.9182 30.3725C20.9271 30.3725 20.9361 30.3725 20.945 30.3725C20.954 30.3725 20.9629 30.3725 20.9719 30.3725C20.9808 30.3725 20.9898 30.3725 20.9988 30.3725C21.0078 30.3725 21.0167 30.3725 21.0257 30.3725C21.0347 30.3725 21.0437 30.3725 21.0527 30.3725C21.0617 30.3725 21.0707 30.3725 21.0797 30.3725C21.0887 30.3725 21.0978 30.3725 21.1068 30.3725C21.1158 30.3725 21.1249 30.3725 21.1339 30.3725C21.1429 30.3725 21.152 30.3725 21.161 30.3725C21.1701 30.3725 21.1791 30.3725 21.1882 30.3725C21.1973 30.3725 21.2063 30.3725 21.2154 30.3725C21.2245 30.3725 21.2336 30.3725 21.2427 30.3725C21.2518 30.3725 21.2609 30.3725 21.27 30.3725C21.2791 30.3725 21.2882 30.3725 21.2973 30.3725C21.3064 30.3725 21.3155 30.3725 21.3247 30.3725C21.3338 30.3725 21.3429 30.3725 21.3521 30.3725C21.3612 30.3725 21.3703 30.3725 21.3795 30.3725C21.3886 30.3725 21.3978 30.3725 21.407 30.3725C21.4161 30.3725 21.4253 30.3725 21.4345 30.3725C21.4436 30.3725 21.4528 30.3725 21.462 30.3725C21.4712 30.3725 21.4804 30.3725 21.4896 30.3725C21.4988 30.3725 21.508 30.3725 21.5172 30.3725C21.5264 30.3725 21.5356 30.3725 21.5448 30.3725C21.554 30.3725 21.5633 30.3725 21.5725 30.3725C21.5817 30.3725 21.591 30.3725 21.6002 30.3725C21.6094 30.3725 21.6187 30.3725 21.6279 30.3725C21.6372 30.3725 21.6464 30.3725 21.6557 30.3725C21.6649 30.3725 21.6742 30.3725 21.6835 30.3725C21.6928 30.3725 21.702 30.3725 21.7113 30.3725C21.7206 30.3725 21.7299 30.3725 21.7392 30.3725C21.7485 30.3725 21.7577 30.3725 21.767 30.3725C21.7764 30.3725 21.7857 30.3725 21.795 30.3725C21.8043 30.3725 21.8136 30.3725 21.8229 30.3725C21.8322 30.3725 21.8416 30.3725 21.8509 30.3725C21.8602 30.3725 21.8695 30.3725 21.8789 30.3725C21.8882 30.3725 21.8976 30.3725 21.9069 30.3725C21.9163 30.3725 21.9256 30.3725 21.935 30.3725C21.9443 30.3725 21.9537 30.3725 21.963 30.3725C21.9724 30.3725 21.9818 30.3725 21.9911 30.3725C22.0005 30.3725 22.0099 30.3725 22.0193 30.3725C22.0287 30.3725 22.038 30.3725 22.0474 30.3725C22.0568 30.3725 22.0662 30.3725 22.0756 30.3725C22.085 30.3725 22.0944 30.3725 22.1038 30.3725C22.1132 30.3725 22.1226 30.3725 22.1321 30.3725C22.1415 30.3725 22.1509 30.3725 22.1603 30.3725C22.1697 30.3725 22.1792 30.3725 22.1886 30.3725C22.198 30.3725 22.2075 30.3725 22.2169 30.3725C22.2263 30.3725 22.2358 30.3725 22.2452 30.3725C22.2547 30.3725 22.2641 30.3725 22.2736 30.3725C22.283 30.3725 22.2925 30.3725 22.3019 30.3725C22.3114 30.3725 22.3209 30.3725 22.3303 30.3725C22.3398 30.3725 22.3493 30.3725 22.3587 30.3725C22.3682 30.3725 22.3777 30.3725 22.3872 30.3725C22.3966 30.3725 22.4061 30.3725 22.4156 30.3725C22.4251 30.3725 22.4346 30.3725 22.4441 30.3725C22.4536 30.3725 22.4631 30.3725 22.4726 30.3725C22.4821 30.3725 22.4916 30.3725 22.5011 30.3725C22.5106 30.3725 22.5201 30.3725 22.5296 30.3725C22.5391 30.3725 22.5486 30.3725 22.5582 30.3725C22.5677 30.3725 22.5772 30.3725 22.5867 30.3725C22.5962 30.3725 22.6058 30.3725 22.6153 30.3725C22.6248 30.3725 22.6344 30.3725 22.6439 30.3725C22.6534 30.3725 22.663 30.3725 22.6725 30.3725C22.682 30.3725 22.6916 30.3725 22.7011 30.3725C22.7107 30.3725 22.7202 30.3725 22.7298 30.3725C22.7393 30.3725 22.7489 30.3725 22.7584 30.3725C22.768 30.3725 22.7775 30.3725 22.7871 30.3725C22.7967 30.3725 22.8062 30.3725 22.8158 30.3725C22.8254 30.3725 22.8349 30.3725 22.8445 30.3725C22.8541 30.3725 22.8636 30.3725 22.8732 30.3725C22.8828 30.3725 22.8924 30.3725 22.9019 30.3725C22.9115 30.3725 22.9211 30.3725 22.9307 30.3725C22.9403 30.3725 22.9498 30.3725 22.9594 30.3725C22.969 30.3725 22.9786 30.3725 22.9882 30.3725C22.9978 30.3725 23.0074 30.3725 23.017 30.3725C23.0266 30.3725 23.0362 30.3725 23.0458 30.3725C23.0554 30.3725 23.065 30.3725 23.0746 30.3725C23.0842 30.3725 23.0938 30.3725 23.1034 30.3725C23.113 30.3725 23.1226 30.3725 23.1322 30.3725C23.1418 30.3725 23.1514 30.3725 23.161 30.3725C23.1706 30.3725 23.1802 30.3725 23.1898 30.3725C23.1995 30.3725 23.2091 30.3725 23.2187 30.3725C23.2283 30.3725 23.2379 30.3725 23.2475 30.3725C23.2572 30.3725 23.2668 30.3725 23.2764 30.3725C23.286 30.3725 23.2956 30.3725 23.3053 30.3725C23.3149 30.3725 23.3245 30.3725 23.3341 30.3725C23.3438 30.3725 23.3534 30.3725 23.363 30.3725C23.3726 30.3725 23.3823 30.3725 23.3919 30.3725C23.4015 30.3725 23.4112 30.3725 23.4208 30.3725C23.4304 30.3725 23.4401 30.3725 23.4497 30.3725C23.4593 30.3725 23.469 30.3725 23.4786 30.3725C23.4882 30.3725 23.4979 30.3725 23.5075 30.3725C23.5171 30.3725 23.5268 30.3725 23.5364 30.3725C23.546 30.3725 23.5557 30.3725 23.5653 30.3725C23.575 30.3725 23.5846 30.3725 23.5942 30.3725C23.6039 30.3725 23.6135 30.3725 23.6232 30.3725C23.6328 30.3725 23.6424 30.3725 23.6521 30.3725C23.6617 30.3725 23.6714 30.3725 23.681 30.3725C23.6906 30.3725 23.7003 30.3725 23.7099 30.3725C23.7196 30.3725 23.7292 30.3725 23.7388 30.3725C23.7485 30.3725 23.7581 30.3725 23.7678 30.3725C23.7774 30.3725 23.7871 30.3725 23.7967 30.3725C23.8063 30.3725 23.816 30.3725 23.8256 30.3725C23.8353 30.3725 23.8449 30.3725 23.8545 30.3725C23.8642 30.3725 23.8738 30.3725 23.8835 30.3725C23.8931 30.3725 23.9028 30.3725 23.9124 30.3725C23.922 30.3725 23.9317 30.3725 23.9413 30.3725C23.951 30.3725 23.9606 30.3725 23.9702 30.3725C23.9799 30.3725 23.9895 30.3725 23.9992 30.3725C24.0088 30.3725 24.0184 30.3725 24.0281 30.3725C24.0377 30.3725 24.0473 30.3725 24.057 30.3725C24.0666 30.3725 24.0762 30.3725 24.0859 30.3725C24.0955 30.3725 24.1051 30.3725 24.1148 30.3725C24.1244 30.3725 24.134 30.3725 24.1437 30.3725C24.1533 30.3725 24.1629 30.3725 24.1726 30.3725C24.1822 30.3725 24.1918 30.3725 24.2015 30.3725C24.2111 30.3725 24.2207 30.3725 24.2303 30.3725C24.24 30.3725 24.2496 30.3725 24.2592 30.3725C24.2688 30.3725 24.2785 30.3725 24.2881 30.3725C24.2977 30.3725 24.3073 30.3725 24.3169 30.3725C24.3265 30.3725 24.3362 30.3725 24.3458 30.3725C24.3554 30.3725 24.365 30.3725 24.3746 30.3725C24.3842 30.3725 24.3939 30.3725 24.4035 30.3725C24.4131 30.3725 24.4227 30.3725 24.4323 30.3725C24.4419 30.3725 24.4515 30.3725 24.4611 30.3725C24.4707 30.3725 24.4803 30.3725 24.4899 30.3725C24.4995 30.3725 24.5091 30.3725 24.5187 30.3725C24.5283 30.3725 24.5379 30.3725 24.5475 30.3725C24.5571 30.3725 24.5667 30.3725 24.5763 30.3725C24.5859 30.3725 24.5954 30.3725 24.605 30.3725C24.6146 30.3725 24.6242 30.3725 24.6338 30.3725C24.6434 30.3725 24.6529 30.3725 24.6625 30.3725C24.6721 30.3725 24.6817 30.3725 24.6913 30.3725C24.7008 30.3725 24.7104 30.3725 24.72 30.3725C24.7295 30.3725 24.7391 30.3725 24.7487 30.3725C24.7582 30.3725 24.7678 30.3725 24.7774 30.3725C24.7869 30.3725 24.7965 30.3725 24.806 30.3725C24.8156 30.3725 24.8251 30.3725 24.8347 30.3725C24.8442 30.3725 24.8538 30.3725 24.8633 30.3725C24.8729 30.3725 24.8824 30.3725 24.892 30.3725C24.9015 30.3725 24.911 30.3725 24.9206 30.3725C24.9301 30.3725 24.9396 30.3725 24.9492 30.3725C24.9587 30.3725 24.9682 30.3725 24.9777 30.3725C24.9873 30.3725 24.9968 30.3725 25.0063 30.3725C25.0158 30.3725 25.0253 30.3725 25.0348 30.3725C25.0444 30.3725 25.0539 30.3725 25.0634 30.3725C25.0729 30.3725 25.0824 30.3725 25.0919 30.3725C25.1014 30.3725 25.1109 30.3725 25.1204 30.3725C25.1299 30.3725 25.1394 30.3725 25.1488 30.3725C25.1583 30.3725 25.1678 30.3725 25.1773 30.3725C25.1868 30.3725 25.1962 30.3725 25.2057 30.3725C25.2152 30.3725 25.2247 30.3725 25.2341 30.3725C25.2436 30.3725 25.2531 30.3725 25.2625 30.3725C25.272 30.3725 25.2814 30.3725 25.2909 30.3725C25.3003 30.3725 25.3098 30.3725 25.3192 30.3725C25.3287 30.3725 25.3381 30.3725 25.3476 30.3725C25.357 30.3725 25.3664 30.3725 25.3759 30.3725C25.3853 30.3725 25.3947 30.3725 25.4041 30.3725C25.4136 30.3725 25.423 30.3725 25.4324 30.3725C25.4418 30.3725 25.4512 30.3725 25.4606 30.3725C25.47 30.3725 25.4794 30.3725 25.4888 30.3725C25.4982 30.3725 25.5076 30.3725 25.517 30.3725C25.5264 30.3725 25.5358 30.3725 25.5452 30.3725C25.5545 30.3725 25.5639 30.3725 25.5733 30.3725C25.5827 30.3725 25.592 30.3725 25.6014 30.3725C25.6108 30.3725 25.6201 30.3725 25.6295 30.3725C25.6388 30.3725 25.6482 30.3725 25.6575 30.3725C25.6669 30.3725 25.6762 30.3725 25.6856 30.3725C25.6949 30.3725 25.7042 30.3725 25.7136 30.3725C25.7229 30.3725 25.7322 30.3725 25.7415 30.3725C25.7509 30.3725 25.7602 30.3725 25.7695 30.3725C25.7788 30.3725 25.7881 30.3725 25.7974 30.3725C25.8067 30.3725 25.816 30.3725 25.8253 30.3725C25.8346 30.3725 25.8438 30.3725 25.8531 30.3725C25.8624 30.3725 25.8717 30.3725 25.881 30.3725C25.8902 30.3725 25.8995 30.3725 25.9087 30.3725C25.918 30.3725 25.9273 30.3725 25.9365 30.3725C25.9458 30.3725 25.955 30.3725 25.9642 30.3725C25.9735 30.3725 25.9827 30.3725 25.9919 30.3725C26.0012 30.3725 26.0104 30.3725 26.0196 30.3725C26.0288 30.3725 26.038 30.3725 26.0472 30.3725C26.0565 30.3725 26.0657 30.3725 26.0749 30.3725C26.084 30.3725 26.0932 30.3725 26.1024 30.3725C26.1116 30.3725 26.1208 30.3725 26.13 30.3725C26.1391 30.3725 26.1483 30.3725 26.1575 30.3725C26.1666 30.3725 26.1758 30.3725 26.1849 30.3725C26.1941 30.3725 26.2032 30.3725 26.2124 30.3725C26.2215 30.3725 26.2306 30.3725 26.2398 30.3725C26.2489 30.3725 26.258 30.3725 26.2671 30.3725C26.2762 30.3725 26.2853 30.3725 26.2944 30.3725C26.3036 30.3725 26.3126 30.3725 26.3217 30.3725C26.3308 30.3725 26.3399 30.3725 26.349 30.3725C26.3581 30.3725 26.3671 30.3725 26.3762 30.3725C26.3853 30.3725 26.3943 30.3725 26.4034 30.3725C26.4124 30.3725 26.4215 30.3725 26.4305 30.3725C26.4396 30.3725 26.4486 30.3725 26.4576 30.3725C26.4667 30.3725 26.4757 30.3725 26.4847 30.3725C26.4937 30.3725 26.5027 30.3725 26.5117 30.3725C26.5207 30.3725 26.5297 30.3725 26.5387 30.3725C26.5477 30.3725 26.5567 30.3725 26.5656 30.3725C26.5746 30.3725 26.5836 30.3725 26.5925 30.3725C26.6015 30.3725 26.6104 30.3725 26.6194 30.3725C26.6283 30.3725 26.6373 30.3725 26.6462 30.3725C26.6551 30.3725 26.6641 30.3725 26.673 30.3725C26.6819 30.3725 26.6908 30.3725 26.6997 30.3725C26.7086 30.3725 26.7175 30.3725 26.7264 30.3725C26.7353 30.3725 26.7442 30.3725 26.7531 30.3725C26.7619 30.3725 26.7708 30.3725 26.7797 30.3725C26.7885 30.3725 26.7974 30.3725 26.8062 30.3725C26.8151 30.3725 26.8239 30.3725 26.8327 30.3725C26.8416 30.3725 26.8504 30.3725 26.8592 30.3725C26.868 30.3725 26.8768 30.3725 26.8856 30.3725C26.8944 30.3725 26.9032 30.3725 26.912 30.3725C26.9208 30.3725 26.9296 30.3725 26.9384 30.3725C26.9471 30.3725 26.9559 30.3725 26.9646 30.3725C26.9734 30.3725 26.9821 30.3725 26.9909 30.3725C26.9996 30.3725 27.0084 30.3725 27.0171 30.3725C27.0258 30.3725 27.0345 30.3725 27.0432 30.3725C27.0519 30.3725 27.0606 30.3725 27.0693 30.3725C27.078 30.3725 27.0867 30.3725 27.0954 30.3725C27.104 30.3725 27.1127 30.3725 27.1214 30.3725C27.13 30.3725 27.1387 30.3725 27.1473 30.3725C27.156 30.3725 27.1646 30.3725 27.1732 30.3725C27.1818 30.3725 27.1905 30.3725 27.1991 30.3725C27.2077 30.3725 27.2163 30.3725 27.2249 30.3725C27.2335 30.3725 27.242 30.3725 27.2506 30.3725C27.2592 30.3725 27.2678 30.3725 27.2763 30.3725C27.2849 30.3725 27.2934 30.3725 27.302 30.3725C27.3105 30.3725 27.319 30.3725 27.3276 30.3725C27.3361 30.3725 27.3446 30.3725 27.3531 30.3725C27.3616 30.3725 27.3701 30.3725 27.3786 30.3725C27.3871 30.3725 27.3955 30.3725 27.404 30.3725C27.4125 30.3725 27.4209 30.3725 27.4294 30.3725C27.4379 30.3725 27.4463 30.3725 27.4547 30.3725C27.4632 30.3725 27.4716 30.3725 27.48 30.3725C27.4884 30.3725 27.4968 30.3725 27.5052 30.3725C27.5136 30.3725 27.522 30.3725 27.5304 30.3725C27.5388 30.3725 27.5471 30.3725 27.5555 30.3725C27.5638 30.3725 27.5722 30.3725 27.5805 30.3725C27.5889 30.3725 27.5972 30.3725 27.6055 30.3725C27.6138 30.3725 27.6222 30.3725 27.6305 30.3725C27.6388 30.3725 27.647 30.3725 27.6553 30.3725C27.6636 30.3725 27.6719 30.3725 27.6801 30.3725C27.6884 30.3725 27.6967 30.3725 27.7049 30.3725C27.7132 30.3725 27.7214 30.3725 27.7296 30.3725C27.7378 30.3725 27.746 30.3725 27.7543 30.3725C27.7625 30.3725 27.7706 30.3725 27.7788 30.3725C27.787 30.3725 27.7952 30.3725 27.8034 30.3725C27.8115 30.3725 27.8197 30.3725 27.8278 30.3725C27.836 30.3725 27.8441 30.3725 27.8522 30.3725C27.8603 30.3725 27.8685 30.3725 27.8766 30.3725C27.8847 30.3725 27.8928 30.3725 27.9008 30.3725C27.9089 30.3725 27.917 30.3725 27.925 30.3725C27.9331 30.3725 27.9412 30.3725 27.9492 30.3725C27.9572 30.3725 27.9653 30.3725 27.9733 30.3725C27.9813 30.3725 27.9893 30.3725 27.9973 30.3725C28.0053 30.3725 28.0133 30.3725 28.0213 30.3725C28.0293 30.3725 28.0372 30.3725 28.0452 30.3725C28.0531 30.3725 28.0611 30.3725 28.069 30.3725C28.0769 30.3725 28.0849 30.3725 28.0928 30.3725C28.1007 30.3725 28.1086 30.3725 28.1165 30.3725C28.1244 30.3725 28.1323 30.3725 28.1401 30.3725C28.148 30.3725 28.1558 30.3725 28.1637 30.3725C28.1715 30.3725 28.1794 30.3725 28.1872 30.3725C28.195 30.3725 28.2028 30.3725 28.2106 30.3725C28.2184 30.3725 28.2262 30.3725 28.234 30.3725C28.2418 30.3725 28.2495 30.3725 28.2573 30.3725C28.2651 30.3725 28.2728 30.3725 28.2805 30.3725C28.2883 30.3725 28.296 30.3725 28.3037 30.3725C28.3114 30.3725 28.3191 30.3725 28.3268 30.3725C28.3345 30.3725 28.3422 30.3725 28.3498 30.3725C28.3575 30.3725 28.3651 30.3725 28.3728 30.3725C28.3804 30.3725 28.388 30.3725 28.3957 30.3725C28.4033 30.3725 28.4109 30.3725 28.4185 30.3725C28.4261 30.3725 28.4336 30.3725 28.4412 30.3725C28.4488 30.3725 28.4563 30.3725 28.4639 30.3725C28.4714 30.3725 28.479 30.3725 28.4865 30.3725V29.3725C28.479 29.3725 28.4714 29.3725 28.4639 29.3725C28.4563 29.3725 28.4488 29.3725 28.4412 29.3725C28.4336 29.3725 28.4261 29.3725 28.4185 29.3725C28.4109 29.3725 28.4033 29.3725 28.3957 29.3725C28.388 29.3725 28.3804 29.3725 28.3728 29.3725C28.3651 29.3725 28.3575 29.3725 28.3498 29.3725C28.3422 29.3725 28.3345 29.3725 28.3268 29.3725C28.3191 29.3725 28.3114 29.3725 28.3037 29.3725C28.296 29.3725 28.2883 29.3725 28.2805 29.3725C28.2728 29.3725 28.2651 29.3725 28.2573 29.3725C28.2495 29.3725 28.2418 29.3725 28.234 29.3725C28.2262 29.3725 28.2184 29.3725 28.2106 29.3725C28.2028 29.3725 28.195 29.3725 28.1872 29.3725C28.1794 29.3725 28.1715 29.3725 28.1637 29.3725C28.1558 29.3725 28.148 29.3725 28.1401 29.3725C28.1323 29.3725 28.1244 29.3725 28.1165 29.3725C28.1086 29.3725 28.1007 29.3725 28.0928 29.3725C28.0849 29.3725 28.0769 29.3725 28.069 29.3725C28.0611 29.3725 28.0531 29.3725 28.0452 29.3725C28.0372 29.3725 28.0293 29.3725 28.0213 29.3725C28.0133 29.3725 28.0053 29.3725 27.9973 29.3725C27.9893 29.3725 27.9813 29.3725 27.9733 29.3725C27.9653 29.3725 27.9572 29.3725 27.9492 29.3725C27.9412 29.3725 27.9331 29.3725 27.925 29.3725C27.917 29.3725 27.9089 29.3725 27.9008 29.3725C27.8928 29.3725 27.8847 29.3725 27.8766 29.3725C27.8685 29.3725 27.8603 29.3725 27.8522 29.3725C27.8441 29.3725 27.836 29.3725 27.8278 29.3725C27.8197 29.3725 27.8115 29.3725 27.8034 29.3725C27.7952 29.3725 27.787 29.3725 27.7788 29.3725C27.7706 29.3725 27.7625 29.3725 27.7543 29.3725C27.746 29.3725 27.7378 29.3725 27.7296 29.3725C27.7214 29.3725 27.7132 29.3725 27.7049 29.3725C27.6967 29.3725 27.6884 29.3725 27.6801 29.3725C27.6719 29.3725 27.6636 29.3725 27.6553 29.3725C27.647 29.3725 27.6388 29.3725 27.6305 29.3725C27.6222 29.3725 27.6138 29.3725 27.6055 29.3725C27.5972 29.3725 27.5889 29.3725 27.5805 29.3725C27.5722 29.3725 27.5638 29.3725 27.5555 29.3725C27.5471 29.3725 27.5388 29.3725 27.5304 29.3725C27.522 29.3725 27.5136 29.3725 27.5052 29.3725C27.4968 29.3725 27.4884 29.3725 27.48 29.3725C27.4716 29.3725 27.4632 29.3725 27.4547 29.3725C27.4463 29.3725 27.4379 29.3725 27.4294 29.3725C27.4209 29.3725 27.4125 29.3725 27.404 29.3725C27.3955 29.3725 27.3871 29.3725 27.3786 29.3725C27.3701 29.3725 27.3616 29.3725 27.3531 29.3725C27.3446 29.3725 27.3361 29.3725 27.3276 29.3725C27.319 29.3725 27.3105 29.3725 27.302 29.3725C27.2934 29.3725 27.2849 29.3725 27.2763 29.3725C27.2678 29.3725 27.2592 29.3725 27.2506 29.3725C27.242 29.3725 27.2335 29.3725 27.2249 29.3725C27.2163 29.3725 27.2077 29.3725 27.1991 29.3725C27.1905 29.3725 27.1818 29.3725 27.1732 29.3725C27.1646 29.3725 27.156 29.3725 27.1473 29.3725C27.1387 29.3725 27.13 29.3725 27.1214 29.3725C27.1127 29.3725 27.104 29.3725 27.0954 29.3725C27.0867 29.3725 27.078 29.3725 27.0693 29.3725C27.0606 29.3725 27.0519 29.3725 27.0432 29.3725C27.0345 29.3725 27.0258 29.3725 27.0171 29.3725C27.0084 29.3725 26.9996 29.3725 26.9909 29.3725C26.9821 29.3725 26.9734 29.3725 26.9646 29.3725C26.9559 29.3725 26.9471 29.3725 26.9384 29.3725C26.9296 29.3725 26.9208 29.3725 26.912 29.3725C26.9032 29.3725 26.8944 29.3725 26.8856 29.3725C26.8768 29.3725 26.868 29.3725 26.8592 29.3725C26.8504 29.3725 26.8416 29.3725 26.8327 29.3725C26.8239 29.3725 26.8151 29.3725 26.8062 29.3725C26.7974 29.3725 26.7885 29.3725 26.7797 29.3725C26.7708 29.3725 26.7619 29.3725 26.7531 29.3725C26.7442 29.3725 26.7353 29.3725 26.7264 29.3725C26.7175 29.3725 26.7086 29.3725 26.6997 29.3725C26.6908 29.3725 26.6819 29.3725 26.673 29.3725C26.6641 29.3725 26.6551 29.3725 26.6462 29.3725C26.6373 29.3725 26.6283 29.3725 26.6194 29.3725C26.6104 29.3725 26.6015 29.3725 26.5925 29.3725C26.5836 29.3725 26.5746 29.3725 26.5656 29.3725C26.5567 29.3725 26.5477 29.3725 26.5387 29.3725C26.5297 29.3725 26.5207 29.3725 26.5117 29.3725C26.5027 29.3725 26.4937 29.3725 26.4847 29.3725C26.4757 29.3725 26.4667 29.3725 26.4576 29.3725C26.4486 29.3725 26.4396 29.3725 26.4305 29.3725C26.4215 29.3725 26.4124 29.3725 26.4034 29.3725C26.3943 29.3725 26.3853 29.3725 26.3762 29.3725C26.3671 29.3725 26.3581 29.3725 26.349 29.3725C26.3399 29.3725 26.3308 29.3725 26.3217 29.3725C26.3126 29.3725 26.3036 29.3725 26.2944 29.3725C26.2853 29.3725 26.2762 29.3725 26.2671 29.3725C26.258 29.3725 26.2489 29.3725 26.2398 29.3725C26.2306 29.3725 26.2215 29.3725 26.2124 29.3725C26.2032 29.3725 26.1941 29.3725 26.1849 29.3725C26.1758 29.3725 26.1666 29.3725 26.1575 29.3725C26.1483 29.3725 26.1391 29.3725 26.13 29.3725C26.1208 29.3725 26.1116 29.3725 26.1024 29.3725C26.0932 29.3725 26.084 29.3725 26.0749 29.3725C26.0657 29.3725 26.0565 29.3725 26.0472 29.3725C26.038 29.3725 26.0288 29.3725 26.0196 29.3725C26.0104 29.3725 26.0012 29.3725 25.9919 29.3725C25.9827 29.3725 25.9735 29.3725 25.9642 29.3725C25.955 29.3725 25.9458 29.3725 25.9365 29.3725C25.9273 29.3725 25.918 29.3725 25.9087 29.3725C25.8995 29.3725 25.8902 29.3725 25.881 29.3725C25.8717 29.3725 25.8624 29.3725 25.8531 29.3725C25.8438 29.3725 25.8346 29.3725 25.8253 29.3725C25.816 29.3725 25.8067 29.3725 25.7974 29.3725C25.7881 29.3725 25.7788 29.3725 25.7695 29.3725C25.7602 29.3725 25.7509 29.3725 25.7415 29.3725C25.7322 29.3725 25.7229 29.3725 25.7136 29.3725C25.7042 29.3725 25.6949 29.3725 25.6856 29.3725C25.6762 29.3725 25.6669 29.3725 25.6575 29.3725C25.6482 29.3725 25.6388 29.3725 25.6295 29.3725C25.6201 29.3725 25.6108 29.3725 25.6014 29.3725C25.592 29.3725 25.5827 29.3725 25.5733 29.3725C25.5639 29.3725 25.5545 29.3725 25.5452 29.3725C25.5358 29.3725 25.5264 29.3725 25.517 29.3725C25.5076 29.3725 25.4982 29.3725 25.4888 29.3725C25.4794 29.3725 25.47 29.3725 25.4606 29.3725C25.4512 29.3725 25.4418 29.3725 25.4324 29.3725C25.423 29.3725 25.4136 29.3725 25.4041 29.3725C25.3947 29.3725 25.3853 29.3725 25.3759 29.3725C25.3664 29.3725 25.357 29.3725 25.3476 29.3725C25.3381 29.3725 25.3287 29.3725 25.3192 29.3725C25.3098 29.3725 25.3003 29.3725 25.2909 29.3725C25.2814 29.3725 25.272 29.3725 25.2625 29.3725C25.2531 29.3725 25.2436 29.3725 25.2341 29.3725C25.2247 29.3725 25.2152 29.3725 25.2057 29.3725C25.1962 29.3725 25.1868 29.3725 25.1773 29.3725C25.1678 29.3725 25.1583 29.3725 25.1488 29.3725C25.1394 29.3725 25.1299 29.3725 25.1204 29.3725C25.1109 29.3725 25.1014 29.3725 25.0919 29.3725C25.0824 29.3725 25.0729 29.3725 25.0634 29.3725C25.0539 29.3725 25.0444 29.3725 25.0348 29.3725C25.0253 29.3725 25.0158 29.3725 25.0063 29.3725C24.9968 29.3725 24.9873 29.3725 24.9777 29.3725C24.9682 29.3725 24.9587 29.3725 24.9492 29.3725C24.9396 29.3725 24.9301 29.3725 24.9206 29.3725C24.911 29.3725 24.9015 29.3725 24.892 29.3725C24.8824 29.3725 24.8729 29.3725 24.8633 29.3725C24.8538 29.3725 24.8442 29.3725 24.8347 29.3725C24.8251 29.3725 24.8156 29.3725 24.806 29.3725C24.7965 29.3725 24.7869 29.3725 24.7774 29.3725C24.7678 29.3725 24.7582 29.3725 24.7487 29.3725C24.7391 29.3725 24.7295 29.3725 24.72 29.3725C24.7104 29.3725 24.7008 29.3725 24.6913 29.3725C24.6817 29.3725 24.6721 29.3725 24.6625 29.3725C24.6529 29.3725 24.6434 29.3725 24.6338 29.3725C24.6242 29.3725 24.6146 29.3725 24.605 29.3725C24.5954 29.3725 24.5859 29.3725 24.5763 29.3725C24.5667 29.3725 24.5571 29.3725 24.5475 29.3725C24.5379 29.3725 24.5283 29.3725 24.5187 29.3725C24.5091 29.3725 24.4995 29.3725 24.4899 29.3725C24.4803 29.3725 24.4707 29.3725 24.4611 29.3725C24.4515 29.3725 24.4419 29.3725 24.4323 29.3725C24.4227 29.3725 24.4131 29.3725 24.4035 29.3725C24.3939 29.3725 24.3842 29.3725 24.3746 29.3725C24.365 29.3725 24.3554 29.3725 24.3458 29.3725C24.3362 29.3725 24.3265 29.3725 24.3169 29.3725C24.3073 29.3725 24.2977 29.3725 24.2881 29.3725C24.2785 29.3725 24.2688 29.3725 24.2592 29.3725C24.2496 29.3725 24.24 29.3725 24.2303 29.3725C24.2207 29.3725 24.2111 29.3725 24.2015 29.3725C24.1918 29.3725 24.1822 29.3725 24.1726 29.3725C24.1629 29.3725 24.1533 29.3725 24.1437 29.3725C24.134 29.3725 24.1244 29.3725 24.1148 29.3725C24.1051 29.3725 24.0955 29.3725 24.0859 29.3725C24.0762 29.3725 24.0666 29.3725 24.057 29.3725C24.0473 29.3725 24.0377 29.3725 24.0281 29.3725C24.0184 29.3725 24.0088 29.3725 23.9992 29.3725C23.9895 29.3725 23.9799 29.3725 23.9702 29.3725C23.9606 29.3725 23.951 29.3725 23.9413 29.3725C23.9317 29.3725 23.922 29.3725 23.9124 29.3725C23.9028 29.3725 23.8931 29.3725 23.8835 29.3725C23.8738 29.3725 23.8642 29.3725 23.8545 29.3725C23.8449 29.3725 23.8353 29.3725 23.8256 29.3725C23.816 29.3725 23.8063 29.3725 23.7967 29.3725C23.7871 29.3725 23.7774 29.3725 23.7678 29.3725C23.7581 29.3725 23.7485 29.3725 23.7388 29.3725C23.7292 29.3725 23.7196 29.3725 23.7099 29.3725C23.7003 29.3725 23.6906 29.3725 23.681 29.3725C23.6714 29.3725 23.6617 29.3725 23.6521 29.3725C23.6424 29.3725 23.6328 29.3725 23.6232 29.3725C23.6135 29.3725 23.6039 29.3725 23.5942 29.3725C23.5846 29.3725 23.575 29.3725 23.5653 29.3725C23.5557 29.3725 23.546 29.3725 23.5364 29.3725C23.5268 29.3725 23.5171 29.3725 23.5075 29.3725C23.4979 29.3725 23.4882 29.3725 23.4786 29.3725C23.469 29.3725 23.4593 29.3725 23.4497 29.3725C23.4401 29.3725 23.4304 29.3725 23.4208 29.3725C23.4112 29.3725 23.4015 29.3725 23.3919 29.3725C23.3823 29.3725 23.3726 29.3725 23.363 29.3725C23.3534 29.3725 23.3438 29.3725 23.3341 29.3725C23.3245 29.3725 23.3149 29.3725 23.3053 29.3725C23.2956 29.3725 23.286 29.3725 23.2764 29.3725C23.2668 29.3725 23.2572 29.3725 23.2475 29.3725C23.2379 29.3725 23.2283 29.3725 23.2187 29.3725C23.2091 29.3725 23.1995 29.3725 23.1898 29.3725C23.1802 29.3725 23.1706 29.3725 23.161 29.3725C23.1514 29.3725 23.1418 29.3725 23.1322 29.3725C23.1226 29.3725 23.113 29.3725 23.1034 29.3725C23.0938 29.3725 23.0842 29.3725 23.0746 29.3725C23.065 29.3725 23.0554 29.3725 23.0458 29.3725C23.0362 29.3725 23.0266 29.3725 23.017 29.3725C23.0074 29.3725 22.9978 29.3725 22.9882 29.3725C22.9786 29.3725 22.969 29.3725 22.9594 29.3725C22.9498 29.3725 22.9403 29.3725 22.9307 29.3725C22.9211 29.3725 22.9115 29.3725 22.9019 29.3725C22.8924 29.3725 22.8828 29.3725 22.8732 29.3725C22.8636 29.3725 22.8541 29.3725 22.8445 29.3725C22.8349 29.3725 22.8254 29.3725 22.8158 29.3725C22.8062 29.3725 22.7967 29.3725 22.7871 29.3725C22.7775 29.3725 22.768 29.3725 22.7584 29.3725C22.7489 29.3725 22.7393 29.3725 22.7298 29.3725C22.7202 29.3725 22.7107 29.3725 22.7011 29.3725C22.6916 29.3725 22.682 29.3725 22.6725 29.3725C22.663 29.3725 22.6534 29.3725 22.6439 29.3725C22.6344 29.3725 22.6248 29.3725 22.6153 29.3725C22.6058 29.3725 22.5962 29.3725 22.5867 29.3725C22.5772 29.3725 22.5677 29.3725 22.5582 29.3725C22.5486 29.3725 22.5391 29.3725 22.5296 29.3725C22.5201 29.3725 22.5106 29.3725 22.5011 29.3725C22.4916 29.3725 22.4821 29.3725 22.4726 29.3725C22.4631 29.3725 22.4536 29.3725 22.4441 29.3725C22.4346 29.3725 22.4251 29.3725 22.4156 29.3725C22.4061 29.3725 22.3966 29.3725 22.3872 29.3725C22.3777 29.3725 22.3682 29.3725 22.3587 29.3725C22.3493 29.3725 22.3398 29.3725 22.3303 29.3725C22.3209 29.3725 22.3114 29.3725 22.3019 29.3725C22.2925 29.3725 22.283 29.3725 22.2736 29.3725C22.2641 29.3725 22.2547 29.3725 22.2452 29.3725C22.2358 29.3725 22.2263 29.3725 22.2169 29.3725C22.2075 29.3725 22.198 29.3725 22.1886 29.3725C22.1792 29.3725 22.1697 29.3725 22.1603 29.3725C22.1509 29.3725 22.1415 29.3725 22.1321 29.3725C22.1226 29.3725 22.1132 29.3725 22.1038 29.3725C22.0944 29.3725 22.085 29.3725 22.0756 29.3725C22.0662 29.3725 22.0568 29.3725 22.0474 29.3725C22.038 29.3725 22.0287 29.3725 22.0193 29.3725C22.0099 29.3725 22.0005 29.3725 21.9911 29.3725C21.9818 29.3725 21.9724 29.3725 21.963 29.3725C21.9537 29.3725 21.9443 29.3725 21.935 29.3725C21.9256 29.3725 21.9163 29.3725 21.9069 29.3725C21.8976 29.3725 21.8882 29.3725 21.8789 29.3725C21.8695 29.3725 21.8602 29.3725 21.8509 29.3725C21.8416 29.3725 21.8322 29.3725 21.8229 29.3725C21.8136 29.3725 21.8043 29.3725 21.795 29.3725C21.7857 29.3725 21.7764 29.3725 21.767 29.3725C21.7577 29.3725 21.7485 29.3725 21.7392 29.3725C21.7299 29.3725 21.7206 29.3725 21.7113 29.3725C21.702 29.3725 21.6928 29.3725 21.6835 29.3725C21.6742 29.3725 21.6649 29.3725 21.6557 29.3725C21.6464 29.3725 21.6372 29.3725 21.6279 29.3725C21.6187 29.3725 21.6094 29.3725 21.6002 29.3725C21.591 29.3725 21.5817 29.3725 21.5725 29.3725C21.5633 29.3725 21.554 29.3725 21.5448 29.3725C21.5356 29.3725 21.5264 29.3725 21.5172 29.3725C21.508 29.3725 21.4988 29.3725 21.4896 29.3725C21.4804 29.3725 21.4712 29.3725 21.462 29.3725C21.4528 29.3725 21.4436 29.3725 21.4345 29.3725C21.4253 29.3725 21.4161 29.3725 21.407 29.3725C21.3978 29.3725 21.3886 29.3725 21.3795 29.3725C21.3703 29.3725 21.3612 29.3725 21.3521 29.3725C21.3429 29.3725 21.3338 29.3725 21.3247 29.3725C21.3155 29.3725 21.3064 29.3725 21.2973 29.3725C21.2882 29.3725 21.2791 29.3725 21.27 29.3725C21.2609 29.3725 21.2518 29.3725 21.2427 29.3725C21.2336 29.3725 21.2245 29.3725 21.2154 29.3725C21.2063 29.3725 21.1973 29.3725 21.1882 29.3725C21.1791 29.3725 21.1701 29.3725 21.161 29.3725C21.152 29.3725 21.1429 29.3725 21.1339 29.3725C21.1249 29.3725 21.1158 29.3725 21.1068 29.3725C21.0978 29.3725 21.0887 29.3725 21.0797 29.3725C21.0707 29.3725 21.0617 29.3725 21.0527 29.3725C21.0437 29.3725 21.0347 29.3725 21.0257 29.3725C21.0167 29.3725 21.0078 29.3725 20.9988 29.3725C20.9898 29.3725 20.9808 29.3725 20.9719 29.3725C20.9629 29.3725 20.954 29.3725 20.945 29.3725C20.9361 29.3725 20.9271 29.3725 20.9182 29.3725C20.9093 29.3725 20.9003 29.3725 20.8914 29.3725C20.8825 29.3725 20.8736 29.3725 20.8647 29.3725C20.8558 29.3725 20.8469 29.3725 20.838 29.3725C20.8291 29.3725 20.8202 29.3725 20.8113 29.3725C20.8025 29.3725 20.7936 29.3725 20.7847 29.3725C20.7759 29.3725 20.767 29.3725 20.7582 29.3725C20.7493 29.3725 20.7405 29.3725 20.7317 29.3725C20.7228 29.3725 20.714 29.3725 20.7052 29.3725C20.6964 29.3725 20.6876 29.3725 20.6788 29.3725C20.67 29.3725 20.6612 29.3725 20.6524 29.3725C20.6436 29.3725 20.6348 29.3725 20.626 29.3725C20.6173 29.3725 20.6085 29.3725 20.5997 29.3725C20.591 29.3725 20.5822 29.3725 20.5735 29.3725C20.5648 29.3725 20.556 29.3725 20.5473 29.3725C20.5386 29.3725 20.5299 29.3725 20.5212 29.3725C20.5125 29.3725 20.5038 29.3725 20.4951 29.3725C20.4864 29.3725 20.4777 29.3725 20.469 29.3725C20.4603 29.3725 20.4517 29.3725 20.443 29.3725C20.4344 29.3725 20.4257 29.3725 20.4171 29.3725C20.4084 29.3725 20.3998 29.3725 20.3912 29.3725C20.3825 29.3725 20.3739 29.3725 20.3653 29.3725C20.3567 29.3725 20.3481 29.3725 20.3395 29.3725C20.3309 29.3725 20.3223 29.3725 20.3138 29.3725C20.3052 29.3725 20.2966 29.3725 20.2881 29.3725C20.2795 29.3725 20.2709 29.3725 20.2624 29.3725C20.2539 29.3725 20.2453 29.3725 20.2368 29.3725C20.2283 29.3725 20.2198 29.3725 20.2113 29.3725C20.2028 29.3725 20.1943 29.3725 20.1858 29.3725C20.1773 29.3725 20.1688 29.3725 20.1603 29.3725C20.1519 29.3725 20.1434 29.3725 20.135 29.3725C20.1265 29.3725 20.1181 29.3725 20.1096 29.3725C20.1012 29.3725 20.0928 29.3725 20.0844 29.3725C20.0759 29.3725 20.0675 29.3725 20.0591 29.3725C20.0507 29.3725 20.0424 29.3725 20.034 29.3725C20.0256 29.3725 20.0172 29.3725 20.0089 29.3725C20.0005 29.3725 19.9922 29.3725 19.9838 29.3725C19.9755 29.3725 19.9672 29.3725 19.9588 29.3725C19.9505 29.3725 19.9422 29.3725 19.9339 29.3725C19.9256 29.3725 19.9173 29.3725 19.909 29.3725C19.9007 29.3725 19.8925 29.3725 19.8842 29.3725C19.8759 29.3725 19.8677 29.3725 19.8594 29.3725C19.8512 29.3725 19.843 29.3725 19.8347 29.3725C19.8265 29.3725 19.8183 29.3725 19.8101 29.3725C19.8019 29.3725 19.7937 29.3725 19.7855 29.3725C19.7773 29.3725 19.7691 29.3725 19.761 29.3725C19.7528 29.3725 19.7447 29.3725 19.7365 29.3725C19.7284 29.3725 19.7202 29.3725 19.7121 29.3725C19.704 29.3725 19.6959 29.3725 19.6878 29.3725C19.6797 29.3725 19.6716 29.3725 19.6635 29.3725C19.6554 29.3725 19.6473 29.3725 19.6393 29.3725C19.6312 29.3725 19.6232 29.3725 19.6151 29.3725C19.6071 29.3725 19.599 29.3725 19.591 29.3725C19.583 29.3725 19.575 29.3725 19.567 29.3725C19.559 29.3725 19.551 29.3725 19.543 29.3725C19.5351 29.3725 19.5271 29.3725 19.5191 29.3725C19.5112 29.3725 19.5032 29.3725 19.4953 29.3725C19.4874 29.3725 19.4794 29.3725 19.4715 29.3725C19.4636 29.3725 19.4557 29.3725 19.4478 29.3725C19.4399 29.3725 19.4321 29.3725 19.4242 29.3725C19.4163 29.3725 19.4085 29.3725 19.4006 29.3725C19.3928 29.3725 19.3849 29.3725 19.3771 29.3725C19.3693 29.3725 19.3615 29.3725 19.3537 29.3725C19.3459 29.3725 19.3381 29.3725 19.3303 29.3725C19.3225 29.3725 19.3148 29.3725 19.307 29.3725C19.2992 29.3725 19.2915 29.3725 19.2838 29.3725C19.276 29.3725 19.2683 29.3725 19.2606 29.3725C19.2529 29.3725 19.2452 29.3725 19.2375 29.3725C19.2298 29.3725 19.2221 29.3725 19.2145 29.3725C19.2068 29.3725 19.1992 29.3725 19.1915 29.3725C19.1839 29.3725 19.1762 29.3725 19.1686 29.3725C19.161 29.3725 19.1534 29.3725 19.1458 29.3725C19.1382 29.3725 19.1306 29.3725 19.1231 29.3725C19.1155 29.3725 19.1079 29.3725 19.1004 29.3725C19.0928 29.3725 19.0853 29.3725 19.0778 29.3725C19.0703 29.3725 19.0628 29.3725 19.0553 29.3725C19.0478 29.3725 19.0403 29.3725 19.0328 29.3725C19.0253 29.3725 19.0179 29.3725 19.0104 29.3725C19.003 29.3725 18.9955 29.3725 18.9881 29.3725C18.9807 29.3725 18.9733 29.3725 18.9659 29.3725C18.9585 29.3725 18.9511 29.3725 18.9437 29.3725C18.9363 29.3725 18.929 29.3725 18.9216 29.3725C18.9143 29.3725 18.9069 29.3725 18.8996 29.3725C18.8923 29.3725 18.885 29.3725 18.8777 29.3725C18.8704 29.3725 18.8631 29.3725 18.8558 29.3725C18.8486 29.3725 18.8413 29.3725 18.8341 29.3725C18.8268 29.3725 18.8196 29.3725 18.8123 29.3725C18.8051 29.3725 18.7979 29.3725 18.7907 29.3725C18.7835 29.3725 18.7763 29.3725 18.7692 29.3725C18.762 29.3725 18.7548 29.3725 18.7477 29.3725C18.7406 29.3725 18.7334 29.3725 18.7263 29.3725C18.7192 29.3725 18.7121 29.3725 18.705 29.3725C18.6979 29.3725 18.6908 29.3725 18.6838 29.3725C18.6767 29.3725 18.6697 29.3725 18.6626 29.3725C18.6556 29.3725 18.6486 29.3725 18.6415 29.3725C18.6345 29.3725 18.6275 29.3725 18.6205 29.3725C18.6136 29.3725 18.6066 29.3725 18.5996 29.3725C18.5927 29.3725 18.5857 29.3725 18.5788 29.3725C18.5719 29.3725 18.565 29.3725 18.5581 29.3725C18.5512 29.3725 18.5443 29.3725 18.5374 29.3725C18.5305 29.3725 18.5237 29.3725 18.5168 29.3725C18.51 29.3725 18.5031 29.3725 18.4963 29.3725C18.4895 29.3725 18.4827 29.3725 18.4759 29.3725C18.4691 29.3725 18.4623 29.3725 18.4556 29.3725C18.4488 29.3725 18.4421 29.3725 18.4353 29.3725C18.4286 29.3725 18.4219 29.3725 18.4152 29.3725C18.4085 29.3725 18.4018 29.3725 18.3951 29.3725C18.3884 29.3725 18.3817 29.3725 18.3751 29.3725C18.3684 29.3725 18.3618 29.3725 18.3552 29.3725C18.3486 29.3725 18.342 29.3725 18.3354 29.3725C18.3288 29.3725 18.3222 29.3725 18.3156 29.3725C18.3091 29.3725 18.3025 29.3725 18.296 29.3725C18.2895 29.3725 18.2829 29.3725 18.2764 29.3725C18.2699 29.3725 18.2635 29.3725 18.257 29.3725C18.2505 29.3725 18.244 29.3725 18.2376 29.3725C18.2312 29.3725 18.2247 29.3725 18.2183 29.3725C18.2119 29.3725 18.2055 29.3725 18.1991 29.3725C18.1927 29.3725 18.1864 29.3725 18.18 29.3725C18.1736 29.3725 18.1673 29.3725 18.161 29.3725C18.1547 29.3725 18.1483 29.3725 18.142 29.3725C18.1358 29.3725 18.1295 29.3725 18.1232 29.3725C18.1169 29.3725 18.1107 29.3725 18.1045 29.3725C18.0982 29.3725 18.092 29.3725 18.0858 29.3725C18.0796 29.3725 18.0734 29.3725 18.0672 29.3725C18.0611 29.3725 18.0549 29.3725 18.0488 29.3725C18.0426 29.3725 18.0365 29.3725 18.0304 29.3725C18.0243 29.3725 18.0182 29.3725 18.0121 29.3725C18.006 29.3725 18 29.3725 17.9939 29.3725C17.9879 29.3725 17.9818 29.3725 17.9758 29.3725C17.9698 29.3725 17.9638 29.3725 17.9578 29.3725C17.9518 29.3725 17.9459 29.3725 17.9399 29.3725C17.934 29.3725 17.928 29.3725 17.9221 29.3725C17.9162 29.3725 17.9103 29.3725 17.9044 29.3725C17.8985 29.3725 17.8926 29.3725 17.8868 29.3725C17.8809 29.3725 17.8751 29.3725 17.8693 29.3725C17.8634 29.3725 17.8576 29.3725 17.8518 29.3725C17.8461 29.3725 17.8403 29.3725 17.8345 29.3725C17.8288 29.3725 17.823 29.3725 17.8173 29.3725C17.8116 29.3725 17.8059 29.3725 17.8002 29.3725C17.7945 29.3725 17.7888 29.3725 17.7831 29.3725C17.7775 29.3725 17.7718 29.3725 17.7662 29.3725C17.7606 29.3725 17.755 29.3725 17.7494 29.3725C17.7438 29.3725 17.7382 29.3725 17.7326 29.3725C17.7271 29.3725 17.7215 29.3725 17.716 29.3725C17.7105 29.3725 17.705 29.3725 17.6995 29.3725C17.694 29.3725 17.6885 29.3725 17.6831 29.3725C17.6776 29.3725 17.6722 29.3725 17.6667 29.3725C17.6613 29.3725 17.6559 29.3725 17.6505 29.3725C17.6451 29.3725 17.6397 29.3725 17.6344 29.3725C17.629 29.3725 17.6237 29.3725 17.6184 29.3725C17.613 29.3725 17.6077 29.3725 17.6025 29.3725C17.5972 29.3725 17.5919 29.3725 17.5866 29.3725C17.5814 29.3725 17.5762 29.3725 17.5709 29.3725C17.5657 29.3725 17.5605 29.3725 17.5553 29.3725C17.5502 29.3725 17.545 29.3725 17.5398 29.3725C17.5347 29.3725 17.5296 29.3725 17.5245 29.3725C17.5193 29.3725 17.5142 29.3725 17.5092 29.3725C17.5041 29.3725 17.499 29.3725 17.494 29.3725C17.489 29.3725 17.4839 29.3725 17.4789 29.3725C17.4739 29.3725 17.4689 29.3725 17.464 29.3725C17.459 29.3725 17.454 29.3725 17.4491 29.3725C17.4442 29.3725 17.4393 29.3725 17.4344 29.3725C17.4295 29.3725 17.4246 29.3725 17.4197 29.3725C17.4149 29.3725 17.41 29.3725 17.4052 29.3725C17.4004 29.3725 17.3955 29.3725 17.3908 29.3725C17.386 29.3725 17.3812 29.3725 17.3764 29.3725C17.3717 29.3725 17.367 29.3725 17.3622 29.3725C17.3575 29.3725 17.3528 29.3725 17.3482 29.3725C17.3435 29.3725 17.3388 29.3725 17.3342 29.3725C17.3295 29.3725 17.3249 29.3725 17.3203 29.3725C17.3157 29.3725 17.3111 29.3725 17.3065 29.3725C17.302 29.3725 17.2974 29.3725 17.2929 29.3725C17.2884 29.3725 17.2839 29.3725 17.2794 29.3725C17.2749 29.3725 17.2704 29.3725 17.266 29.3725C17.2615 29.3725 17.2571 29.3725 17.2526 29.3725C17.2482 29.3725 17.2438 29.3725 17.2395 29.3725C17.2351 29.3725 17.2307 29.3725 17.2264 29.3725C17.222 29.3725 17.2177 29.3725 17.2134 29.3725C17.2091 29.3725 17.2048 29.3725 17.2006 29.3725C17.1963 29.3725 17.1921 29.3725 17.1878 29.3725C17.1836 29.3725 17.1794 29.3725 17.1752 29.3725C17.171 29.3725 17.1669 29.3725 17.1627 29.3725C17.1586 29.3725 17.1544 29.3725 17.1503 29.3725C17.1462 29.3725 17.1421 29.3725 17.1381 29.3725C17.134 29.3725 17.1299 29.3725 17.1259 29.3725C17.1219 29.3725 17.1179 29.3725 17.1139 29.3725C17.1099 29.3725 17.1059 29.3725 17.102 29.3725C17.098 29.3725 17.0941 29.3725 17.0902 29.3725C17.0863 29.3725 17.0824 29.3725 17.0785 29.3725C17.0746 29.3725 17.0708 29.3725 17.0669 29.3725C17.0631 29.3725 17.0593 29.3725 17.0555 29.3725C17.0517 29.3725 17.0479 29.3725 17.0442 29.3725C17.0404 29.3725 17.0367 29.3725 17.033 29.3725C17.0293 29.3725 17.0256 29.3725 17.0219 29.3725C17.0183 29.3725 17.0146 29.3725 17.011 29.3725C17.0073 29.3725 17.0037 29.3725 17.0001 29.3725C16.9966 29.3725 16.993 29.3725 16.9894 29.3725C16.9859 29.3725 16.9824 29.3725 16.9789 29.3725C16.9753 29.3725 16.9719 29.3725 16.9684 29.3725C16.9649 29.3725 16.9615 29.3725 16.9581 29.3725C16.9546 29.3725 16.9512 29.3725 16.9478 29.3725C16.9445 29.3725 16.9411 29.3725 16.9378 29.3725C16.9344 29.3725 16.9311 29.3725 16.9278 29.3725C16.9245 29.3725 16.9212 29.3725 16.918 29.3725C16.9147 29.3725 16.9115 29.3725 16.9082 29.3725C16.905 29.3725 16.9018 29.3725 16.8987 29.3725C16.8955 29.3725 16.8923 29.3725 16.8892 29.3725C16.8861 29.3725 16.883 29.3725 16.8799 29.3725C16.8768 29.3725 16.8737 29.3725 16.8707 29.3725C16.8676 29.3725 16.8646 29.3725 16.8616 29.3725C16.8586 29.3725 16.8556 29.3725 16.8526 29.3725C16.8497 29.3725 16.8467 29.3725 16.8438 29.3725C16.8409 29.3725 16.838 29.3725 16.8351 29.3725C16.8322 29.3725 16.8294 29.3725 16.8266 29.3725C16.8237 29.3725 16.8209 29.3725 16.8181 29.3725C16.8153 29.3725 16.8126 29.3725 16.8098 29.3725C16.8071 29.3725 16.8044 29.3725 16.8017 29.3725C16.799 29.3725 16.7963 29.3725 16.7936 29.3725C16.791 29.3725 16.7883 29.3725 16.7857 29.3725C16.7831 29.3725 16.7805 29.3725 16.7779 29.3725C16.7754 29.3725 16.7728 29.3725 16.7703 29.3725C16.7678 29.3725 16.7653 29.3725 16.7628 29.3725C16.7603 29.3725 16.7578 29.3725 16.7554 29.3725C16.753 29.3725 16.7506 29.3725 16.7482 29.3725C16.7458 29.3725 16.7434 29.3725 16.7411 29.3725C16.7387 29.3725 16.7364 29.3725 16.7341 29.3725C16.7318 29.3725 16.7295 29.3725 16.7272 29.3725C16.725 29.3725 16.7227 29.3725 16.7205 29.3725C16.7183 29.3725 16.7161 29.3725 16.714 29.3725C16.7118 29.3725 16.7097 29.3725 16.7075 29.3725C16.7054 29.3725 16.7033 29.3725 16.7012 29.3725C16.6992 29.3725 16.6971 29.3725 16.6951 29.3725C16.693 29.3725 16.691 29.3725 16.6891 29.3725C16.6871 29.3725 16.6851 29.3725 16.6832 29.3725C16.6812 29.3725 16.6793 29.3725 16.6774 29.3725C16.6755 29.3725 16.6737 29.3725 16.6718 29.3725V30.3725ZM7.54705 1.89764C7.59614 2.01397 7.68254 2.29692 7.80723 2.76041C7.92838 3.21074 8.07738 3.79908 8.25239 4.50126C8.60171 5.90288 9.05288 7.75109 9.5838 9.81975L10.5524 9.57116C10.0226 7.50696 9.57347 5.66682 9.22271 4.25943C9.04767 3.5571 8.89669 2.96078 8.7729 2.50063C8.65265 2.05363 8.54916 1.70029 8.46839 1.50887L7.54705 1.89764ZM10.0681 10.1955H34V9.19545H10.0681V10.1955ZM33.5347 9.51245L28.0212 23.5316L28.9518 23.8976L34.4653 9.87845L33.5347 9.51245ZM9.5838 9.81975C10.6867 14.1172 12.0421 19.4084 13.1761 23.8385L14.1449 23.5906C13.0108 19.1604 11.6554 13.8689 10.5524 9.57116L9.5838 9.81975ZM13.1761 23.8385C13.6081 25.5262 14.008 27.089 14.3496 28.4242L15.3184 28.1763C14.9768 26.8411 14.5769 25.2783 14.1449 23.5906L13.1761 23.8385ZM28.4865 23.2146H13.6605V24.2146H28.4865V23.2146ZM0.5 1H2.5V0H0.5V1ZM2.5 1L5 1V2.08616e-07L2.5 0V1Z" fill="#1E1E1E"/>
<path d="M20.019 31.7727C20.019 32.7257 19.2446 33.5 18.2873 33.5C17.33 33.5 16.5557 32.7257 16.5557 31.7727C16.5557 30.8196 17.33 30.0453 18.2873 30.0453C19.2446 30.0453 20.019 30.8196 20.019 31.7727Z" stroke="#1E1E1E"/>
<path d="M29.4633 31.7727C29.4633 32.7257 28.6889 33.5 27.7317 33.5C26.7744 33.5 26 32.7257 26 31.7727C26 30.8196 26.7744 30.0453 27.7317 30.0453C28.6889 30.0453 29.4633 30.8196 29.4633 31.7727Z" stroke="#1E1E1E"/>
</svg>
