<svg width="21" height="21" viewBox="0 0 21 21" fill="none" xmlns="http://www.w3.org/2000/svg">
<path fill-rule="evenodd" clip-rule="evenodd" d="M14.0946 1.00007H14.0897C12.2185 1.00002 9.12552 0.999929 5.50002 1.0001C4.2075 1.00016 3.08825 1.75469 2.26966 2.80715C1.44621 3.86585 0.999979 5.13577 1 6.00009V6.0001V15.0002C1 16.5963 1.68077 17.8437 2.59197 18.6979C3.51557 19.5638 4.64771 20.0002 5.5 20.0002H5.50882H5.5177H5.52663H5.53563H5.54469H5.5538H5.56298H5.57221H5.5815H5.59085H5.60026H5.60972H5.61925H5.62883H5.63847H5.64817H5.65793H5.66775H5.67762H5.68755H5.69754H5.70758H5.71768H5.72784H5.73806H5.74833H5.75866H5.76905H5.77949H5.78999H5.80055H5.81116H5.82183H5.83255H5.84334H5.85417H5.86507H5.87601H5.88702H5.89808H5.90919H5.92036H5.93159H5.94287H5.9542H5.96559H5.97704H5.98854H6.00009H6.0117H6.02337H6.03508H6.04686H6.05868H6.07056H6.08249H6.09448H6.10652H6.11862H6.13076H6.14297H6.15522H6.16753H6.17989H6.1923H6.20477H6.21729H6.22986H6.24249H6.25516H6.26789H6.28067H6.29351H6.30639H6.31933H6.33232H6.34536H6.35845H6.37159H6.38479H6.39804H6.41133H6.42468H6.43808H6.45153H6.46503H6.47859H6.49219H6.50584H6.51955H6.5333H6.5471H6.56096H6.57486H6.58881H6.60282H6.61687H6.63097H6.64513H6.65933H6.67358H6.68788H6.70223H6.71662H6.73107H6.74557H6.76011H6.7747H6.78934H6.80403H6.81877H6.83355H6.84839H6.86327H6.8782H6.89317H6.9082H6.92327H6.93839H6.95356H6.96877H6.98403H6.99934H7.01469H7.03009H7.04554H7.06104H7.07658H7.09216H7.1078H7.12348H7.1392H7.15497H7.17079H7.18666H7.20256H7.21852H7.23452H7.25056H7.26665H7.28279H7.29897H7.31519H7.33146H7.34778H7.36414H7.38054H7.39699H7.41348H7.43002H7.4466H7.46323H7.4799H7.49661H7.51336H7.53016H7.54701H7.56389H7.58082H7.5978H7.61481H7.63187H7.64897H7.66612H7.68331H7.70054H7.71781H7.73512H7.75248H7.76988H7.78732H7.8048H7.82233H7.83989H7.8575H7.87515H7.89284H7.91057H7.92835H7.94616H7.96402H7.98192H7.99985H8.01783H8.03585H8.05391H8.07201H8.09015H8.10833H8.12655H8.14481H8.16311H8.18145H8.19983H8.21825H8.2367H8.2552H8.27374H8.29231H8.31093H8.32958H8.34828H8.36701H8.38578H8.40459H8.42344H8.44232H8.46125H8.48021H8.49921H8.51825H8.53732H8.55643H8.57559H8.59477H8.614H8.63326H8.65256H8.6719H8.69128H8.71069H8.73014H8.74962H8.76914H8.7887H8.80829H8.82792H8.84759H8.8673H8.88703H8.90681H8.92662H8.94646H8.96635H8.98626H9.00622H9.0262H9.04623H9.06628H9.08638H9.10651H9.12667H9.14686H9.1671H9.18736H9.20766H9.228H9.24837H9.26877H9.2892H9.30967H9.33018H9.35072H9.37129H9.39189H9.41253H9.4332H9.45391H9.47464H9.49541H9.51621H9.53705H9.55792H9.57882H9.59975H9.62072H9.64171H9.66274H9.6838H9.7049H9.72602H9.74718H9.76837H9.78959H9.81084H9.83212H9.85343H9.87478H9.89615H9.91756H9.93899H9.96046H9.98196H10.0035H10.025H10.0466H10.0683H10.0899H10.1116H10.1333H10.155H10.1768H10.1986H10.2204H10.2423H10.2642H10.2861H10.308H10.33H10.352H10.374H10.3961H10.4182H10.4403H10.4624H10.4846H10.5068H10.529H10.5513H10.5736H10.5959H10.6182H10.6406H10.663H10.6854H10.7078H10.7303H10.7528H10.7753H10.7979H10.8205H10.8431H10.8657H10.8884H10.9111H10.9338H10.9565H10.9793H11.0021H11.0249H11.0477H11.0706H11.0935H11.1164H11.1393H11.1623H11.1853H11.2083H11.2314H11.2544H11.2775H11.3006H11.3238H11.3469H11.3701H11.3933H11.4166H11.4398H11.4631H11.4864H11.5098H11.5331H11.5565H11.5799H11.6033H11.6268H11.6502H11.6737H11.6973H11.7208H11.7444H11.7679H11.7915H11.8152H11.8388H11.8625H11.8862H11.9099H11.9336H11.9574H11.9812H12.005H12.0288H12.0526H12.0765H12.1004H12.1243H12.1482H12.1722H12.1962H12.2201H12.2442H12.2682H12.2922H12.3163H12.3404H12.3645H12.3886H12.4128H12.4369H12.4611H12.4853H12.5096H12.5338H12.5581H12.5824H12.6067H12.631H12.6553H12.6797H12.7041H12.7285H12.7529H12.7773H12.8018H12.8262H12.8507H12.8752H12.8997H12.9243H12.9488H12.9734H12.998H13.0226H13.0472H13.0718H13.0965H13.1212H13.1459H13.1706H13.1953H13.22H13.2448H13.2696H13.2943H13.3191H13.344H13.3688H13.3937H13.4185H13.4434H13.4683H13.4932H13.5181H13.5431H13.568H13.593H13.618H13.643H13.668H13.693H13.7181H13.7431H13.7682H13.7933H13.8184H13.8435H13.8686H13.8937H13.9189H13.9441H13.9692H13.9944H14.0196H14.0448H14.0701H14.0953H14.1206H14.1458H14.1711H14.1964H14.2217H14.247H14.2724H14.2977H14.323H14.3484H14.3738H14.3992H14.4246H14.45H14.4754H14.5008H14.5263H14.5517H14.5772H14.6026H14.6281H14.6536H14.6791H14.7046H14.7302H14.7557H14.7812H14.8068H14.8324H14.8579H14.8835H14.9091H14.9347H14.9603H14.9859H15.0116H15.0372H15.0628H15.0885H15.1142H15.1398H15.1655H15.1912H15.2169H15.2426H15.2683H15.294H15.3198H15.3455H15.3712H15.397H15.4227H15.4485H15.4743H15.5C16.8204 20.0002 17.938 19.3426 18.7391 18.3698C19.545 17.3911 20 16.127 20 15.0002V14.9923V14.9844V14.9765V14.9685V14.9604V14.9523V14.9441V14.9359V14.9276V14.9193V14.9109V14.9024V14.8939V14.8854V14.8767V14.8681V14.8594V14.8506V14.8418V14.8329V14.8239V14.8149V14.8059V14.7968V14.7876V14.7784V14.7692V14.7599V14.7505V14.7411V14.7316V14.7221V14.7125V14.7029V14.6932V14.6834V14.6736V14.6638V14.6539V14.644V14.634V14.6239V14.6138V14.6036V14.5934V14.5832V14.5728V14.5625V14.5521V14.5416V14.5311V14.5205V14.5099V14.4992V14.4885V14.4777V14.4668V14.456V14.445V14.434V14.423V14.4119V14.4008V14.3896V14.3784V14.3671V14.3557V14.3443V14.3329V14.3214V14.3099V14.2983V14.2867V14.275V14.2632V14.2514V14.2396V14.2277V14.2158V14.2038V14.1918V14.1797V14.1675V14.1554V14.1431V14.1308V14.1185V14.1061V14.0937V14.0812V14.0687V14.0561V14.0435V14.0309V14.0181V14.0054V13.9926V13.9797V13.9668V13.9538V13.9408V13.9278V13.9147V13.9015V13.8883V13.8751V13.8618V13.8485V13.8351V13.8217V13.8082V13.7947V13.7811V13.7675V13.7538V13.7401V13.7264V13.7126V13.6987V13.6848V13.6709V13.6569V13.6429V13.6288V13.6147V13.6005V13.5863V13.572V13.5577V13.5434V13.529V13.5145V13.5V13.4855V13.4709V13.4563V13.4416V13.4269V13.4122V13.3974V13.3825V13.3677V13.3527V13.3377V13.3227V13.3077V13.2925V13.2774V13.2622V13.247V13.2317V13.2163V13.201V13.1856V13.1701V13.1546V13.1391V13.1235V13.1078V13.0922V13.0765V13.0607V13.0449V13.0291V13.0132V12.9972V12.9813V12.9653V12.9492V12.9331V12.917V12.9008V12.8846V12.8683V12.852V12.8356V12.8193V12.8028V12.7864V12.7698V12.7533V12.7367V12.7201V12.7034V12.6867V12.6699V12.6531V12.6363V12.6194V12.6025V12.5855V12.5685V12.5514V12.5344V12.5172V12.5001V12.4829V12.4656V12.4483V12.431V12.4137V12.3963V12.3788V12.3613V12.3438V12.3263V12.3087V12.291V12.2734V12.2556V12.2379V12.2201V12.2023V12.1844V12.1665V12.1485V12.1306V12.1125V12.0945V12.0764V12.0582V12.0401V12.0218V12.0036V11.9853V11.967V11.9486V11.9302V11.9118V11.8933V11.8748V11.8562V11.8377V11.819V11.8004V11.7817V11.7629V11.7442V11.7254V11.7065V11.6876V11.6687V11.6498V11.6308V11.6118V11.5927V11.5736V11.5545V11.5353V11.5161V11.4969V11.4776V11.4583V11.4389V11.4195V11.4001V11.3807V11.3612V11.3417V11.3221V11.3025V11.2829V11.2632V11.2435V11.2238V11.204V11.1842V11.1644V11.1445V11.1246V11.1047V11.0847V11.0647V11.0447V11.0246V11.0045V10.9844V10.9642V10.944V10.9238V10.9035V10.8832V10.8629V10.8425V10.8221V10.8017V10.7812V10.7607V10.7402V10.7196V10.699V10.6784V10.6577V10.637V10.6163V10.5956V10.5748V10.5539V10.5331V10.5122V10.4913V10.4703V10.4494V10.4284V10.4073V10.3862V10.3651V10.344V10.3228V10.3016V10.2804V10.2592V10.2379V10.2166V10.1952V10.1738V10.1524V10.131V10.1095V10.088V10.0665V10.0449V10.0233V10.0017V9.98006V9.95838V9.93667V9.91493V9.89317V9.87137V9.84955V9.82769V9.80581V9.7839V9.76196V9.73999V9.71799V9.69596V9.67391V9.65182V9.62971V9.60757V9.5854V9.56321V9.54098V9.51873V9.49645V9.47414V9.45181V9.42944V9.40705V9.38463V9.36219V9.33971V9.31721V9.29469V9.27213V9.24955V9.22694V9.20431V9.18165V9.15896V9.13624V9.1135V9.09073V9.06794V9.04512V9.02227V8.9994V8.9765V8.95358V8.93062V8.90765V8.88465V8.86162V8.83857V8.81549V8.79238V8.76925V8.7461V8.72292V8.69972V8.67649V8.65323V8.62995V8.60665V8.58332V8.55997V8.53659V8.51319V8.48976V8.46631V8.44284V8.41934V8.39582V8.37227V8.3487V8.32511V8.30149V8.27785V8.25418V8.23049V8.20678V8.18305V8.15929V8.13551V8.1117V8.08788V8.06403V8.04015V8.01626V7.99234V7.9684V7.94444V7.92045V7.89644V7.87241V7.84836V7.82429V7.80019V7.77607V7.75193V7.72777V7.70359V7.67938V7.65516V7.63091V7.60664V7.58235V7.55804V7.5337V7.50935V7.48498V7.46058V7.43616V7.41173V7.38727V7.36279V7.33829V7.31377V7.28924V7.26468V7.2401V7.2155V7.19088V7.16624V7.14158V7.1169V7.0922V7.06748V7.04275V7.01799V6.99321V6.96842V6.9436V6.91877V6.89392V6.86904V6.84415V6.81924V6.79432V6.76937V6.7444V6.71942V6.69442V6.6694V6.64436V6.6193V6.59423V6.56914V6.54403V6.5189V6.49375V6.46859V6.44341V6.41821V6.39299V6.36776V6.34251V6.31724V6.29196V6.26665V6.24134V6.216V6.19065V6.16528V6.13989V6.11449V6.08907V6.06364V6.03819V6.01272V5.98724V5.96174V5.93622V5.91069V5.88514V5.85958V5.834V5.80841V5.7828V5.75718V5.73154V5.70588V5.68021V5.65453V5.62883V5.60311V5.57738V5.55163V5.52588V5.5001C20 4.35765 19.3496 3.23156 18.412 2.3712C17.4682 1.50523 16.3333 1.00008 15.5 1.0001L14.0946 1.00007ZM14.0947 7.08986e-05L15.5 0.000101863C16.6667 7.01536e-05 18.0318 0.665192 19.0881 1.63438C20.1504 2.60916 21 3.9831 21 5.5001V5.52588V5.55163V5.57738V5.60311V5.62883V5.65453V5.68021V5.70588V5.73154V5.75718V5.7828V5.80841V5.834V5.85958V5.88514V5.91069V5.93622V5.96174V5.98724V6.01272V6.03819V6.06364V6.08907V6.11449V6.13989V6.16528V6.19065V6.216V6.24134V6.26665V6.29196V6.31724V6.34251V6.36776V6.39299V6.41821V6.44341V6.46859V6.49375V6.5189V6.54403V6.56914V6.59423V6.6193V6.64436V6.6694V6.69442V6.71942V6.7444V6.76937V6.79432V6.81924V6.84415V6.86904V6.89392V6.91877V6.9436V6.96842V6.99321V7.01799V7.04275V7.06748V7.0922V7.1169V7.14158V7.16624V7.19088V7.2155V7.2401V7.26468V7.28924V7.31377V7.33829V7.36279V7.38727V7.41173V7.43616V7.46058V7.48498V7.50935V7.5337V7.55804V7.58235V7.60664V7.63091V7.65516V7.67938V7.70359V7.72777V7.75193V7.77607V7.80019V7.82429V7.84836V7.87241V7.89644V7.92045V7.94444V7.9684V7.99234V8.01626V8.04015V8.06403V8.08788V8.1117V8.13551V8.15929V8.18305V8.20678V8.23049V8.25418V8.27785V8.30149V8.32511V8.3487V8.37227V8.39582V8.41934V8.44284V8.46631V8.48976V8.51319V8.53659V8.55997V8.58332V8.60665V8.62995V8.65323V8.67649V8.69972V8.72292V8.7461V8.76925V8.79238V8.81549V8.83857V8.86162V8.88465V8.90765V8.93062V8.95358V8.9765V8.9994V9.02227V9.04512V9.06794V9.09073V9.1135V9.13624V9.15896V9.18165V9.20431V9.22694V9.24955V9.27213V9.29469V9.31721V9.33971V9.36219V9.38463V9.40705V9.42944V9.45181V9.47414V9.49645V9.51873V9.54098V9.56321V9.5854V9.60757V9.62971V9.65182V9.67391V9.69596V9.71799V9.73999V9.76196V9.7839V9.80581V9.82769V9.84955V9.87137V9.89317V9.91493V9.93667V9.95838V9.98006V10.0017V10.0233V10.0449V10.0665V10.088V10.1095V10.131V10.1524V10.1738V10.1952V10.2166V10.2379V10.2592V10.2804V10.3016V10.3228V10.344V10.3651V10.3862V10.4073V10.4284V10.4494V10.4703V10.4913V10.5122V10.5331V10.5539V10.5748V10.5956V10.6163V10.637V10.6577V10.6784V10.699V10.7196V10.7402V10.7607V10.7812V10.8017V10.8221V10.8425V10.8629V10.8832V10.9035V10.9238V10.944V10.9642V10.9844V11.0045V11.0246V11.0447V11.0647V11.0847V11.1047V11.1246V11.1445V11.1644V11.1842V11.204V11.2238V11.2435V11.2632V11.2829V11.3025V11.3221V11.3417V11.3612V11.3807V11.4001V11.4195V11.4389V11.4583V11.4776V11.4969V11.5161V11.5353V11.5545V11.5736V11.5927V11.6118V11.6308V11.6498V11.6687V11.6876V11.7065V11.7254V11.7442V11.7629V11.7817V11.8004V11.819V11.8377V11.8562V11.8748V11.8933V11.9118V11.9302V11.9486V11.967V11.9853V12.0036V12.0218V12.0401V12.0582V12.0764V12.0945V12.1125V12.1306V12.1485V12.1665V12.1844V12.2023V12.2201V12.2379V12.2556V12.2734V12.291V12.3087V12.3263V12.3438V12.3613V12.3788V12.3963V12.4137V12.431V12.4483V12.4656V12.4829V12.5001V12.5172V12.5344V12.5514V12.5685V12.5855V12.6025V12.6194V12.6363V12.6531V12.6699V12.6867V12.7034V12.7201V12.7367V12.7533V12.7698V12.7864V12.8028V12.8193V12.8356V12.852V12.8683V12.8846V12.9008V12.917V12.9331V12.9492V12.9653V12.9813V12.9972V13.0132V13.0291V13.0449V13.0607V13.0765V13.0922V13.1078V13.1235V13.1391V13.1546V13.1701V13.1856V13.201V13.2163V13.2317V13.247V13.2622V13.2774V13.2925V13.3077V13.3227V13.3377V13.3527V13.3677V13.3825V13.3974V13.4122V13.4269V13.4416V13.4563V13.4709V13.4855V13.5V13.5145V13.529V13.5434V13.5577V13.572V13.5863V13.6005V13.6147V13.6288V13.6429V13.6569V13.6709V13.6848V13.6987V13.7126V13.7264V13.7401V13.7538V13.7675V13.7811V13.7947V13.8082V13.8217V13.8351V13.8485V13.8618V13.8751V13.8883V13.9015V13.9147V13.9278V13.9408V13.9538V13.9668V13.9797V13.9926V14.0054V14.0181V14.0309V14.0435V14.0561V14.0687V14.0812V14.0937V14.1061V14.1185V14.1308V14.1431V14.1554V14.1675V14.1797V14.1918V14.2038V14.2158V14.2277V14.2396V14.2514V14.2632V14.275V14.2867V14.2983V14.3099V14.3214V14.3329V14.3443V14.3557V14.3671V14.3784V14.3896V14.4008V14.4119V14.423V14.434V14.445V14.456V14.4668V14.4777V14.4885V14.4992V14.5099V14.5205V14.5311V14.5416V14.5521V14.5625V14.5728V14.5832V14.5934V14.6036V14.6138V14.6239V14.634V14.644V14.6539V14.6638V14.6736V14.6834V14.6932V14.7029V14.7125V14.7221V14.7316V14.7411V14.7505V14.7599V14.7692V14.7784V14.7876V14.7968V14.8059V14.8149V14.8239V14.8329V14.8418V14.8506V14.8594V14.8681V14.8767V14.8854V14.8939V14.9024V14.9109V14.9193V14.9276V14.9359V14.9441V14.9523V14.9604V14.9685V14.9765V14.9844V14.9923V15.0002C21 16.3733 20.455 17.8592 19.511 19.0055C18.5621 20.1578 17.1797 21.0002 15.5 21.0002H15.4743H15.4485H15.4227H15.397H15.3712H15.3455H15.3198H15.294H15.2683H15.2426H15.2169H15.1912H15.1655H15.1398H15.1142H15.0885H15.0628H15.0372H15.0116H14.9859H14.9603H14.9347H14.9091H14.8835H14.8579H14.8324H14.8068H14.7812H14.7557H14.7302H14.7046H14.6791H14.6536H14.6281H14.6026H14.5772H14.5517H14.5263H14.5008H14.4754H14.45H14.4246H14.3992H14.3738H14.3484H14.323H14.2977H14.2724H14.247H14.2217H14.1964H14.1711H14.1458H14.1206H14.0953H14.0701H14.0448H14.0196H13.9944H13.9692H13.9441H13.9189H13.8937H13.8686H13.8435H13.8184H13.7933H13.7682H13.7431H13.7181H13.693H13.668H13.643H13.618H13.593H13.568H13.5431H13.5181H13.4932H13.4683H13.4434H13.4185H13.3937H13.3688H13.344H13.3191H13.2943H13.2696H13.2448H13.22H13.1953H13.1706H13.1459H13.1212H13.0965H13.0718H13.0472H13.0226H12.998H12.9734H12.9488H12.9243H12.8997H12.8752H12.8507H12.8262H12.8018H12.7773H12.7529H12.7285H12.7041H12.6797H12.6553H12.631H12.6067H12.5824H12.5581H12.5338H12.5096H12.4853H12.4611H12.4369H12.4128H12.3886H12.3645H12.3404H12.3163H12.2922H12.2682H12.2442H12.2201H12.1962H12.1722H12.1482H12.1243H12.1004H12.0765H12.0526H12.0288H12.005H11.9812H11.9574H11.9336H11.9099H11.8862H11.8625H11.8388H11.8152H11.7915H11.7679H11.7444H11.7208H11.6973H11.6737H11.6502H11.6268H11.6033H11.5799H11.5565H11.5331H11.5098H11.4864H11.4631H11.4398H11.4166H11.3933H11.3701H11.3469H11.3238H11.3006H11.2775H11.2544H11.2314H11.2083H11.1853H11.1623H11.1393H11.1164H11.0935H11.0706H11.0477H11.0249H11.0021H10.9793H10.9565H10.9338H10.9111H10.8884H10.8657H10.8431H10.8205H10.7979H10.7753H10.7528H10.7303H10.7078H10.6854H10.663H10.6406H10.6182H10.5959H10.5736H10.5513H10.529H10.5068H10.4846H10.4624H10.4403H10.4182H10.3961H10.374H10.352H10.33H10.308H10.2861H10.2642H10.2423H10.2204H10.1986H10.1768H10.155H10.1333H10.1116H10.0899H10.0683H10.0466H10.025H10.0035H9.98196H9.96046H9.93899H9.91756H9.89615H9.87478H9.85343H9.83212H9.81084H9.78959H9.76837H9.74718H9.72602H9.7049H9.6838H9.66274H9.64171H9.62072H9.59975H9.57882H9.55792H9.53705H9.51621H9.49541H9.47464H9.45391H9.4332H9.41253H9.39189H9.37129H9.35072H9.33018H9.30967H9.2892H9.26877H9.24837H9.228H9.20766H9.18736H9.1671H9.14686H9.12667H9.10651H9.08638H9.06628H9.04623H9.0262H9.00622H8.98626H8.96635H8.94646H8.92662H8.90681H8.88703H8.8673H8.84759H8.82792H8.80829H8.7887H8.76914H8.74962H8.73014H8.71069H8.69128H8.6719H8.65256H8.63326H8.614H8.59477H8.57559H8.55643H8.53732H8.51825H8.49921H8.48021H8.46125H8.44232H8.42344H8.40459H8.38578H8.36701H8.34828H8.32958H8.31093H8.29231H8.27374H8.2552H8.2367H8.21825H8.19983H8.18145H8.16311H8.14481H8.12655H8.10833H8.09015H8.07201H8.05391H8.03585H8.01783H7.99985H7.98192H7.96402H7.94616H7.92835H7.91057H7.89284H7.87515H7.8575H7.83989H7.82233H7.8048H7.78732H7.76988H7.75248H7.73512H7.71781H7.70054H7.68331H7.66612H7.64897H7.63187H7.61481H7.5978H7.58082H7.56389H7.54701H7.53016H7.51336H7.49661H7.4799H7.46323H7.4466H7.43002H7.41348H7.39699H7.38054H7.36414H7.34778H7.33146H7.31519H7.29897H7.28279H7.26665H7.25056H7.23452H7.21852H7.20256H7.18666H7.17079H7.15497H7.1392H7.12348H7.1078H7.09216H7.07658H7.06104H7.04554H7.03009H7.01469H6.99934H6.98403H6.96877H6.95356H6.93839H6.92327H6.9082H6.89317H6.8782H6.86327H6.84839H6.83355H6.81877H6.80403H6.78934H6.7747H6.76011H6.74557H6.73107H6.71662H6.70223H6.68788H6.67358H6.65933H6.64513H6.63097H6.61687H6.60282H6.58881H6.57486H6.56096H6.5471H6.5333H6.51955H6.50584H6.49219H6.47859H6.46503H6.45153H6.43808H6.42468H6.41133H6.39804H6.38479H6.37159H6.35845H6.34536H6.33232H6.31933H6.30639H6.29351H6.28067H6.26789H6.25516H6.24249H6.22986H6.21729H6.20477H6.1923H6.17989H6.16753H6.15522H6.14297H6.13076H6.11862H6.10652H6.09448H6.08249H6.07056H6.05868H6.04686H6.03508H6.02337H6.0117H6.00009H5.98854H5.97704H5.96559H5.9542H5.94287H5.93159H5.92036H5.90919H5.89808H5.88702H5.87601H5.86507H5.85417H5.84334H5.83255H5.82183H5.81116H5.80055H5.78999H5.77949H5.76905H5.75866H5.74833H5.73806H5.72784H5.71768H5.70758H5.69754H5.68755H5.67762H5.66775H5.65793H5.64817H5.63847H5.62883H5.61925H5.60972H5.60026H5.59085H5.5815H5.57221H5.56298H5.5538H5.54469H5.53563H5.52663H5.5177H5.50882H5.5C4.35229 21.0002 2.98443 20.4366 1.90803 19.4275C0.819229 18.4067 7.28069e-10 16.9041 7.28069e-10 15.0002V6.00011V6.0001C-2.31855e-05 4.86448 0.553748 3.38447 1.48031 2.1932C2.41172 0.995688 3.7925 0.000183373 5.49998 0.000101863C9.12801 -7.13738e-05 12.2229 1.72795e-05 14.0936 7.08673e-05L14.0947 7.08986e-05ZM17.2359 4.7481C17.2359 5.27277 16.8106 5.6981 16.2859 5.6981C15.7613 5.6981 15.3359 5.27277 15.3359 4.7481C15.3359 4.22343 15.7613 3.7981 16.2859 3.7981C16.8106 3.7981 17.2359 4.22343 17.2359 4.7481ZM6 10.5C6 8.01472 8.01472 6 10.5 6C12.9853 6 15 8.01472 15 10.5C15 12.9853 12.9853 15 10.5 15C8.01472 15 6 12.9853 6 10.5ZM10.5 5C7.46243 5 5 7.46243 5 10.5C5 13.5376 7.46243 16 10.5 16C13.5376 16 16 13.5376 16 10.5C16 7.46243 13.5376 5 10.5 5Z" fill="#1E1E1E"/>
</svg>
