<svg width="22" height="22" viewBox="0 0 22 22" fill="none" xmlns="http://www.w3.org/2000/svg">
<path fill-rule="evenodd" clip-rule="evenodd" d="M14.5946 1.50007H14.5897C12.7185 1.50002 9.62552 1.49993 6.00002 1.5001C4.7075 1.50016 3.58825 2.25469 2.76966 3.30715C1.94621 4.36585 1.49998 5.63577 1.5 6.50009V6.5001V15.5002C1.5 17.0963 2.18077 18.3437 3.09197 19.1979C4.01557 20.0638 5.14771 20.5002 6 20.5002H6.00882H6.0177H6.02663H6.03563H6.04469H6.0538H6.06298H6.07221H6.0815H6.09085H6.10026H6.10972H6.11925H6.12883H6.13847H6.14817H6.15793H6.16775H6.17762H6.18755H6.19754H6.20758H6.21768H6.22784H6.23806H6.24833H6.25866H6.26905H6.27949H6.28999H6.30055H6.31116H6.32183H6.33255H6.34334H6.35417H6.36507H6.37601H6.38702H6.39808H6.40919H6.42036H6.43159H6.44287H6.4542H6.46559H6.47704H6.48854H6.50009H6.5117H6.52337H6.53508H6.54686H6.55868H6.57056H6.58249H6.59448H6.60652H6.61862H6.63076H6.64297H6.65522H6.66753H6.67989H6.6923H6.70477H6.71729H6.72986H6.74249H6.75516H6.76789H6.78067H6.79351H6.80639H6.81933H6.83232H6.84536H6.85845H6.87159H6.88479H6.89804H6.91133H6.92468H6.93808H6.95153H6.96503H6.97859H6.99219H7.00584H7.01955H7.0333H7.0471H7.06096H7.07486H7.08881H7.10282H7.11687H7.13097H7.14513H7.15933H7.17358H7.18788H7.20223H7.21662H7.23107H7.24557H7.26011H7.2747H7.28934H7.30403H7.31877H7.33355H7.34839H7.36327H7.3782H7.39317H7.4082H7.42327H7.43839H7.45356H7.46877H7.48403H7.49934H7.51469H7.53009H7.54554H7.56104H7.57658H7.59216H7.6078H7.62348H7.6392H7.65497H7.67079H7.68666H7.70256H7.71852H7.73452H7.75056H7.76665H7.78279H7.79897H7.81519H7.83146H7.84778H7.86414H7.88054H7.89699H7.91348H7.93002H7.9466H7.96323H7.9799H7.99661H8.01336H8.03016H8.04701H8.06389H8.08082H8.0978H8.11481H8.13187H8.14897H8.16612H8.18331H8.20054H8.21781H8.23512H8.25248H8.26988H8.28732H8.3048H8.32233H8.33989H8.3575H8.37515H8.39284H8.41057H8.42835H8.44616H8.46402H8.48192H8.49985H8.51783H8.53585H8.55391H8.57201H8.59015H8.60833H8.62655H8.64481H8.66311H8.68145H8.69983H8.71825H8.7367H8.7552H8.77374H8.79231H8.81093H8.82958H8.84828H8.86701H8.88578H8.90459H8.92344H8.94232H8.96125H8.98021H8.99921H9.01825H9.03732H9.05643H9.07559H9.09477H9.114H9.13326H9.15256H9.1719H9.19128H9.21069H9.23014H9.24962H9.26914H9.2887H9.30829H9.32792H9.34759H9.3673H9.38703H9.40681H9.42662H9.44646H9.46635H9.48626H9.50622H9.5262H9.54623H9.56628H9.58638H9.60651H9.62667H9.64686H9.6671H9.68736H9.70766H9.728H9.74837H9.76877H9.7892H9.80967H9.83018H9.85072H9.87129H9.89189H9.91253H9.9332H9.95391H9.97464H9.99541H10.0162H10.0371H10.0579H10.0788H10.0998H10.1207H10.1417H10.1627H10.1838H10.2049H10.226H10.2472H10.2684H10.2896H10.3108H10.3321H10.3534H10.3748H10.3962H10.4176H10.439H10.4605H10.482H10.5035H10.525H10.5466H10.5683H10.5899H10.6116H10.6333H10.655H10.6768H10.6986H10.7204H10.7423H10.7642H10.7861H10.808H10.83H10.852H10.874H10.8961H10.9182H10.9403H10.9624H10.9846H11.0068H11.029H11.0513H11.0736H11.0959H11.1182H11.1406H11.163H11.1854H11.2078H11.2303H11.2528H11.2753H11.2979H11.3205H11.3431H11.3657H11.3884H11.4111H11.4338H11.4565H11.4793H11.5021H11.5249H11.5477H11.5706H11.5935H11.6164H11.6393H11.6623H11.6853H11.7083H11.7314H11.7544H11.7775H11.8006H11.8238H11.8469H11.8701H11.8933H11.9166H11.9398H11.9631H11.9864H12.0098H12.0331H12.0565H12.0799H12.1033H12.1268H12.1502H12.1737H12.1973H12.2208H12.2444H12.2679H12.2915H12.3152H12.3388H12.3625H12.3862H12.4099H12.4336H12.4574H12.4812H12.505H12.5288H12.5526H12.5765H12.6004H12.6243H12.6482H12.6722H12.6962H12.7201H12.7442H12.7682H12.7922H12.8163H12.8404H12.8645H12.8886H12.9128H12.9369H12.9611H12.9853H13.0096H13.0338H13.0581H13.0824H13.1067H13.131H13.1553H13.1797H13.2041H13.2285H13.2529H13.2773H13.3018H13.3262H13.3507H13.3752H13.3997H13.4243H13.4488H13.4734H13.498H13.5226H13.5472H13.5718H13.5965H13.6212H13.6459H13.6706H13.6953H13.72H13.7448H13.7696H13.7943H13.8191H13.844H13.8688H13.8937H13.9185H13.9434H13.9683H13.9932H14.0181H14.0431H14.068H14.093H14.118H14.143H14.168H14.193H14.2181H14.2431H14.2682H14.2933H14.3184H14.3435H14.3686H14.3937H14.4189H14.4441H14.4692H14.4944H14.5196H14.5448H14.5701H14.5953H14.6206H14.6458H14.6711H14.6964H14.7217H14.747H14.7724H14.7977H14.823H14.8484H14.8738H14.8992H14.9246H14.95H14.9754H15.0008H15.0263H15.0517H15.0772H15.1026H15.1281H15.1536H15.1791H15.2046H15.2302H15.2557H15.2812H15.3068H15.3324H15.3579H15.3835H15.4091H15.4347H15.4603H15.4859H15.5116H15.5372H15.5628H15.5885H15.6142H15.6398H15.6655H15.6912H15.7169H15.7426H15.7683H15.794H15.8198H15.8455H15.8712H15.897H15.9227H15.9485H15.9743H16C17.3204 20.5002 18.438 19.8426 19.2391 18.8698C20.045 17.8911 20.5 16.627 20.5 15.5002V15.4923V15.4844V15.4765V15.4685V15.4604V15.4523V15.4441V15.4359V15.4276V15.4193V15.4109V15.4024V15.3939V15.3854V15.3767V15.3681V15.3594V15.3506V15.3418V15.3329V15.3239V15.3149V15.3059V15.2968V15.2876V15.2784V15.2692V15.2599V15.2505V15.2411V15.2316V15.2221V15.2125V15.2029V15.1932V15.1834V15.1736V15.1638V15.1539V15.144V15.134V15.1239V15.1138V15.1036V15.0934V15.0832V15.0728V15.0625V15.0521V15.0416V15.0311V15.0205V15.0099V14.9992V14.9885V14.9777V14.9668V14.956V14.945V14.934V14.923V14.9119V14.9008V14.8896V14.8784V14.8671V14.8557V14.8443V14.8329V14.8214V14.8099V14.7983V14.7867V14.775V14.7632V14.7514V14.7396V14.7277V14.7158V14.7038V14.6918V14.6797V14.6675V14.6554V14.6431V14.6308V14.6185V14.6061V14.5937V14.5812V14.5687V14.5561V14.5435V14.5309V14.5181V14.5054V14.4926V14.4797V14.4668V14.4538V14.4408V14.4278V14.4147V14.4015V14.3883V14.3751V14.3618V14.3485V14.3351V14.3217V14.3082V14.2947V14.2811V14.2675V14.2538V14.2401V14.2264V14.2126V14.1987V14.1848V14.1709V14.1569V14.1429V14.1288V14.1147V14.1005V14.0863V14.072V14.0577V14.0434V14.029V14.0145V14V13.9855V13.9709V13.9563V13.9416V13.9269V13.9122V13.8974V13.8825V13.8677V13.8527V13.8377V13.8227V13.8077V13.7925V13.7774V13.7622V13.747V13.7317V13.7163V13.701V13.6856V13.6701V13.6546V13.6391V13.6235V13.6078V13.5922V13.5765V13.5607V13.5449V13.5291V13.5132V13.4972V13.4813V13.4653V13.4492V13.4331V13.417V13.4008V13.3846V13.3683V13.352V13.3356V13.3193V13.3028V13.2864V13.2698V13.2533V13.2367V13.2201V13.2034V13.1867V13.1699V13.1531V13.1363V13.1194V13.1025V13.0855V13.0685V13.0514V13.0344V13.0172V13.0001V12.9829V12.9656V12.9483V12.931V12.9137V12.8963V12.8788V12.8613V12.8438V12.8263V12.8087V12.791V12.7734V12.7556V12.7379V12.7201V12.7023V12.6844V12.6665V12.6485V12.6306V12.6125V12.5945V12.5764V12.5582V12.5401V12.5218V12.5036V12.4853V12.467V12.4486V12.4302V12.4118V12.3933V12.3748V12.3562V12.3377V12.319V12.3004V12.2817V12.2629V12.2442V12.2254V12.2065V12.1876V12.1687V12.1498V12.1308V12.1118V12.0927V12.0736V12.0545V12.0353V12.0161V11.9969V11.9776V11.9583V11.9389V11.9195V11.9001V11.8807V11.8612V11.8417V11.8221V11.8025V11.7829V11.7632V11.7435V11.7238V11.704V11.6842V11.6644V11.6445V11.6246V11.6047V11.5847V11.5647V11.5447V11.5246V11.5045V11.4844V11.4642V11.444V11.4238V11.4035V11.3832V11.3629V11.3425V11.3221V11.3017V11.2812V11.2607V11.2402V11.2196V11.199V11.1784V11.1577V11.137V11.1163V11.0956V11.0748V11.0539V11.0331V11.0122V10.9913V10.9703V10.9494V10.9284V10.9073V10.8862V10.8651V10.844V10.8228V10.8016V10.7804V10.7592V10.7379V10.7166V10.6952V10.6738V10.6524V10.631V10.6095V10.588V10.5665V10.5449V10.5233V10.5017V10.4801V10.4584V10.4367V10.4149V10.3932V10.3714V10.3495V10.3277V10.3058V10.2839V10.262V10.24V10.218V10.196V10.1739V10.1518V10.1297V10.1076V10.0854V10.0632V10.041V10.0187V9.99645V9.97414V9.95181V9.92944V9.90705V9.88463V9.86219V9.83971V9.81721V9.79469V9.77213V9.74955V9.72694V9.70431V9.68165V9.65896V9.63624V9.6135V9.59073V9.56794V9.54512V9.52227V9.4994V9.4765V9.45358V9.43062V9.40765V9.38465V9.36162V9.33857V9.31549V9.29238V9.26925V9.2461V9.22292V9.19972V9.17649V9.15323V9.12995V9.10665V9.08332V9.05997V9.03659V9.01319V8.98976V8.96631V8.94284V8.91934V8.89582V8.87227V8.8487V8.82511V8.80149V8.77785V8.75418V8.73049V8.70678V8.68305V8.65929V8.63551V8.6117V8.58788V8.56403V8.54015V8.51626V8.49234V8.4684V8.44444V8.42045V8.39644V8.37241V8.34836V8.32429V8.30019V8.27607V8.25193V8.22777V8.20359V8.17938V8.15516V8.13091V8.10664V8.08235V8.05804V8.0337V8.00935V7.98498V7.96058V7.93616V7.91173V7.88727V7.86279V7.83829V7.81377V7.78924V7.76468V7.7401V7.7155V7.69088V7.66624V7.64158V7.6169V7.5922V7.56748V7.54275V7.51799V7.49321V7.46842V7.4436V7.41877V7.39392V7.36904V7.34415V7.31924V7.29432V7.26937V7.2444V7.21942V7.19442V7.1694V7.14436V7.1193V7.09423V7.06914V7.04403V7.0189V6.99375V6.96859V6.94341V6.91821V6.89299V6.86776V6.84251V6.81724V6.79196V6.76665V6.74134V6.716V6.69065V6.66528V6.63989V6.61449V6.58907V6.56364V6.53819V6.51272V6.48724V6.46174V6.43622V6.41069V6.38514V6.35958V6.334V6.30841V6.2828V6.25718V6.23154V6.20588V6.18021V6.15453V6.12883V6.10311V6.07738V6.05163V6.02588V6.0001C20.5 4.85765 19.8496 3.73156 18.912 2.8712C17.9682 2.00523 16.8333 1.50008 16 1.5001L14.5946 1.50007ZM14.5947 0.500071L16 0.500102C17.1667 0.50007 18.5318 1.16519 19.5881 2.13438C20.6504 3.10916 21.5 4.4831 21.5 6.0001V6.02588V6.05163V6.07738V6.10311V6.12883V6.15453V6.18021V6.20588V6.23154V6.25718V6.2828V6.30841V6.334V6.35958V6.38514V6.41069V6.43622V6.46174V6.48724V6.51272V6.53819V6.56364V6.58907V6.61449V6.63989V6.66528V6.69065V6.716V6.74134V6.76665V6.79196V6.81724V6.84251V6.86776V6.89299V6.91821V6.94341V6.96859V6.99375V7.0189V7.04403V7.06914V7.09423V7.1193V7.14436V7.1694V7.19442V7.21942V7.2444V7.26937V7.29432V7.31924V7.34415V7.36904V7.39392V7.41877V7.4436V7.46842V7.49321V7.51799V7.54275V7.56748V7.5922V7.6169V7.64158V7.66624V7.69088V7.7155V7.7401V7.76468V7.78924V7.81377V7.83829V7.86279V7.88727V7.91173V7.93616V7.96058V7.98498V8.00935V8.0337V8.05804V8.08235V8.10664V8.13091V8.15516V8.17938V8.20359V8.22777V8.25193V8.27607V8.30019V8.32429V8.34836V8.37241V8.39644V8.42045V8.44444V8.4684V8.49234V8.51626V8.54015V8.56403V8.58788V8.6117V8.63551V8.65929V8.68305V8.70678V8.73049V8.75418V8.77785V8.80149V8.82511V8.8487V8.87227V8.89582V8.91934V8.94284V8.96631V8.98976V9.01319V9.03659V9.05997V9.08332V9.10665V9.12995V9.15323V9.17649V9.19972V9.22292V9.2461V9.26925V9.29238V9.31549V9.33857V9.36162V9.38465V9.40765V9.43062V9.45358V9.4765V9.4994V9.52227V9.54512V9.56794V9.59073V9.6135V9.63624V9.65896V9.68165V9.70431V9.72694V9.74955V9.77213V9.79469V9.81721V9.83971V9.86219V9.88463V9.90705V9.92944V9.95181V9.97414V9.99645V10.0187V10.041V10.0632V10.0854V10.1076V10.1297V10.1518V10.1739V10.196V10.218V10.24V10.262V10.2839V10.3058V10.3277V10.3495V10.3714V10.3932V10.4149V10.4367V10.4584V10.4801V10.5017V10.5233V10.5449V10.5665V10.588V10.6095V10.631V10.6524V10.6738V10.6952V10.7166V10.7379V10.7592V10.7804V10.8016V10.8228V10.844V10.8651V10.8862V10.9073V10.9284V10.9494V10.9703V10.9913V11.0122V11.0331V11.0539V11.0748V11.0956V11.1163V11.137V11.1577V11.1784V11.199V11.2196V11.2402V11.2607V11.2812V11.3017V11.3221V11.3425V11.3629V11.3832V11.4035V11.4238V11.444V11.4642V11.4844V11.5045V11.5246V11.5447V11.5647V11.5847V11.6047V11.6246V11.6445V11.6644V11.6842V11.704V11.7238V11.7435V11.7632V11.7829V11.8025V11.8221V11.8417V11.8612V11.8807V11.9001V11.9195V11.9389V11.9583V11.9776V11.9969V12.0161V12.0353V12.0545V12.0736V12.0927V12.1118V12.1308V12.1498V12.1687V12.1876V12.2065V12.2254V12.2442V12.2629V12.2817V12.3004V12.319V12.3377V12.3562V12.3748V12.3933V12.4118V12.4302V12.4486V12.467V12.4853V12.5036V12.5218V12.5401V12.5582V12.5764V12.5945V12.6125V12.6306V12.6485V12.6665V12.6844V12.7023V12.7201V12.7379V12.7556V12.7734V12.791V12.8087V12.8263V12.8438V12.8613V12.8788V12.8963V12.9137V12.931V12.9483V12.9656V12.9829V13.0001V13.0172V13.0344V13.0514V13.0685V13.0855V13.1025V13.1194V13.1363V13.1531V13.1699V13.1867V13.2034V13.2201V13.2367V13.2533V13.2698V13.2864V13.3028V13.3193V13.3356V13.352V13.3683V13.3846V13.4008V13.417V13.4331V13.4492V13.4653V13.4813V13.4972V13.5132V13.5291V13.5449V13.5607V13.5765V13.5922V13.6078V13.6235V13.6391V13.6546V13.6701V13.6856V13.701V13.7163V13.7317V13.747V13.7622V13.7774V13.7925V13.8077V13.8227V13.8377V13.8527V13.8677V13.8825V13.8974V13.9122V13.9269V13.9416V13.9563V13.9709V13.9855V14V14.0145V14.029V14.0434V14.0577V14.072V14.0863V14.1005V14.1147V14.1288V14.1429V14.1569V14.1709V14.1848V14.1987V14.2126V14.2264V14.2401V14.2538V14.2675V14.2811V14.2947V14.3082V14.3217V14.3351V14.3485V14.3618V14.3751V14.3883V14.4015V14.4147V14.4278V14.4408V14.4538V14.4668V14.4797V14.4926V14.5054V14.5181V14.5309V14.5435V14.5561V14.5687V14.5812V14.5937V14.6061V14.6185V14.6308V14.6431V14.6554V14.6675V14.6797V14.6918V14.7038V14.7158V14.7277V14.7396V14.7514V14.7632V14.775V14.7867V14.7983V14.8099V14.8214V14.8329V14.8443V14.8557V14.8671V14.8784V14.8896V14.9008V14.9119V14.923V14.934V14.945V14.956V14.9668V14.9777V14.9885V14.9992V15.0099V15.0205V15.0311V15.0416V15.0521V15.0625V15.0728V15.0832V15.0934V15.1036V15.1138V15.1239V15.134V15.144V15.1539V15.1638V15.1736V15.1834V15.1932V15.2029V15.2125V15.2221V15.2316V15.2411V15.2505V15.2599V15.2692V15.2784V15.2876V15.2968V15.3059V15.3149V15.3239V15.3329V15.3418V15.3506V15.3594V15.3681V15.3767V15.3854V15.3939V15.4024V15.4109V15.4193V15.4276V15.4359V15.4441V15.4523V15.4604V15.4685V15.4765V15.4844V15.4923V15.5002C21.5 16.8733 20.955 18.3592 20.011 19.5055C19.0621 20.6578 17.6797 21.5002 16 21.5002H15.9743H15.9485H15.9227H15.897H15.8712H15.8455H15.8198H15.794H15.7683H15.7426H15.7169H15.6912H15.6655H15.6398H15.6142H15.5885H15.5628H15.5372H15.5116H15.4859H15.4603H15.4347H15.4091H15.3835H15.3579H15.3324H15.3068H15.2812H15.2557H15.2302H15.2046H15.1791H15.1536H15.1281H15.1026H15.0772H15.0517H15.0263H15.0008H14.9754H14.95H14.9246H14.8992H14.8738H14.8484H14.823H14.7977H14.7724H14.747H14.7217H14.6964H14.6711H14.6458H14.6206H14.5953H14.5701H14.5448H14.5196H14.4944H14.4692H14.4441H14.4189H14.3937H14.3686H14.3435H14.3184H14.2933H14.2682H14.2431H14.2181H14.193H14.168H14.143H14.118H14.093H14.068H14.0431H14.0181H13.9932H13.9683H13.9434H13.9185H13.8937H13.8688H13.844H13.8191H13.7943H13.7696H13.7448H13.72H13.6953H13.6706H13.6459H13.6212H13.5965H13.5718H13.5472H13.5226H13.498H13.4734H13.4488H13.4243H13.3997H13.3752H13.3507H13.3262H13.3018H13.2773H13.2529H13.2285H13.2041H13.1797H13.1553H13.131H13.1067H13.0824H13.0581H13.0338H13.0096H12.9853H12.9611H12.9369H12.9128H12.8886H12.8645H12.8404H12.8163H12.7922H12.7682H12.7442H12.7201H12.6962H12.6722H12.6482H12.6243H12.6004H12.5765H12.5526H12.5288H12.505H12.4812H12.4574H12.4336H12.4099H12.3862H12.3625H12.3388H12.3152H12.2915H12.2679H12.2444H12.2208H12.1973H12.1737H12.1502H12.1268H12.1033H12.0799H12.0565H12.0331H12.0098H11.9864H11.9631H11.9398H11.9166H11.8933H11.8701H11.8469H11.8238H11.8006H11.7775H11.7544H11.7314H11.7083H11.6853H11.6623H11.6393H11.6164H11.5935H11.5706H11.5477H11.5249H11.5021H11.4793H11.4565H11.4338H11.4111H11.3884H11.3657H11.3431H11.3205H11.2979H11.2753H11.2528H11.2303H11.2078H11.1854H11.163H11.1406H11.1182H11.0959H11.0736H11.0513H11.029H11.0068H10.9846H10.9624H10.9403H10.9182H10.8961H10.874H10.852H10.83H10.808H10.7861H10.7642H10.7423H10.7204H10.6986H10.6768H10.655H10.6333H10.6116H10.5899H10.5683H10.5466H10.525H10.5035H10.482H10.4605H10.439H10.4176H10.3962H10.3748H10.3534H10.3321H10.3108H10.2896H10.2684H10.2472H10.226H10.2049H10.1838H10.1627H10.1417H10.1207H10.0998H10.0788H10.0579H10.0371H10.0162H9.99541H9.97464H9.95391H9.9332H9.91253H9.89189H9.87129H9.85072H9.83018H9.80967H9.7892H9.76877H9.74837H9.728H9.70766H9.68736H9.6671H9.64686H9.62667H9.60651H9.58638H9.56628H9.54623H9.5262H9.50622H9.48626H9.46635H9.44646H9.42662H9.40681H9.38703H9.3673H9.34759H9.32792H9.30829H9.2887H9.26914H9.24962H9.23014H9.21069H9.19128H9.1719H9.15256H9.13326H9.114H9.09477H9.07559H9.05643H9.03732H9.01825H8.99921H8.98021H8.96125H8.94232H8.92344H8.90459H8.88578H8.86701H8.84828H8.82958H8.81093H8.79231H8.77374H8.7552H8.7367H8.71825H8.69983H8.68145H8.66311H8.64481H8.62655H8.60833H8.59015H8.57201H8.55391H8.53585H8.51783H8.49985H8.48192H8.46402H8.44616H8.42835H8.41057H8.39284H8.37515H8.3575H8.33989H8.32233H8.3048H8.28732H8.26988H8.25248H8.23512H8.21781H8.20054H8.18331H8.16612H8.14897H8.13187H8.11481H8.0978H8.08082H8.06389H8.04701H8.03016H8.01336H7.99661H7.9799H7.96323H7.9466H7.93002H7.91348H7.89699H7.88054H7.86414H7.84778H7.83146H7.81519H7.79897H7.78279H7.76665H7.75056H7.73452H7.71852H7.70256H7.68666H7.67079H7.65497H7.6392H7.62348H7.6078H7.59216H7.57658H7.56104H7.54554H7.53009H7.51469H7.49934H7.48403H7.46877H7.45356H7.43839H7.42327H7.4082H7.39317H7.3782H7.36327H7.34839H7.33355H7.31877H7.30403H7.28934H7.2747H7.26011H7.24557H7.23107H7.21662H7.20223H7.18788H7.17358H7.15933H7.14513H7.13097H7.11687H7.10282H7.08881H7.07486H7.06096H7.0471H7.0333H7.01955H7.00584H6.99219H6.97859H6.96503H6.95153H6.93808H6.92468H6.91133H6.89804H6.88479H6.87159H6.85845H6.84536H6.83232H6.81933H6.80639H6.79351H6.78067H6.76789H6.75516H6.74249H6.72986H6.71729H6.70477H6.6923H6.67989H6.66753H6.65522H6.64297H6.63076H6.61862H6.60652H6.59448H6.58249H6.57056H6.55868H6.54686H6.53508H6.52337H6.5117H6.50009H6.48854H6.47704H6.46559H6.4542H6.44287H6.43159H6.42036H6.40919H6.39808H6.38702H6.37601H6.36507H6.35417H6.34334H6.33255H6.32183H6.31116H6.30055H6.28999H6.27949H6.26905H6.25866H6.24833H6.23806H6.22784H6.21768H6.20758H6.19754H6.18755H6.17762H6.16775H6.15793H6.14817H6.13847H6.12883H6.11925H6.10972H6.10026H6.09085H6.0815H6.07221H6.06298H6.0538H6.04469H6.03563H6.02663H6.0177H6.00882H6C4.85229 21.5002 3.48443 20.9366 2.40803 19.9275C1.31923 18.9067 0.5 17.4041 0.5 15.5002V6.50011V6.5001C0.499977 5.36448 1.05375 3.88447 1.98031 2.6932C2.91172 1.49569 4.2925 0.500183 5.99998 0.500102C9.62801 0.499929 12.7229 0.500017 14.5936 0.500071L14.5947 0.500071ZM17.7359 5.2481C17.7359 5.77277 17.3106 6.1981 16.7859 6.1981C16.2613 6.1981 15.8359 5.77277 15.8359 5.2481C15.8359 4.72343 16.2613 4.2981 16.7859 4.2981C17.3106 4.2981 17.7359 4.72343 17.7359 5.2481ZM6.5 11C6.5 8.51472 8.51472 6.5 11 6.5C13.4853 6.5 15.5 8.51472 15.5 11C15.5 13.4853 13.4853 15.5 11 15.5C8.51472 15.5 6.5 13.4853 6.5 11ZM11 5.5C7.96243 5.5 5.5 7.96243 5.5 11C5.5 14.0376 7.96243 16.5 11 16.5C14.0376 16.5 16.5 14.0376 16.5 11C16.5 7.96243 14.0376 5.5 11 5.5Z" fill="url(#paint0_linear_484_1859)"/>
<defs>
<linearGradient id="paint0_linear_484_1859" x1="3" y1="20.5" x2="20" y2="2.5" gradientUnits="userSpaceOnUse">
<stop stop-color="#543E9F"/>
<stop offset="0.349977" stop-color="#9D3EA0"/>
<stop offset="0.698395" stop-color="#C9284C"/>
<stop offset="1" stop-color="#D6A639"/>
</linearGradient>
</defs>
</svg>
