<svg width="110" height="57" viewBox="0 0 110 57" fill="none" xmlns="http://www.w3.org/2000/svg">
<g clip-path="url(#clip0_737_84028)">
<path opacity="0.25" d="M109.238 30.7594C109.228 30.7447 109.179 30.6714 109.027 30.3927C108.905 30.1678 108.758 29.9086 108.572 29.6006C108.41 29.3268 108.239 29.0139 108.063 28.6716C107.887 28.3293 107.715 27.9822 107.559 27.6253L107.319 27.0874H107.279L107.245 27.0141H107.206L107.172 26.9407H107.133L107.098 26.8674H107.059L107.025 26.7941H106.986L106.951 26.7207H106.912L106.878 26.6474H106.839L106.805 26.574H106.765L106.731 26.5007H106.692L106.658 26.4274H106.619L106.584 26.354H106.545L106.511 26.2807H106.472L106.437 26.2073H106.398L106.364 26.134H106.325L106.291 26.0606H106.251L106.217 25.9873H106.178L106.144 25.914H106.105L106.07 25.8406H106.031L105.997 25.7673H105.958L105.923 25.6939H105.884L105.85 25.6206H105.811L105.777 25.5473H105.737L105.703 25.4739H105.664L105.63 25.4006H105.591L105.556 25.3272H105.517L105.483 25.2539H105.444L105.409 25.1805H105.37L105.336 25.1072H105.297L105.263 25.0339H105.223L105.189 24.9605H105.15L105.116 24.8872H105.076L105.042 24.8138H105.003L104.969 24.7405H104.93L104.895 24.6672H104.856L104.822 24.5938H104.783L104.748 24.5205H104.709L104.675 24.4471H104.636L104.602 24.3738H104.562L104.528 24.3004H104.489L104.455 24.2271H104.416L104.381 24.1538L103.789 24.1635C103.711 24.1635 103.618 24.1684 103.539 24.1684C103.485 23.7871 103.432 23.4008 103.378 23.0048C103.255 22.066 103.128 21.1028 102.996 20.1151C102.864 19.1323 102.741 18.1838 102.619 17.2597C102.315 15.0252 101.983 12.8103 101.635 10.6638L101.498 9.81794L101.434 9.82283L101.42 9.73971L101.356 9.7446L101.341 9.66148L101.278 9.66637L101.263 9.58325L101.199 9.58814L101.185 9.50502L101.121 9.5099L101.106 9.42678L101.043 9.43167L101.028 9.34856L100.964 9.35344L100.95 9.27032L100.886 9.27521L100.871 9.19209L100.808 9.19698L100.793 9.11386L100.729 9.11875L100.715 9.03563L100.651 9.04052L100.636 8.9574L100.573 8.96229L100.558 8.87917L100.494 8.88406L100.48 8.80094L100.416 8.80583L100.401 8.7227L100.338 8.72759L100.323 8.64448L100.259 8.64937L100.245 8.56624L100.181 8.57113L100.166 8.48801L100.103 8.4929L100.088 8.40978L100.044 8.43423L100.029 8.35111L99.9656 8.356L99.9509 8.27288L99.8872 8.27777L99.8726 8.19465L99.8089 8.19954L99.7942 8.11642L99.7306 8.12131L99.7159 8.03819L99.6523 8.04307L99.6376 7.95995L99.5739 7.96484L99.5592 7.88172L99.4956 7.88661L99.4809 7.80349L99.4173 7.80838L99.4026 7.72526L99.3389 7.73015L99.3242 7.64703L99.2606 7.65192L99.2459 7.5688L99.1823 7.57369L99.1676 7.49057L99.104 7.49546L99.1382 7.45634L99.0746 7.46123L99.0599 7.37811L98.9963 7.383L98.9816 7.29988L98.9179 7.30477L98.9032 7.22165L98.8396 7.22654L98.8249 7.14342L98.7613 7.14831L98.7466 7.06519L98.6829 7.07008L98.6683 6.98696L98.6046 6.99185L98.5899 6.90872L98.5263 6.91361L98.5116 6.8305L98.448 6.83539L98.4333 6.75226L97.5815 6.85494C96.0051 7.04074 94.3602 7.26076 92.6957 7.50524L92.3775 7.54924V7.52968L92.3041 7.53946V7.45634L92.2306 7.46612V7.383L92.1572 7.39278V7.30966L92.0838 7.31944V7.23632L92.0348 7.27055V7.18742L91.9614 7.1972V7.11408L91.888 7.12386V7.04074L91.8145 7.05052V6.9674L91.7411 6.97718V6.89406L91.6677 6.90384V6.82071L91.5942 6.8305V6.74738L90.6102 6.85005C87.7366 7.14831 84.7846 7.51012 81.578 7.95506L81.5829 7.90128L81.4997 7.91595L81.5095 7.82305L81.4262 7.83772L81.436 7.74482L81.3528 7.75949L81.3626 7.66659L81.2794 7.68126L81.2892 7.58836L81.2059 7.60303L81.2157 7.51013L81.1325 7.52479L81.1423 7.43189L81.0591 7.44657L81.0689 7.35366L80.9856 7.36833L80.9954 7.27543L80.9122 7.2901L80.922 7.1972L80.8388 7.21187L80.8486 7.11897L79.6688 7.34877C79.2624 7.42701 78.8022 7.49057 78.3078 7.53946C77.7644 7.59325 77.2406 7.65192 76.7559 7.72526C76.2272 7.7986 75.6985 7.86217 75.1943 7.91595L74.4208 7.99418L74.4159 8.13597L74.3865 8.14086L74.3816 8.05285L74.3131 8.06263L74.3082 7.97462L74.2396 7.9844L74.2347 7.89639L74.1466 7.94529L74.1417 7.85728L74.0732 7.86705L74.0683 7.77905L73.9997 7.78882L73.9948 7.70081L73.9214 7.72037L73.9165 7.63236L73.848 7.64214L73.8431 7.55413L72.8493 7.72526C72.2276 7.82794 71.7331 7.90617 71.3219 7.95506C70.8911 8.00885 70.4064 8.06263 69.8777 8.12131C69.3637 8.17998 68.8692 8.22887 68.414 8.2631L67.523 8.33155L67.5915 9.22143C67.6062 9.4219 67.6209 9.62725 67.6356 9.83261C66.0739 9.51968 64.6591 9.23121 63.3079 8.95251L62.5687 8.80094L62.2946 9.50502C62.226 9.68593 62.1526 9.86684 62.0841 10.0477L62.0694 9.94018L62.0057 9.9744L61.991 9.86683L61.9274 9.90106L61.9127 9.79349L61.8491 9.82772L61.8344 9.72015L61.7707 9.75438L61.7561 9.64681L61.6924 9.68104L61.6777 9.57347L61.6141 9.6077L61.5994 9.50013L61.5358 9.53435L61.5211 9.42678L61.4574 9.46101L61.4427 9.35344L61.3791 9.38767L61.3644 9.2801L61.3008 9.31433L61.2861 9.20676L61.2224 9.24099L61.2078 9.13342L61.1441 9.16764L61.1294 9.06008L61.0658 9.0943L61.0511 8.98673L60.9875 9.02096L60.9728 8.9134L60.9091 8.94762L60.8944 8.84005L60.8308 8.87428L60.8161 8.76671L60.7525 8.80094L60.7378 8.69337L60.6741 8.72759L60.6595 8.62003L60.5958 8.65425L60.5811 8.54669L60.5175 8.58091L60.5028 8.47335L60.4392 8.50757L60.4245 8.4L59.2593 9.02585C57.8788 9.76905 56.5276 10.4927 55.2156 11.187L55.2205 11.1528L55.1324 11.1772L55.1471 11.0794L55.059 11.1039L55.0737 11.0061L54.9856 11.0305L55.0002 10.9327L54.9121 10.9572L54.9268 10.8594L54.8387 10.8838L54.8534 10.786L54.7653 10.8105L54.7799 10.7127L54.6918 10.7372L54.7065 10.6394L54.6184 10.6638L54.6331 10.566L54.545 10.5905L54.5596 10.4927L54.4715 10.5171L54.4862 10.4193L54.3981 10.4438L54.4128 10.346L54.3247 10.3704L54.3393 10.2727L54.2512 10.2971L54.2659 10.1993L54.1778 10.2238L54.1925 10.126L54.1044 10.1504L54.119 10.0526L54.0309 10.0771L54.0456 9.97929L53.9575 10.0037L53.9722 9.90595L53.8841 9.9304L53.8987 9.83261L53.8106 9.85706L53.8253 9.75927L53.7372 9.78372L53.7519 9.68592L53.6638 9.71037L53.6785 9.61259L53.5903 9.63703L53.605 9.53924L53.5169 9.56369L53.5316 9.4659L53.4435 9.49035L53.4581 9.39256L53.37 9.41701L53.3847 9.31922L53.2966 9.34367L53.3113 9.24588L53.2232 9.27032L53.2379 9.17254L53.1497 9.19698L53.1644 9.09919L53.0763 9.12364L53.091 9.02585L53.0029 9.0503L53.0176 8.95251L52.9686 8.92317L52.9833 8.82539L51.6713 9.19209C50.3789 9.55391 49.0375 9.86195 47.6961 10.1113C46.3156 10.3704 44.9448 10.6051 43.6328 10.8056L43.0992 10.8789L42.923 11.3874C42.9181 11.407 42.9083 11.4217 42.9034 11.4412L42.8153 11.4657L42.8447 11.363L42.737 11.3923L42.7663 11.2897L42.6586 11.319L42.688 11.2163L42.5803 11.2457L42.6097 11.143L42.502 11.1723L42.5314 11.0696L42.4237 11.099L42.453 10.9963L42.3453 11.0256L42.3747 10.923L42.267 10.9523L42.2964 10.8496L42.1887 10.8789L42.218 10.7763L42.1103 10.8056L42.1397 10.7029L42.032 10.7323L42.0614 10.6296L41.9537 10.6589L41.9831 10.5562L41.8754 10.5856L41.9047 10.4829L41.797 10.5122L41.8705 10.39L41.7628 10.4193L41.7921 10.3167L41.6844 10.346L41.7138 10.2433L41.6061 10.2727L41.6355 10.17L41.5278 10.1993L41.5571 10.0966L41.4494 10.126L41.4788 10.0233L41.3711 10.0526L41.4005 9.94995L41.2928 9.97929L41.3222 9.87661L41.2145 9.90595L41.2438 9.80327L41.1361 9.83261L41.1655 9.72993L41.0578 9.75927L41.0872 9.65659L40.9795 9.68592L41.0089 9.58325L40.9011 9.61259L40.9305 9.5099L40.8228 9.53924L40.8522 9.43657L40.7445 9.4659L40.7739 9.36322L40.6662 9.39256L40.6955 9.28988L40.5878 9.31922L40.6172 9.21654L39.0555 9.63214C38.5415 9.76904 38.052 9.89128 37.6016 9.99396L36.2651 10.302C35.849 10.3998 35.4133 10.4927 34.9678 10.5807C34.5419 10.6687 34.0915 10.742 33.6215 10.8056L33.1956 10.8643L32.9753 11.231C32.897 11.3581 32.8186 11.4901 32.7403 11.627L32.6424 11.6417L32.6718 11.5537L32.569 11.5684L32.5984 11.4804L32.4955 11.495L32.5249 11.407L32.4221 11.4217L32.4515 11.3337L32.3487 11.3483L32.3781 11.2603L32.2752 11.275L32.3046 11.187L32.2606 11.1723L32.2899 11.0843L32.1871 11.099L32.2165 11.011L32.1137 11.0256L32.1431 10.9376L32.0403 10.9523L32.0696 10.8643L31.9668 10.8789L31.9962 10.7909L30.5569 10.9865C29.3624 11.1479 28.3099 11.3043 27.3455 11.4608C26.3957 11.6173 25.397 11.7004 24.3788 11.715L23.8305 11.7199L23.5857 12.2089C23.0423 13.3041 22.445 14.4678 21.8037 15.6755C21.1184 16.9663 20.3987 18.2767 19.6693 19.5724C18.9007 20.9316 18.1125 22.3105 17.3292 23.6697C16.5606 24.9996 15.7774 26.3296 14.999 27.6302C13.1631 30.6958 11.2294 33.7811 9.25163 36.8027L8.24805 38.338L8.38023 38.3282L8.32638 38.4114L8.45855 38.4016L8.4047 38.4847L8.53688 38.4749L8.48303 38.558L8.61521 38.5483L8.56136 38.6314L8.69354 38.6216L8.63969 38.7047L8.77187 38.695L8.71802 38.7781L8.8502 38.7683L8.79634 38.8514L8.92852 38.8416L8.87467 38.9248L9.00685 38.915L8.953 38.9981L9.08518 38.9883L9.03133 39.0714L9.16351 39.0617L9.10966 39.1448L9.24184 39.135L9.18799 39.2181L9.32017 39.2083L9.26631 39.2915L9.39849 39.2817L9.34464 39.3648L9.47682 39.355L9.42297 39.4381L9.55515 39.4284L9.5013 39.5115L9.63348 39.5017L9.57963 39.5848L9.71181 39.5751L9.65796 39.6582L9.79013 39.6484L9.73628 39.7315L9.86846 39.7217L9.81461 39.8049L9.94679 39.7951L9.89294 39.8782L10.0251 39.8684L9.97127 39.9515L10.1034 39.9418L10.0496 40.0249L10.1818 40.0151L10.1279 40.0982L10.2601 40.0884L10.2063 40.1716L10.3384 40.1618L10.2846 40.2449L10.4168 40.2351L10.3629 40.3182L10.4951 40.3085L10.4412 40.3916L10.5734 40.3818L10.5196 40.4649L10.6517 40.4552L10.5979 40.5383L10.7301 40.5285L10.6762 40.6116L10.8084 40.6018L10.7546 40.685L10.8867 40.6752L10.8329 40.7583L10.9651 40.7485L10.9112 40.8316L11.0434 40.8219L10.9895 40.905L11.1217 40.8952L11.0679 40.9783L11.2 40.9685L11.1462 41.0517L11.2784 41.0419L11.2245 41.125L11.3567 41.1152L11.3028 41.1983L11.435 41.1886L11.3812 41.2717L13.2072 41.1201C15.136 40.9588 17.1334 40.7681 19.1504 40.5578L19.591 40.5089L19.7966 40.1764L19.8798 40.1667L19.8504 40.2547L19.9581 40.2449L19.9288 40.3329L20.0365 40.3231L20.0071 40.4111L20.1148 40.4014L20.0854 40.4894L20.1931 40.4796L20.1637 40.5676L20.2714 40.5578L20.2421 40.6458L20.3498 40.6361L20.3204 40.7241L20.4281 40.7143L20.3987 40.8023L20.5064 40.7925L20.4771 40.8805L20.5848 40.8708L20.5554 40.9588L21.9751 40.8023C22.7633 40.7143 23.4584 40.6361 24.0557 40.5676C24.6089 40.504 25.2796 40.4356 26.1656 40.3525L26.6405 40.3085L26.8706 39.8929C26.9734 39.7071 27.0811 39.5115 27.1888 39.3208L27.228 39.311L27.2084 39.4088L27.3063 39.3844L27.2867 39.4822L27.3846 39.4577L27.365 39.5555L27.463 39.531L27.4434 39.6288L27.5413 39.6044L27.5217 39.7022L27.6196 39.6777L27.6 39.7755L27.6979 39.7511L27.6784 39.8489L27.7763 39.8244L27.7567 39.9222L27.8546 39.8978L27.835 39.9955L27.9329 39.9711L27.9133 40.0689L28.0113 40.0444L27.9917 40.1422L28.0896 40.1178L28.07 40.2156L28.1679 40.1911L28.1483 40.2889L28.2462 40.2645L28.2267 40.3623L28.3246 40.3378L28.305 40.4356L28.4029 40.4111L28.3833 40.5089L29.7785 40.1764C31.2178 39.8293 32.7061 39.4675 34.2188 39.0861L34.209 39.1106L34.3314 39.0861L34.2824 39.1888L34.4048 39.1643L34.3558 39.267L34.4782 39.2426L34.4293 39.3452L34.5517 39.3208L34.5027 39.4235L34.6251 39.399L34.5761 39.5017L34.6985 39.4773L34.6496 39.5799L34.772 39.5555L34.723 39.6582L34.8454 39.6337L34.7964 39.7364L34.9188 39.712L34.8699 39.8146L34.9923 39.7902L34.9433 39.8929L35.0657 39.8684L35.0167 39.9711L35.1391 39.9466L35.0902 40.0493L35.2126 40.0249L35.1636 40.1276L36.9309 39.7511C37.675 39.5946 38.4289 39.4333 39.1877 39.2719C39.8095 39.1448 40.4752 39.0079 41.19 38.8563C41.8803 38.7096 42.5118 38.5727 43.0601 38.4456L43.5105 38.3429L43.6867 37.9126C43.7308 37.8002 43.7797 37.6877 43.8238 37.5704L43.8385 37.5655C43.8238 37.6242 43.814 37.6682 43.814 37.6682L43.9119 37.6437C43.8972 37.7024 43.8874 37.7415 43.8874 37.7415L43.9853 37.7171C43.9706 37.7757 43.9608 37.8149 43.9608 37.8149L44.0588 37.7904C44.0441 37.8491 44.0343 37.8882 44.0343 37.8882L44.1322 37.8637C44.1175 37.9224 44.1077 37.9664 44.1077 37.9664L44.2056 37.942C44.1909 38.0007 44.1811 38.0398 44.1811 38.0398L44.2791 38.0153C44.2644 38.074 44.2546 38.1131 44.2546 38.1131L44.3525 38.0887C44.3378 38.1473 44.328 38.1865 44.328 38.1865L44.4259 38.162C44.4112 38.2207 44.4014 38.2647 44.4014 38.2647L44.4994 38.2402C44.4847 38.2989 44.4749 38.338 44.4749 38.338L44.5728 38.3136C44.5581 38.3722 44.5483 38.4114 44.5483 38.4114L44.6462 38.3869C44.6315 38.4456 44.6217 38.4847 44.6217 38.4847L44.7197 38.4603C44.705 38.5189 44.6952 38.558 44.6952 38.558L44.7931 38.5336C44.7784 38.5923 44.7686 38.6314 44.7686 38.6314L44.8665 38.6069C44.8518 38.6656 44.842 38.7047 44.842 38.7047L44.94 38.6803C44.9253 38.739 44.9155 38.783 44.9155 38.783L45.0134 38.7585C44.9987 38.8172 44.9889 38.8563 44.9889 38.8563L45.0868 38.8319C45.0721 38.8905 45.0623 38.9296 45.0623 38.9296L45.1603 38.9052C45.1456 38.9639 45.1358 39.003 45.1358 39.003L45.2337 38.9785C45.219 39.0372 45.2092 39.0812 45.2092 39.0812L45.3071 39.0568C45.2924 39.1154 45.2826 39.1546 45.2826 39.1546L45.3805 39.1301C45.3659 39.1888 45.3561 39.2279 45.3561 39.2279L46.7905 38.8514C47.3632 38.6998 48.0094 38.5287 48.7242 38.3429C49.4291 38.1571 50.0705 37.986 50.6579 37.8344C50.7705 37.81 50.8782 37.7855 50.9908 37.7611L50.981 37.7708L51.1034 37.766L51.0545 37.8442L51.1768 37.8393L51.1279 37.9175L51.2503 37.9126L51.2013 37.9909L52.8805 37.9322C54.6673 37.8686 56.5668 37.8002 58.8579 37.7073L59.3866 37.6877L59.6216 37.2183C59.7734 36.9152 59.9202 36.6023 60.0769 36.2942H60.0818L60.0916 36.4018L60.1552 36.3725L60.165 36.48L60.2287 36.4507L60.2384 36.5583L60.3021 36.5289L60.3119 36.6365L60.3755 36.6072L60.3853 36.7147L60.449 36.6854L60.4587 36.793L60.5224 36.7636L60.5322 36.8712L60.5958 36.8419L60.6056 36.9494L60.6693 36.9201L60.679 37.0277L60.7427 36.9983L60.7525 37.1059L60.8161 37.0765L60.8259 37.1841L60.8895 37.1548L60.8993 37.2624L60.963 37.233L60.9728 37.3406L61.0364 37.3112L61.0462 37.4188L61.1098 37.3895L61.1196 37.497L61.1833 37.4677L61.1931 37.5753L61.2567 37.5459L61.2665 37.6535L61.3301 37.6242L61.3399 37.7317L61.4036 37.7024L61.4134 37.81L61.477 37.7806L61.4868 37.8882L61.5504 37.8589L61.5602 37.9664L62.7254 37.3993C62.9408 37.2966 63.2541 37.1597 63.6506 37.0032C64.0716 36.837 64.5171 36.6609 64.992 36.4751C65.4669 36.2894 65.9515 36.1084 66.446 35.9226L67.8118 35.4141C68.2377 35.2577 68.5706 35.1354 68.8301 35.0474C69.2315 34.9105 69.3588 34.8519 69.4518 34.803V34.8519L69.5301 34.8323V34.9252L69.6085 34.9056V34.9985L69.6868 34.979V35.0719L69.7651 35.0523V35.1452L69.8434 35.1257V35.2186L69.9218 35.199V35.2919L70.0001 35.2723V35.3652L70.0784 35.3457V35.4386L70.1568 35.419V35.5119L70.2351 35.4924V35.5853L70.3134 35.5657V35.6586L70.3917 35.6391V35.732L70.4701 35.7124V35.8053L70.5484 35.7857V35.8786L70.6267 35.8591V35.952L70.7051 35.9324V36.0253L70.7834 36.0058V36.0987L70.8617 36.0791V36.172L70.94 36.1524V36.2453L71.0184 36.2258V36.3187L71.0967 36.2991V36.392L71.175 36.3725V36.4654L71.2534 36.4458V36.5387L72.394 36.2502C75.6985 35.419 78.6309 34.7003 81.3528 34.05L81.9647 33.9033L82.0333 33.2775C82.0529 33.0917 82.0724 32.901 82.092 32.7152L82.1214 32.7103L82.1165 32.8032L82.1948 32.7836L82.1899 32.8765L82.2683 32.857L82.2634 32.9499L82.3417 32.9303L82.3368 33.0232L82.4151 33.0036L82.4102 33.0965L82.4886 33.077L82.4837 33.1699L82.562 33.1503L82.5571 33.2432L82.6354 33.2237L82.6305 33.3166L82.7089 33.297L82.704 33.3899L82.7823 33.3704L82.7774 33.4633L82.8557 33.4437L82.8508 33.5366L82.9292 33.517L82.9243 33.6099L83.0026 33.5904L82.9977 33.6833L83.076 33.6637L83.0711 33.7566L83.1495 33.7371L83.1446 33.83L83.2229 33.8104L83.218 33.9033L83.2963 33.8837L83.2914 33.9766L83.3698 33.9571L83.3649 34.05L83.4432 34.0304L83.4383 34.1233L83.5166 34.1038L83.5117 34.1967L83.5901 34.1771L83.5852 34.27L83.6635 34.2505L83.6586 34.3434L83.7369 34.3238L83.732 34.4167L83.8104 34.3971L83.8055 34.49L83.8838 34.4705L83.8789 34.5634L83.9572 34.5438L83.9523 34.6367L84.0307 34.6172L84.0258 34.7101L84.1041 34.6905L84.0992 34.7834L84.1775 34.7638L84.1726 34.8567L85.3035 34.5927C89.2346 33.6686 92.8132 32.8814 96.2401 32.1822V32.192L96.2988 32.1676L96.3135 32.2653L96.3723 32.2409L96.3869 32.3387L96.4457 32.3142L96.4604 32.412L96.5191 32.3876L96.5338 32.4854L96.5926 32.4609L96.6072 32.5587L96.666 32.5343L96.6807 32.6321L96.7394 32.6076L96.7541 32.7054L96.8129 32.6809L96.8275 32.7787L96.8863 32.7543L96.901 32.8521L96.9597 32.8276L96.9744 32.9254L97.0331 32.901L97.0478 32.9988L97.1066 32.9743L97.1213 33.0721L97.18 33.0477L97.1947 33.1454L97.2534 33.121L97.2681 33.2188L97.3269 33.1943L97.3416 33.2921L97.4003 33.2677L97.415 33.3655L97.4737 33.341L97.4884 33.4388L97.5472 33.4144L97.5619 33.5121L97.6206 33.4877L97.6353 33.5855L97.694 33.561L97.7087 33.6588L97.7675 33.6344L97.7822 33.7322L97.8409 33.7077L97.8556 33.8055L97.9143 33.7811L97.929 33.8789L98.9718 33.4926C99.5152 33.2921 100.147 33.1063 100.847 32.9499C101.566 32.7885 102.32 32.6516 103.079 32.5392C103.848 32.4316 104.631 32.3436 105.4 32.2751C106.168 32.2116 106.917 32.1724 107.617 32.1529C107.686 32.1529 107.754 32.1529 107.823 32.1529C107.921 32.1529 108.019 32.1529 108.112 32.1578C108.234 32.1627 108.352 32.1627 108.479 32.1627C108.557 32.1627 108.631 32.1627 108.709 32.1627L110.388 32.1284L109.238 30.7594ZM55.338 19.2937C55.431 19.9586 55.5339 20.7263 55.6367 21.577C55.294 22.3496 54.9317 23.1172 54.5547 23.8751C54.589 23.5719 54.6184 23.2737 54.6527 22.9705C54.7946 21.6357 54.9317 20.3547 55.0639 19.1323C55.0982 18.8194 55.1324 18.5114 55.1667 18.2082C55.2205 18.57 55.2891 18.9318 55.338 19.2937ZM68.1104 23.6404C68.1153 25.381 68.1055 27.1265 68.0811 28.8623C68.0762 28.8476 68.0713 28.8281 68.0664 28.8134C67.8216 28.0604 67.5915 27.2781 67.3859 26.486C67.1999 25.7868 67.0334 25.029 66.8817 24.2271C67.2733 23.2834 67.6307 22.418 67.9587 21.6357C68.0076 21.5184 68.0517 21.4108 68.1006 21.2983C68.1104 22.0953 68.1153 22.8825 68.1104 23.6404ZM93.8609 24.7112L93.8021 24.7209L93.7874 24.6329L93.7287 24.6427L93.714 24.5547L93.6552 24.5645L93.6406 24.4765L93.5818 24.4862L93.5671 24.3982L93.5035 24.4227L93.4888 24.3347L93.4301 24.3445L93.4154 24.2564L93.3566 24.2662L93.3419 24.1782L93.2832 24.188L93.2685 24.1L93.2097 24.1098L93.1951 24.0218L93.1363 24.0315L93.1216 23.9435L93.0629 23.9533L93.0531 23.8946C93.2391 23.88 93.4203 23.8604 93.6014 23.8506C93.6846 23.8457 93.758 23.8408 93.8315 23.8311C93.8657 24.1489 93.9 24.4569 93.9392 24.7601L93.8804 24.7698L93.8609 24.7112ZM91.1585 24.0853L92.0446 24.0022C91.7558 24.0609 91.4572 24.1244 91.1634 24.1831C91.1634 24.1538 91.1634 24.1195 91.1585 24.0853ZM92.965 16.4089C92.9748 16.5165 92.9895 16.6289 92.9992 16.7365L92.9601 16.7414L92.9503 16.6583L92.8867 16.668L92.8769 16.5849L92.8132 16.5947L92.8034 16.5116L92.7398 16.5214L92.73 16.4382L92.6663 16.448L92.6566 16.3649L92.5929 16.3747L92.5831 16.2916L92.5195 16.3013L92.5097 16.2182L92.446 16.228L92.4363 16.1449L92.3726 16.1546L92.3628 16.0715L92.2992 16.0813L92.2894 15.9982L92.2258 16.008L92.216 15.9248L92.1523 15.9346L92.1425 15.8515L92.0789 15.8613L92.0691 15.7782L92.0055 15.7879L91.9957 15.7048L91.932 15.7146L91.9222 15.6315L91.0459 15.7439C90.9235 15.7586 90.7473 15.7733 90.5172 15.7879C90.5074 15.6657 90.5025 15.5435 90.4976 15.4212C90.5662 15.4163 90.6347 15.4163 90.7081 15.4115C91.1536 15.3968 91.5893 15.3723 92.0006 15.3528L92.8524 15.3039C92.872 15.6608 92.916 16.0275 92.965 16.4089Z" fill="#333333"/>
<path d="M27.6807 9.15787C26.0946 13.529 24.5329 17.8219 22.9713 22.1198C23.1769 22.2029 23.2797 22.0904 23.3727 21.934C24.0532 20.7703 24.7532 19.6213 25.4141 18.4478C27.1178 15.4261 28.8116 12.3996 30.5006 9.36812C30.6572 9.08942 30.8384 8.96229 31.1615 8.89384C32.7721 8.57114 34.3729 8.20443 35.9738 7.85239C36.057 7.83283 36.1451 7.81327 36.2724 7.78394C36.2528 7.88661 36.243 7.96485 36.2185 8.03819C34.2897 14.3407 32.6007 20.7165 30.9069 27.0825C30.4859 28.6667 30.0698 30.2558 29.6585 31.8449C29.6145 32.0062 29.5557 32.1089 29.3697 32.1529C27.3919 32.632 25.419 33.121 23.4461 33.6099C23.4021 33.6197 23.358 33.6246 23.265 33.6393C23.4608 32.9694 23.6273 32.3289 23.828 31.7031C24.9001 28.3978 25.9771 25.0925 27.0492 21.7873C27.0933 21.6455 27.0786 21.4841 27.0884 21.3277C26.9905 21.4401 26.8681 21.5428 26.7947 21.6748C25.0127 24.7747 23.2356 27.8795 21.4585 30.9843C20.9641 31.8497 20.4745 32.7152 19.9654 33.5757C19.9018 33.6833 19.7598 33.7957 19.6423 33.8104C18.3891 33.962 17.1358 34.0891 15.8777 34.2211C15.814 34.226 15.7455 34.2211 15.6427 34.2211C15.8679 33.5806 16.0931 32.9645 16.3036 32.3485C17.3855 29.2388 18.4674 26.134 19.5542 23.0243C19.6227 22.8336 19.6472 22.7065 19.4122 22.6087C19.187 22.5158 19.094 22.5843 18.9912 22.7847C17.1309 26.4567 15.158 30.0651 13.1019 33.6295C12.9354 33.9229 12.7494 34.0549 12.4067 34.0842C10.6541 34.2309 8.90154 34.4069 7.14895 34.5732C7.09999 34.5781 7.05104 34.5732 6.95312 34.5732C7.03145 34.446 7.0853 34.3482 7.14405 34.2553C11.506 27.5617 15.5594 20.6823 19.3682 13.661C19.9997 12.4925 20.592 11.3043 21.1991 10.1211C21.2676 9.98418 21.3313 9.8815 21.5173 9.8815C23.0496 9.88639 24.5525 9.59792 26.0603 9.37789C26.5646 9.31433 27.0688 9.24588 27.6807 9.15787Z" fill="white"/>
<path d="M48.8534 7.36835C48.8044 7.77906 48.7506 8.16044 48.7114 8.5467C48.2953 12.2676 47.8743 15.9835 47.4778 19.7044C47.1693 22.5989 46.8903 25.4984 46.5917 28.3929C46.5182 29.1215 46.4448 29.85 46.3567 30.5785C46.3469 30.6665 46.249 30.7936 46.1658 30.8132C44.2712 31.3021 42.3766 31.7764 40.4772 32.2556C40.4429 32.2654 40.4037 32.2654 40.3499 32.2751C40.7366 30.4123 41.1185 28.5641 41.515 26.6621C41.1772 26.6914 40.8884 26.711 40.5996 26.7403C40.0072 26.799 39.4148 26.8674 38.8176 26.9163C38.6365 26.931 38.5532 27.019 38.4847 27.1852C37.8923 28.6618 37.2902 30.1385 36.6978 31.6151C36.6195 31.8058 36.5167 31.9084 36.3111 31.9475C34.5389 32.3142 32.7716 32.6907 30.9994 33.0623C30.8379 33.0966 30.6812 33.1308 30.4609 33.1797C30.6617 32.7494 30.8379 32.3778 31.0141 32.0013C34.4312 24.6672 37.6329 17.245 40.4478 9.6566C40.6338 9.15299 40.8541 8.93786 41.4024 8.85963C43.8502 8.49292 46.2832 8.05776 48.6723 7.40257C48.7163 7.3879 48.7653 7.38302 48.8534 7.36835ZM44.0705 12.0964C43.7425 12.072 43.6201 12.2187 43.5515 12.468C43.4732 12.7516 43.3557 13.0205 43.2627 13.2992C42.1808 16.492 41.0989 19.6799 40.017 22.8727C39.9484 23.0683 39.8848 23.2688 39.7967 23.5182C40.5751 23.4008 41.2898 23.303 41.9997 23.1808C42.0682 23.171 42.1514 23.039 42.1661 22.951C42.7144 19.9146 43.2627 16.8783 43.8012 13.8371C43.9089 13.265 43.9824 12.6832 44.0705 12.0964Z" fill="white"/>
<path d="M56.7001 7.10431C56.9742 9.27033 57.2386 11.3875 57.5078 13.5095C57.5323 13.5144 57.5617 13.5192 57.5861 13.529C58.4086 11.407 59.231 9.285 60.0633 7.13853C61.5123 7.4319 62.9467 7.72038 64.4154 8.01863C64.3664 8.13598 64.3273 8.23377 64.2881 8.32667C62.8684 11.627 61.4438 14.9274 60.029 18.2327C59.9703 18.3745 59.9556 18.5554 59.98 18.7069C60.4157 21.2494 61.2676 23.6746 62.0704 26.1144C62.3054 26.8283 62.5502 27.5324 62.795 28.2511C60.5577 29.1019 58.34 29.9429 56.0979 30.7936C55.9363 28.7743 55.7699 26.7501 55.6035 24.6574C55.5398 24.7894 55.5007 24.8627 55.4664 24.9361C54.546 26.9212 53.6208 28.9063 52.7053 30.8914C52.627 31.0625 52.534 31.1359 52.3333 31.1408C50.6981 31.1946 49.0679 31.2581 47.4377 31.3217C47.1783 31.3315 46.9139 31.3461 46.5957 31.3657C46.6985 31.1946 46.7719 31.0723 46.8454 30.9501C48.5147 28.1191 50.2037 25.3077 51.8339 22.4571C52.4263 21.4255 52.8815 20.3156 53.376 19.235C53.4592 19.0541 53.4592 18.8145 53.4298 18.6092C53.0088 15.9884 52.5731 13.3677 52.1423 10.7469C52.1081 10.5367 52.0787 10.3216 52.0444 10.1113C51.9465 9.49524 51.9171 9.65171 52.4067 9.38279C53.7285 8.66404 55.0601 7.95996 56.3916 7.25588C56.4798 7.20699 56.5679 7.16787 56.7001 7.10431Z" fill="white"/>
<path d="M69.9901 5.95046C70.1712 11.5733 70.3572 17.1913 70.5384 22.8141C70.9986 22.8777 71.0573 22.8435 71.0916 22.423C71.2923 20.1152 71.5077 17.8122 71.6741 15.4995C71.8553 12.9277 71.9923 10.351 72.1343 7.77422C72.1637 7.24127 72.1392 6.70343 72.1392 6.14115C73.7205 5.94557 75.2234 5.76466 76.7606 5.57397C76.7263 6.03358 76.692 6.4883 76.6578 6.93813C76.5256 8.64454 76.4032 10.3461 76.2612 12.0525C76.036 14.8101 75.8157 17.5629 75.5661 20.3156C75.3654 22.5257 75.1255 24.7308 74.9052 26.9359C74.8562 27.4395 74.8562 27.4395 74.3471 27.5618C71.6154 28.2316 68.8788 28.9064 66.1471 29.5762C66.0639 29.5958 65.9758 29.6055 65.8876 29.6251C65.8876 29.0579 65.8827 28.5054 65.8876 27.9529C65.8974 27.1022 65.917 26.2514 65.917 25.4006C65.9268 23.396 65.9464 21.3913 65.9317 19.3866C65.9023 15.5778 65.7897 11.7689 65.5107 7.96491C65.4764 7.53464 65.4617 7.10437 65.4275 6.67899C65.4177 6.52742 65.447 6.44429 65.6184 6.42474C67.0528 6.27805 68.4823 6.1167 69.9901 5.95046Z" fill="white"/>
<path d="M87.62 5.00671C87.713 6.25352 87.806 7.43677 87.899 8.66401C86.4206 8.74224 84.9715 8.82047 83.5078 8.8987C83.6106 10.6931 83.7183 12.4533 83.8211 14.2477C84.433 14.194 85.0254 14.1304 85.6177 14.0864C86.3765 14.0277 87.1402 13.9837 87.9039 13.9446C87.9774 13.9397 88.1095 14.0326 88.1193 14.0962C88.2662 15.0985 88.4033 16.1057 88.5403 17.113C88.5452 17.1374 88.5306 17.1667 88.5257 17.2254C87.1011 17.3525 85.6716 17.4797 84.2127 17.6117C84.291 19.4648 84.3645 21.2983 84.4428 23.1759C86.0338 22.8434 87.5955 22.5158 89.211 22.1784C89.4215 23.3274 89.6223 24.4471 89.8328 25.5864C86.1758 26.3931 82.5335 27.195 78.8423 28.0115C79.0137 20.736 78.9647 13.4654 78.6367 6.1215C81.623 5.74013 84.6141 5.37342 87.62 5.00671Z" fill="white"/>
<path d="M97.142 22.4523C97.847 22.4132 98.4687 22.374 99.0905 22.3496C99.5702 22.33 100.05 22.3203 100.53 22.3251C100.608 22.3251 100.726 22.3789 100.76 22.4425C101.313 23.4742 101.852 24.5156 102.415 25.5864C99.0268 25.6011 95.6881 25.9433 92.3787 26.9799C91.5269 19.8951 90.6751 12.825 89.8184 5.71084C91.4339 5.49571 93.0347 5.28057 94.7139 5.06055C95.5265 10.8643 96.3294 16.6387 97.142 22.4523Z" fill="white"/>
<path d="M79.5664 28.6178C80.1343 28.4858 80.6532 28.3587 81.177 28.2462C84.0605 27.6204 86.9391 26.9994 89.8225 26.3882C89.9645 26.3589 90.175 26.4225 90.2876 26.5203C90.6596 26.8478 91.0023 27.2048 91.345 27.5617C91.673 27.8991 91.9912 28.2462 92.3388 28.6227C91.9668 28.7058 91.5996 28.7792 91.2373 28.8623C88.207 29.537 85.1767 30.2069 82.1512 30.8865C81.9358 30.9354 81.7988 30.8914 81.6568 30.7496C81.04 30.1287 80.4182 29.5077 79.8014 28.8867C79.728 28.8183 79.6692 28.7352 79.5664 28.6178Z" fill="#063F5B"/>
<path d="M77.4373 30.4758C74.8868 31.1065 72.3851 31.7275 69.8835 32.3436C69.629 32.4071 69.3744 32.4903 69.1149 32.5245C68.9926 32.5391 68.8163 32.5049 68.7331 32.4218C68.0526 31.7617 67.3868 31.087 66.721 30.4171C66.6819 30.378 66.6525 30.3242 66.5938 30.2509C66.6966 30.2118 66.7847 30.1727 66.8679 30.1531C69.5506 29.4979 72.2383 28.8476 74.921 28.1875C75.0826 28.1484 75.1854 28.168 75.3078 28.2902C75.954 28.9454 76.61 29.5859 77.2562 30.2362C77.3198 30.3096 77.3688 30.3829 77.4373 30.4758Z" fill="#063F5B"/>
<path d="M104.921 28.4907C104.055 28.5396 103.222 28.5787 102.395 28.6374C100.143 28.8036 97.9108 29.1019 95.7519 29.8109C95.5561 29.8744 95.419 29.8842 95.2623 29.718C94.5965 29.0334 93.9112 28.3636 93.2405 27.6888C93.2062 27.6546 93.1866 27.6106 93.1426 27.5324C93.2943 27.4786 93.4216 27.4248 93.5587 27.3857C94.9588 27.0092 96.3785 26.7745 97.8178 26.6083C99.4235 26.4225 101.034 26.354 102.645 26.3883C102.772 26.3931 102.929 26.4274 103.012 26.5105C103.624 27.1119 104.221 27.7328 104.823 28.3489C104.853 28.3978 104.877 28.4369 104.921 28.4907Z" fill="#063F5B"/>
<path d="M65.4334 31.3364C64.2829 31.7715 63.1325 32.1969 61.982 32.637C61.1155 32.9695 60.2539 33.3068 59.3972 33.6686C59.1818 33.7615 59.0545 33.7127 58.9126 33.5709C58.3496 33.0037 57.7915 32.4365 57.2236 31.8742C57.0767 31.7324 56.969 31.4977 56.69 31.5857C56.6508 31.5955 56.5921 31.5368 56.4844 31.4733C56.6753 31.3755 56.783 31.3119 56.8956 31.2679C58.9126 30.5052 60.9295 29.7375 62.9514 28.9846C63.0395 28.9503 63.2157 29.0237 63.294 29.1068C63.9011 29.6984 64.4885 30.3096 65.0858 30.911C65.2082 31.0332 65.3599 31.131 65.497 31.2386C65.4774 31.2728 65.4579 31.3022 65.4334 31.3364Z" fill="#063F5B"/>
<path d="M31.6241 33.6882C32.3095 33.5415 32.9949 33.3997 33.6803 33.253C34.6447 33.0477 35.6091 32.8472 36.5735 32.6321C36.7791 32.5881 36.9162 32.6125 37.068 32.769C37.7582 33.4828 38.4632 34.182 39.2024 34.9252C38.6884 35.0377 38.1988 35.1452 37.7093 35.2479C36.4462 35.5168 35.1832 35.7711 33.9299 36.0547C33.6264 36.1231 33.3963 36.0987 33.2201 35.8249C33.1907 35.776 33.132 35.7467 33.0683 35.6929C33.2495 35.4826 33.1907 35.3213 32.99 35.1355C32.5053 34.7003 32.0452 34.2358 31.5801 33.786C31.5948 33.7567 31.6094 33.7224 31.6241 33.6882Z" fill="#063F5B"/>
<path d="M45.1914 31.884C45.1572 31.9622 45.1229 32.0404 45.1131 32.06C45.823 32.7934 46.5083 33.5073 47.2084 34.2309C46.5132 34.4167 45.8083 34.6025 45.1033 34.7883C44.5942 34.9252 44.0851 35.0621 43.571 35.1843C43.4731 35.2088 43.3214 35.199 43.2577 35.1354C42.5332 34.4314 41.8184 33.7126 41.1037 32.9988C41.0792 32.9743 41.0694 32.9352 41.0352 32.8619C42.4157 32.5049 43.7815 32.1529 45.1474 31.8008C45.1572 31.8302 45.1768 31.8546 45.1914 31.884Z" fill="#063F5B"/>
<path d="M50.0518 34.2016C49.9539 34.0451 49.8804 33.8593 49.7532 33.7322C49.2587 33.2188 48.7496 32.7201 48.2502 32.2165C48.2258 32.192 48.2111 32.1578 48.1621 32.0796C48.7251 32.06 49.244 32.0405 49.7678 32.016C50.6588 31.9818 51.5498 31.9671 52.4359 31.8938C52.8618 31.8595 53.0429 32.148 53.273 32.3729C53.8115 32.8863 54.3305 33.4242 54.8543 33.9522C54.8886 33.9865 54.9032 34.0305 54.9522 34.1185C53.273 34.182 51.6281 34.2407 49.9881 34.3043C50.0077 34.27 50.0273 34.2358 50.0518 34.2016Z" fill="#063F5B"/>
<path d="M38.9482 27.8355C39.2713 28.1631 39.5699 28.4809 39.8881 28.7841C40.0546 28.9405 40.0839 29.1019 40.035 29.3072C39.7559 30.5345 39.4769 31.7568 39.2027 32.9841C39.1636 33.1601 39.0265 33.3557 39.3594 33.4633C39.5454 33.5268 39.7461 33.7468 39.8049 33.9424C39.8587 34.1233 39.7412 34.3531 39.6776 34.6465C39.4084 34.3922 39.2076 34.2113 39.0167 34.0158C38.4635 33.4633 37.9201 32.8961 37.362 32.3485C37.2152 32.2067 37.1662 32.0893 37.2494 31.8889C37.7928 30.5638 38.3313 29.2339 38.8698 27.904C38.8845 27.8942 38.9041 27.8844 38.9482 27.8355Z" fill="#063F5B"/>
<path d="M29.5634 32.945C29.3725 33.3558 29.1815 33.7665 29.02 34.1038C29.4997 34.6074 29.9452 35.0719 30.4201 35.5658C30.2977 35.6147 30.2194 35.6538 30.1411 35.6733C29.5928 35.8102 29.0445 35.9618 28.4913 36.0694C28.3297 36.0987 28.0996 36.0596 27.9821 35.9569C27.6541 35.6733 27.3702 35.3311 27.0618 35.023C26.7289 34.6906 26.3764 34.3728 26.0386 34.0452C25.9701 33.9816 25.9211 33.8936 25.8379 33.7909C27.0814 33.4829 28.2954 33.1797 29.5095 32.8766C29.5291 32.901 29.5438 32.9206 29.5634 32.945Z" fill="#063F5B"/>
<path d="M54.932 27.7915C55.0495 29.2046 55.1572 30.5638 55.26 31.8204C55.6075 32.1578 55.8915 32.4316 56.1754 32.7103C56.1999 32.7347 56.1901 32.8032 56.1754 32.8423C56.0286 33.1503 55.8817 33.4584 55.725 33.7615C55.7006 33.8104 55.6222 33.83 55.6173 33.83C55.2257 33.4584 54.839 33.1014 54.4669 32.7347C54.32 32.588 54.1976 32.412 54.0508 32.2653C53.8158 32.0306 53.5612 31.8155 53.3409 31.571C53.2724 31.4977 53.2136 31.3315 53.2528 31.2532C53.7913 30.114 54.3543 28.9747 54.932 27.7915Z" fill="#063F5B"/>
<path d="M22.1324 34.5438C22.4604 34.8714 22.7492 35.1599 23.0381 35.4484C23.0723 35.4826 23.0968 35.5217 23.1311 35.5511C23.3759 35.7515 23.3856 35.82 23.1507 36.1231C22.8814 35.8689 22.6073 35.6244 22.3478 35.3653C21.8387 34.8568 21.3442 34.3287 20.8204 33.8349C20.6637 33.6833 20.6931 33.5904 20.7812 33.4437C21.7554 31.7862 22.7199 30.1238 23.6892 28.4614C23.7822 28.3049 23.8752 28.1436 23.9829 27.992C23.3269 30.1874 22.5926 32.3583 22.1324 34.5438Z" fill="#063F5B"/>
<path d="M75.8313 25.1561C75.8901 25.3028 75.9733 25.4495 76.0124 25.6011C76.1299 26.1193 76.4579 26.5056 76.8055 26.8772C77.0992 27.1901 77.4126 27.4835 77.7161 27.7915C77.7748 27.8502 77.8678 27.9236 77.8678 27.9969C77.8776 28.6227 77.8727 29.2486 77.8727 29.8695C77.8483 29.8793 77.8238 29.8891 77.7993 29.894C77.5349 29.6446 77.2657 29.3953 77.0062 29.141C76.5363 28.6765 76.0663 28.2071 75.611 27.728C75.5376 27.6546 75.4935 27.5128 75.5033 27.4102C75.5572 26.7599 75.6306 26.1145 75.6991 25.4642C75.7089 25.3615 75.7383 25.2637 75.7628 25.1659C75.7872 25.1659 75.8068 25.161 75.8313 25.1561Z" fill="#063F5B"/>
<path d="M30.6211 30.6127C31.1694 28.5641 31.703 26.5692 32.2366 24.5792C32.2611 24.5743 32.2807 24.5694 32.3052 24.5694C32.359 24.6965 32.3982 24.8334 32.4716 24.9508C32.5646 25.1072 32.6576 25.2784 32.7947 25.3859C32.9269 25.4886 32.9416 25.562 32.8828 25.6989C32.1583 27.2977 31.4386 28.9014 30.7141 30.5052C30.6994 30.5247 30.6749 30.5443 30.6211 30.6127Z" fill="#063F5B"/>
<path d="M16.5524 28.9308C15.9111 30.7447 15.2697 32.5587 14.6137 34.4216C14.3494 34.1722 14.1095 33.962 13.899 33.7273C13.8598 33.6833 13.9088 33.5268 13.9577 33.4437C14.5942 32.3094 15.2355 31.1848 15.8768 30.0504C16.0922 29.6691 16.3027 29.2877 16.5132 28.9063C16.523 28.9161 16.5377 28.921 16.5524 28.9308Z" fill="#063F5B"/>
<path d="M64.8025 29.4784C64.4794 29.1312 64.2004 28.7254 63.8234 28.4467C63.4024 28.1387 63.3045 27.7035 63.1527 27.2781C62.9765 26.7648 62.8002 26.2514 62.6289 25.738C62.6534 25.7233 62.6779 25.7086 62.7072 25.6989C62.8198 25.8651 62.9422 26.0216 63.0401 26.1927C63.4318 26.8576 63.9458 27.415 64.5382 27.9089C64.7878 28.1191 65.0228 29.0628 64.8025 29.4784Z" fill="#063F5B"/>
<path d="M47.1973 28.5542C47.3245 27.3221 47.4567 26.09 47.584 24.8627C47.6134 24.8529 47.6428 24.8383 47.6721 24.8285C47.8679 25.3712 48.098 25.8846 48.6953 26.1633C48.2008 26.9847 47.726 27.7817 47.2511 28.5787C47.2315 28.5689 47.212 28.564 47.1973 28.5542Z" fill="#063F5B"/>
<path d="M106.786 29.1508C105.772 27.7768 104.969 26.2807 104.264 24.7307C104.215 24.6183 104.137 24.5107 104.049 24.4227C103.222 23.5915 102.38 22.775 101.572 21.9242C101.298 21.6357 101.019 21.489 100.627 21.5624C100.529 21.5819 100.421 21.5673 100.314 21.5673C99.9074 18.5603 99.5207 15.5973 99.1095 12.6391C98.8696 10.9278 98.5954 9.22144 98.3213 7.51502C98.2968 7.35856 98.194 7.18743 98.0814 7.07497C97.2394 6.21443 96.3729 5.37345 95.5357 4.51291C95.3448 4.31733 95.1588 4.24888 94.8944 4.28799C93.3034 4.50313 91.7074 4.66448 90.1262 4.93829C89.4408 5.05564 88.9366 4.95785 88.5449 4.40045C88.4127 4.21465 88.2463 4.21954 88.0554 4.24399C87.0763 4.35645 86.0923 4.44934 85.1083 4.56669C83.155 4.80138 81.2016 5.0263 79.2581 5.305C78.6707 5.38812 78.1664 5.42723 77.8042 4.86495C77.6622 4.64981 77.4615 4.65959 77.2363 4.68893C75.3564 4.94807 73.4765 5.19254 71.6015 5.45168C71.4938 5.46635 71.391 5.54458 71.2344 5.61792C71.2197 5.60325 71.1414 5.5348 71.0679 5.46146C70.8378 5.22677 70.6371 5.02141 70.2259 5.08497C68.6789 5.31967 67.127 5.50058 65.5752 5.69615C65.2178 5.74016 64.8604 5.7646 64.4933 5.79394C64.5275 6.30733 64.5618 6.7865 64.5961 7.29989C64.0722 7.19721 63.5925 7.1092 63.1127 7.01141C62.021 6.7865 60.9293 6.56158 59.8376 6.33667C59.6173 6.29266 59.4313 6.2731 59.3481 6.57625C59.2599 6.89895 59.1082 7.20699 58.9711 7.54925C58.883 7.47102 58.8242 7.42701 58.7704 7.37323C58.3592 6.96252 57.9333 6.55669 57.5367 6.13131C57.336 5.91618 57.1647 5.93085 56.9297 6.05797C56.2737 6.42468 55.6079 6.77672 54.9421 7.12876C53.9875 7.64215 53.0328 8.15065 52.0684 8.66404C51.3537 7.95018 50.6438 7.25588 49.9536 6.54202C49.7773 6.35623 49.6011 6.33178 49.3808 6.39534C46.5463 7.24122 43.6432 7.77416 40.7206 8.19954C40.2164 8.27288 39.8541 8.4049 39.7807 8.95741C39.7807 8.96719 39.7562 8.97696 39.7268 8.99652C39.673 8.9623 39.6093 8.93785 39.5604 8.89384C38.9435 8.27778 38.3169 7.67637 37.7246 7.04075C37.4749 6.77672 37.2546 6.70827 36.8923 6.80605C34.7334 7.39279 32.5647 7.95018 30.3421 8.268C30.2344 8.28267 30.1169 8.37556 30.0533 8.46846C29.8966 8.68849 29.7693 8.92318 29.5833 9.23121C29.2994 8.92318 29.0546 8.64448 28.8 8.38534C28.7364 8.32178 28.614 8.27777 28.5259 8.28755C27.9531 8.35111 27.3803 8.43424 26.8076 8.51247C24.8591 8.77161 22.9352 9.20188 20.9525 9.16765C20.7763 9.16276 20.6735 9.2361 20.5951 9.39746C20.1203 10.3509 19.6503 11.3043 19.151 12.2431C15.2199 19.6066 10.9754 26.7892 6.42262 33.786C6.06524 34.3336 5.71277 34.8763 5.38477 35.3799C5.64912 35.6342 5.8939 35.8591 6.12399 36.0938C6.44709 36.4214 6.75551 36.7636 7.08351 37.0863C7.4213 37.4139 7.80315 37.7024 8.11157 38.0544C8.35145 38.3331 8.57175 38.4945 8.9536 38.4163C9.22775 38.3576 9.51658 38.3674 9.80052 38.3429C11.7783 38.1571 13.7561 37.9615 15.7339 37.7953C16.1402 37.7611 16.4437 37.6535 16.6004 37.2575C16.6053 37.2477 16.6347 37.2428 16.7081 37.2135C16.9088 37.4286 17.134 37.6584 17.3347 37.9029C17.4669 38.0642 17.6138 38.0984 17.8145 38.0789C19.5622 37.8833 21.3148 37.6975 23.0674 37.5166C23.2436 37.497 23.3513 37.4433 23.4345 37.2868C23.5863 36.9836 23.7625 36.6903 23.929 36.3823C24.0073 36.4165 24.071 36.4263 24.1101 36.4654C24.4332 36.7832 24.771 37.0961 25.0696 37.4335C25.2116 37.5948 25.3389 37.6388 25.5445 37.585C27.3363 37.1401 29.1329 36.705 30.9296 36.2747C31.0373 36.2502 31.2037 36.2551 31.2772 36.3187C31.5121 36.524 31.7373 36.749 31.9332 36.9934C32.0898 37.1841 32.2563 37.189 32.4668 37.1401C33.3382 36.9494 34.2047 36.7685 35.0761 36.5827C36.6524 36.2453 38.2337 35.9129 39.81 35.5804C40.0254 35.5364 40.1772 35.4533 40.2457 35.2235C40.3094 35.0083 40.4171 34.803 40.5003 34.6123C40.6129 34.7052 40.7059 34.7736 40.7892 34.8519C40.9752 35.0328 41.1514 35.2235 41.3374 35.4093C41.5235 35.5951 41.7389 35.7515 41.9004 35.952C42.0865 36.1867 42.3214 36.3089 42.5956 36.2405C44.2797 35.8053 45.9637 35.3652 47.6478 34.9301C47.8338 34.8812 47.9905 34.8519 48.1471 35.0328C48.2156 35.111 48.3968 35.1208 48.529 35.1208C49.0283 35.1159 49.5277 35.0914 50.027 35.0719C51.9411 35.0034 53.8602 34.9252 55.7743 34.8665C55.9995 34.8616 56.1023 34.7736 56.1904 34.5878C56.3863 34.1673 56.6066 33.7566 56.8269 33.3312C57.2626 33.7664 57.6787 34.1673 58.085 34.5829C58.4669 34.9741 58.4571 34.9643 58.9564 34.7394C59.6956 34.4069 60.4349 34.0744 61.1937 33.7811C62.8973 33.121 64.6107 32.4854 66.3976 31.8106C66.9018 32.3338 67.4355 32.8814 67.9544 33.4388C68.0768 33.5708 68.1796 33.5855 68.3411 33.5415C68.7377 33.4339 69.1342 33.3361 69.5356 33.2383C72.4436 32.5245 75.3466 31.8155 78.2546 31.1065C78.4651 31.0528 78.563 30.9745 78.5728 30.7447C78.5874 30.378 78.6511 30.0162 78.7 29.6104C78.7637 29.6593 78.7931 29.6788 78.8175 29.7033C79.4442 30.3242 80.0757 30.9452 80.6925 31.5759C80.9275 31.8155 81.1233 31.9524 81.515 31.8644C85.2992 31.0039 89.0883 30.1727 92.8824 29.3464C93.0096 29.317 93.2055 29.3708 93.2985 29.4539C93.7635 29.8891 94.2188 30.3389 94.6496 30.8034C94.7965 30.9599 94.9042 30.9599 95.0804 30.9012C95.8246 30.6567 96.5589 30.378 97.3128 30.1971C100.059 29.5419 102.85 29.3023 105.669 29.3219C106.061 29.3268 106.448 29.3219 106.888 29.3219C106.82 29.2192 106.805 29.1801 106.786 29.1508ZM64.9387 18.5016C64.9534 18.4674 64.973 18.438 65.0367 18.3353C65.0367 21.0832 65.0367 23.7382 65.0367 26.3931C65.0171 26.398 65.0024 26.4078 64.9828 26.4127C64.9485 26.3345 64.9045 26.2562 64.8849 26.1731C64.4932 24.6818 64.1065 23.1954 63.7247 21.6993C63.7002 21.6015 63.71 21.4841 63.7442 21.3912C64.1359 20.428 64.5373 19.4648 64.9387 18.5016ZM64.8017 29.4784C64.4786 29.1312 64.1995 28.7254 63.8226 28.4467C63.4015 28.1387 63.3036 27.7035 63.1519 27.2781C62.9756 26.7647 62.7994 26.2513 62.6281 25.7379C62.6525 25.7233 62.677 25.7086 62.7064 25.6988C62.819 25.8651 62.9414 26.0215 63.0393 26.1927C63.4309 26.8576 63.945 27.415 64.5373 27.9089C64.787 28.1191 65.022 29.0628 64.8017 29.4784ZM51.8383 22.4571C52.4307 21.4255 52.886 20.3156 53.3804 19.235C53.4636 19.0541 53.4636 18.8145 53.4343 18.6091C53.0133 15.9884 52.5776 13.3677 52.1468 10.7469C52.1125 10.5367 52.0831 10.3216 52.0488 10.1113C51.9509 9.49524 51.9216 9.65171 52.4111 9.38279C53.7329 8.66404 55.0645 7.95996 56.3961 7.25588C56.4793 7.21188 56.5674 7.17276 56.6996 7.10431C56.9737 9.27033 57.2381 11.3875 57.5073 13.5095C57.5318 13.5144 57.5612 13.5192 57.5857 13.529C58.4081 11.407 59.2306 9.285 60.0628 7.13854C61.5119 7.4319 62.9463 7.72038 64.4149 8.01864C64.366 8.13598 64.3268 8.23377 64.2876 8.32667C62.8679 11.627 61.4433 14.9274 60.0285 18.2327C59.9698 18.3745 59.9551 18.5554 59.9796 18.7069C60.4153 21.2494 61.2671 23.6746 62.07 26.1144C62.305 26.8283 62.5497 27.5324 62.7945 28.2511C60.5573 29.1019 58.3396 29.9429 56.0974 30.7936C55.9359 28.7743 55.7694 26.7501 55.603 24.6574C55.5393 24.7894 55.5002 24.8627 55.4659 24.9361C54.5456 26.9212 53.6203 28.9063 52.7048 30.8914C52.6265 31.0625 52.5335 31.1359 52.3328 31.1408C50.6977 31.1946 49.0675 31.2581 47.4373 31.3217C47.1778 31.3315 46.9134 31.3461 46.5952 31.3657C46.698 31.1946 46.7715 31.0723 46.8449 30.9501C48.5143 28.1191 50.2081 25.3028 51.8383 22.4571ZM51.339 21.3766C51.5593 19.3132 51.7796 17.2548 51.9999 15.1914C52.0244 15.1914 52.0439 15.1865 52.0684 15.1865C52.181 15.9884 52.2985 16.7854 52.4111 17.5873C52.4356 17.7731 52.4356 17.9637 52.4845 18.1398C52.6412 18.6923 52.5041 19.1861 52.2398 19.675C51.9803 20.1542 51.7649 20.6578 51.5299 21.1517C51.4908 21.2348 51.4418 21.313 51.339 21.3766ZM47.1974 28.5543C47.3247 27.3221 47.4568 26.09 47.5841 24.8627C47.6135 24.853 47.6429 24.8383 47.6722 24.8285C47.8681 25.3712 48.0982 25.8846 48.6954 26.1633C48.201 26.9848 47.7261 27.7817 47.2512 28.5787C47.2317 28.5689 47.2121 28.564 47.1974 28.5543ZM13.8932 33.7273C13.854 33.6833 13.903 33.5268 13.9519 33.4437C14.5883 32.3093 15.2297 31.1848 15.871 30.0504C16.0864 29.6691 16.2969 29.2877 16.5074 28.9063C16.5221 28.9112 16.5368 28.921 16.5563 28.9259C15.915 30.7398 15.2737 32.5538 14.6177 34.4167C14.3485 34.1722 14.1086 33.962 13.8932 33.7273ZM16.7032 35.5657C16.6689 35.5804 16.6347 35.5951 16.6053 35.6097C16.4144 35.4093 16.2185 35.2137 16.0129 34.9985C16.3948 34.8372 16.5221 35.1306 16.6983 35.2968C16.7375 35.3408 16.7032 35.4728 16.7032 35.5657ZM23.1506 36.1182C22.8813 35.864 22.6072 35.6195 22.3477 35.3604C21.8386 34.8519 21.3442 34.3238 20.8203 33.83C20.6637 33.6784 20.6931 33.5855 20.7812 33.4388C21.7554 31.7813 22.7198 30.1189 23.6891 28.4565C23.7821 28.3 23.8751 28.1387 23.9828 27.9871C23.3268 30.1824 22.5925 32.3582 22.1274 34.5438C22.4554 34.8714 22.7443 35.1599 23.0331 35.4484C23.0674 35.4826 23.0919 35.5217 23.1261 35.5511C23.3807 35.7515 23.3856 35.82 23.1506 36.1182ZM24.022 34.7052C23.9877 34.715 23.9584 34.7296 23.9241 34.7394C23.8311 34.6123 23.7381 34.4852 23.5814 34.2602C23.7772 34.3238 23.9241 34.3385 24.0269 34.4167C24.071 34.4509 24.0269 34.6074 24.022 34.7052ZM23.4443 33.6148C23.4003 33.6246 23.3562 33.6295 23.2632 33.6442C23.459 32.9743 23.6255 32.3338 23.8262 31.708C24.8983 28.4027 25.9753 25.0974 27.0474 21.7922C27.0915 21.6504 27.0768 21.489 27.0866 21.3326C26.9887 21.445 26.8663 21.5477 26.7929 21.6797C25.0109 24.7796 23.2338 27.8844 21.4568 30.9892C20.9623 31.8546 20.4728 32.7201 19.9636 33.5806C19.9 33.6882 19.758 33.8006 19.6405 33.8153C18.3873 33.9669 17.134 34.094 15.8759 34.226C15.8122 34.2309 15.7437 34.226 15.6409 34.226C15.8661 33.5855 16.0864 32.9694 16.3018 32.3534C17.3837 29.2437 18.4656 26.1389 19.5524 23.0292C19.6209 22.8385 19.6454 22.7114 19.4104 22.6136C19.1852 22.5207 19.0922 22.5892 18.9894 22.7896C17.1291 26.4616 15.1562 30.07 13.1001 33.6344C12.9337 33.9277 12.7476 34.0598 12.4049 34.0891C10.6523 34.2358 8.89975 34.4118 7.14715 34.578C7.0982 34.5829 7.04924 34.578 6.95133 34.578C7.02966 34.4509 7.08351 34.3531 7.14226 34.2602C11.5042 27.5666 15.5577 20.6872 19.3664 13.6659C19.9979 12.4974 20.5902 11.3092 21.1973 10.126C21.2658 9.98908 21.3295 9.8864 21.5155 9.8864C23.0478 9.89129 24.5507 9.60281 26.0585 9.38279C26.5579 9.30945 27.0621 9.24099 27.6741 9.15298C26.0879 13.5241 24.5262 17.8171 22.9646 22.1149C23.1702 22.198 23.273 22.0855 23.366 21.9291C24.0465 20.7654 24.7465 19.6164 25.4074 18.4429C27.1111 15.4212 28.8049 12.3947 30.4939 9.36323C30.6505 9.08453 30.8317 8.95741 31.1548 8.88895C32.7654 8.56625 34.3662 8.19955 35.9671 7.84751C36.0503 7.82795 36.1384 7.80839 36.2657 7.77905C36.2461 7.88173 36.2363 7.95996 36.2118 8.0333C34.283 14.3358 32.5941 20.7116 30.9002 27.0777C30.4792 28.6618 30.0631 30.2509 29.6518 31.84C29.6078 32.0013 29.549 32.104 29.363 32.148C27.395 32.6369 25.4172 33.1259 23.4443 33.6148ZM32.878 25.6988C32.1535 27.2977 31.4338 28.9014 30.7093 30.5051C30.6995 30.5296 30.675 30.5492 30.6163 30.6176C31.1646 28.5689 31.6982 26.574 32.2318 24.584C32.2563 24.5792 32.2758 24.5743 32.3003 24.5743C32.3542 24.7014 32.3933 24.8383 32.4668 24.9556C32.5598 25.1121 32.6528 25.2832 32.7899 25.3908C32.9221 25.4886 32.9416 25.5619 32.878 25.6988ZM30.1414 35.6733C29.5931 35.8102 29.0448 35.9618 28.4916 36.0693C28.3301 36.0987 28.1 36.0595 27.9825 35.9569C27.6545 35.6733 27.3705 35.331 27.0621 35.023C26.7292 34.6905 26.3767 34.3727 26.039 34.0451C25.9704 33.9815 25.9215 33.8935 25.8382 33.7908C27.0817 33.4828 28.2958 33.1797 29.5099 32.8765C29.5295 32.901 29.5441 32.9205 29.5637 32.945C29.3728 33.3557 29.1819 33.7664 29.0203 34.1038C29.5001 34.6074 29.9456 35.0719 30.4204 35.5657C30.2981 35.6146 30.2197 35.6537 30.1414 35.6733ZM31.7275 35.0425C31.3751 34.6758 30.9981 34.3336 30.6114 33.962C30.861 33.8153 30.9981 33.8495 31.145 34.0011C31.4975 34.3727 31.8695 34.7296 32.2465 35.1012C32.0311 35.2528 31.894 35.2088 31.7275 35.0425ZM37.7099 35.2479C36.4468 35.5168 35.1838 35.7711 33.9305 36.0547C33.627 36.1231 33.3969 36.0987 33.2207 35.8249C33.1913 35.776 33.1326 35.7466 33.0689 35.6928C33.2501 35.4826 33.1913 35.3212 32.9906 35.1354C32.5059 34.7003 32.0458 34.2358 31.5807 33.786C31.5954 33.7517 31.6101 33.7224 31.6296 33.6882C32.315 33.5415 33.0004 33.3997 33.6858 33.253C34.6502 33.0477 35.6146 32.8472 36.579 32.6321C36.7846 32.5881 36.9217 32.6125 37.0735 32.769C37.7637 33.4828 38.4687 34.182 39.2079 34.9252C38.689 35.0377 38.1994 35.1452 37.7099 35.2479ZM40.0352 29.3072C39.7562 30.5345 39.4772 31.7568 39.203 32.9841C39.1638 33.1601 39.0268 33.3557 39.3597 33.4633C39.5457 33.5268 39.7464 33.7468 39.8051 33.9424C39.859 34.1233 39.7415 34.3531 39.6779 34.6465C39.4086 34.3923 39.2079 34.2113 39.017 34.0158C38.4638 33.4633 37.9204 32.8961 37.3623 32.3485C37.2154 32.2067 37.1665 32.0893 37.2497 31.8889C37.7931 30.5638 38.3316 29.2339 38.8701 27.904C38.875 27.8893 38.8946 27.8746 38.9386 27.8306C39.2617 28.1582 39.5604 28.476 39.8786 28.7792C40.0548 28.9405 40.0842 29.1019 40.0352 29.3072ZM39.6828 27.5959C39.9667 27.5715 40.1527 27.5568 40.373 27.5373C40.3339 27.7475 40.2996 27.9333 40.2555 28.2022C40.0499 27.9822 39.8933 27.8209 39.6828 27.5959ZM40.4758 32.2605C40.4416 32.2702 40.4024 32.2702 40.3486 32.28C40.7353 30.4171 41.1172 28.5689 41.5137 26.6669C41.1759 26.6963 40.8871 26.7158 40.5982 26.7452C40.0059 26.8038 39.4135 26.8723 38.8163 26.9212C38.6351 26.9359 38.5519 27.0239 38.4834 27.1901C37.891 28.6667 37.2889 30.1433 36.6965 31.6199C36.6182 31.8106 36.5154 31.9133 36.3098 31.9524C34.5376 32.3191 32.7703 32.6956 30.9981 33.0672C30.8366 33.1014 30.6799 33.1357 30.4596 33.1846C30.6603 32.7543 30.8366 32.3827 31.0128 32.0062C34.4299 24.6721 37.6315 17.2499 40.4465 9.66149C40.6325 9.15787 40.8528 8.94274 41.4011 8.86451C43.8489 8.4978 46.2819 8.06264 48.6709 7.40746C48.715 7.39279 48.764 7.39279 48.8521 7.37812C48.8031 7.78883 48.7493 8.17021 48.7101 8.55647C48.294 12.2773 47.873 15.9933 47.4764 19.7142C47.168 22.6087 46.889 25.5081 46.5903 28.4027C46.5169 29.1312 46.4435 29.8597 46.3554 30.5883C46.3456 30.6763 46.2477 30.8034 46.1644 30.823C44.2699 31.307 42.3704 31.7813 40.4758 32.2605ZM45.1021 34.7883C44.593 34.9252 44.0838 35.0621 43.5698 35.1843C43.4719 35.2088 43.3201 35.199 43.2565 35.1354C42.532 34.4314 41.8172 33.7126 41.1025 32.9988C41.078 32.9743 41.0682 32.9352 41.0339 32.8619C42.4145 32.5049 43.7803 32.1529 45.1462 31.8008C45.1608 31.8253 45.1755 31.8546 45.1902 31.8791C45.156 31.9573 45.1217 32.0355 45.1119 32.0551C45.8217 32.7885 46.5071 33.5024 47.2072 34.226C46.512 34.4167 45.8071 34.6025 45.1021 34.7883ZM48.6562 33.8153C48.1079 33.2872 47.5645 32.7494 47.0211 32.2165C47.0358 32.1822 47.0505 32.148 47.0652 32.1187C47.1778 32.148 47.3247 32.1431 47.3981 32.2165C47.9072 32.7054 48.4066 33.2139 48.9059 33.7175C48.9255 33.7371 48.9304 33.7664 48.9696 33.8642C48.8276 33.8446 48.7101 33.8642 48.6562 33.8153ZM49.9878 34.2993C50.0074 34.2651 50.027 34.2358 50.0515 34.2016C49.9536 34.0451 49.8801 33.8593 49.7528 33.7322C49.2584 33.2188 48.7493 32.7201 48.2499 32.2165C48.2254 32.192 48.2108 32.1578 48.1618 32.0795C48.7248 32.06 49.2437 32.0404 49.7675 32.016C50.6585 31.9818 51.5495 31.9671 52.4356 31.8937C52.8615 31.8595 53.0426 32.148 53.2727 32.3729C53.8112 32.8863 54.3302 33.4241 54.854 33.9522C54.8882 33.9864 54.9029 34.0304 54.9519 34.1184C53.2727 34.1771 51.6278 34.2407 49.9878 34.2993ZM56.1709 32.8423C56.024 33.1503 55.8771 33.4584 55.7205 33.7615C55.696 33.8104 55.6177 33.83 55.6128 33.83C55.2211 33.4584 54.8344 33.1014 54.4623 32.7347C54.3155 32.588 54.1931 32.412 54.0462 32.2653C53.8112 32.0307 53.5567 31.8155 53.3364 31.571C53.2678 31.4977 53.2091 31.3315 53.2482 31.2532C53.7916 30.1091 54.3497 28.9748 54.9274 27.7866C55.0449 29.1997 55.1526 30.5589 55.2554 31.8155C55.603 32.1529 55.8869 32.4267 56.1709 32.7054C56.1953 32.7298 56.1904 32.8032 56.1709 32.8423ZM65.4332 31.3364C64.2827 31.7715 63.1323 32.1969 61.9818 32.6369C61.1153 32.9694 60.2537 33.3068 59.397 33.6686C59.1816 33.7615 59.0543 33.7126 58.9124 33.5708C58.3494 33.0037 57.7913 32.4365 57.2234 31.8742C57.0765 31.7324 56.9688 31.4977 56.6898 31.5857C56.6506 31.5955 56.5919 31.5368 56.4842 31.4733C56.6751 31.3755 56.7828 31.3119 56.8954 31.2679C58.9124 30.5051 60.9293 29.7375 62.9512 28.9845C63.0393 28.9503 63.2155 29.0236 63.2938 29.1068C63.9009 29.6984 64.4883 30.3096 65.0856 30.911C65.208 31.0332 65.3598 31.131 65.4968 31.2386C65.4772 31.2728 65.4577 31.3021 65.4332 31.3364ZM66.1528 29.581C66.0696 29.6006 65.9815 29.6104 65.8934 29.6299C65.8934 29.0628 65.8885 28.5103 65.8934 27.9578C65.9032 27.107 65.9227 26.2562 65.9227 25.4055C65.9325 23.4008 65.9521 21.3961 65.9374 19.3915C65.9081 15.5826 65.7955 11.7737 65.5164 7.96974C65.4821 7.53947 65.4675 7.1092 65.4332 6.68382C65.4234 6.53225 65.4528 6.44913 65.6241 6.42957C67.0536 6.27311 68.4782 6.11665 69.986 5.94552C70.1672 11.5684 70.3532 17.1863 70.5343 22.8092C70.9945 22.8727 71.0532 22.8385 71.0875 22.418C71.2882 20.1102 71.5036 17.8073 71.6701 15.4946C71.8512 12.9227 71.9883 10.346 72.1303 7.76927C72.1596 7.23632 72.1352 6.69849 72.1352 6.1362C73.7164 5.94063 75.2193 5.75972 76.7565 5.56903C76.7223 6.02863 76.688 6.48335 76.6537 6.93318C76.5215 8.63959 76.3991 10.3411 76.2572 12.0475C76.032 14.8052 75.8117 17.5579 75.562 20.3107C75.3613 22.5207 75.1214 24.7258 74.9011 26.931C74.8522 27.4346 74.8522 27.4346 74.343 27.5568C71.6211 28.2413 68.8845 28.9112 66.1528 29.581ZM69.8881 32.3485C69.6335 32.412 69.379 32.4951 69.1195 32.5294C68.9971 32.544 68.8209 32.5098 68.7377 32.4267C68.0572 31.7666 67.3914 31.0919 66.7256 30.422C66.6864 30.3829 66.6571 30.3291 66.5983 30.2558C66.7011 30.2167 66.7892 30.1776 66.8725 30.158C69.5552 29.5028 72.2429 28.8525 74.9256 28.1924C75.0872 28.1533 75.1899 28.1729 75.3123 28.2951C75.9585 28.9503 76.6146 29.5908 77.2608 30.2411C77.3195 30.2998 77.3685 30.378 77.437 30.4709C74.8913 31.1066 72.3897 31.7275 69.8881 32.3485ZM77.7993 29.8989C77.5349 29.6495 77.2657 29.4001 77.0062 29.1459C76.5362 28.6814 76.0663 28.212 75.611 27.7328C75.5375 27.6595 75.4935 27.5177 75.5033 27.415C75.5571 26.7647 75.6306 26.1193 75.6991 25.469C75.7089 25.3664 75.7383 25.2686 75.7627 25.1708C75.7872 25.1659 75.8068 25.1659 75.8313 25.161C75.89 25.3077 75.9732 25.4544 76.0124 25.6059C76.1299 26.1242 76.4579 26.5105 76.8055 26.8821C77.0992 27.195 77.4125 27.4884 77.716 27.7964C77.7748 27.8551 77.8678 27.9284 77.8678 28.0018C77.8776 28.6276 77.8727 29.2535 77.8727 29.8744C77.8482 29.8793 77.8237 29.8891 77.7993 29.8989ZM89.7492 12.4534C89.8227 13.0645 89.8912 13.6464 89.9597 14.2282C89.9255 14.2527 89.8961 14.2722 89.8618 14.2967C89.5681 13.9789 89.2695 13.6659 88.9806 13.3383C88.8093 13.1428 88.633 13.0401 88.3491 13.0988C88.0211 13.1672 87.6784 13.1819 87.3113 13.221C87.3015 13.001 87.2917 12.8103 87.2819 12.5805C88.1092 12.5414 88.9121 12.4974 89.7492 12.4534ZM90.7479 21.0148C90.8018 21.4695 90.8507 21.8802 90.8997 22.2909C90.8801 22.3056 90.8605 22.3153 90.8409 22.33C90.6402 22.1344 90.4052 21.9633 90.2388 21.7384C89.9353 21.3228 89.5681 21.2494 89.0932 21.3961C88.7408 21.5037 88.3736 21.5526 87.9819 21.6308C87.9722 21.5086 87.9673 21.4157 87.9575 21.269C88.8876 21.181 89.8031 21.0979 90.7479 21.0148ZM78.6266 6.10686C81.6227 5.74016 84.6138 5.37345 87.6197 5.00185C87.7127 6.24866 87.8057 7.4319 87.8987 8.65915C86.4203 8.73738 84.9712 8.81561 83.5074 8.89384C83.6102 10.6883 83.7179 12.4485 83.8208 14.2429C84.4327 14.1891 85.025 14.1255 85.6174 14.0815C86.3762 14.0229 87.1399 13.9789 87.9036 13.9397C87.977 13.9349 88.1092 14.0278 88.119 14.0913C88.2659 15.0936 88.403 16.1009 88.54 17.1081C88.5449 17.1325 88.5302 17.1619 88.5253 17.2206C87.1008 17.3477 85.6713 17.4748 84.2124 17.6068C84.2907 19.4599 84.3642 21.2935 84.4425 23.171C86.0335 22.8385 87.5952 22.5109 89.2107 22.1735C89.4212 23.3226 89.6219 24.4422 89.8325 25.5815C86.1755 26.3882 82.5332 27.1901 78.842 28.0066C79.0036 20.7214 78.9546 13.4508 78.6266 6.10686ZM91.2424 28.8672C88.212 29.5419 85.1817 30.2118 82.1563 30.8914C81.9409 30.9403 81.8038 30.8963 81.6618 30.7545C81.045 30.1335 80.4233 29.5126 79.8064 28.8916C79.733 28.8183 79.6693 28.7352 79.5714 28.6178C80.1393 28.4858 80.6582 28.3587 81.1821 28.2462C84.0655 27.6204 86.9441 26.9994 89.8276 26.3882C89.9695 26.3589 90.18 26.4225 90.2926 26.5203C90.6647 26.8479 91.0074 27.2048 91.3501 27.5617C91.6781 27.8991 91.9963 28.2462 92.3438 28.6227C91.9718 28.7107 91.6046 28.789 91.2424 28.8672ZM92.3781 26.975C91.5263 19.8902 90.6745 12.8201 89.8178 5.70593C91.4333 5.4908 93.0341 5.27566 94.7133 5.05563C95.521 10.8643 96.3288 16.6387 97.1414 22.4571C97.8464 22.418 98.4681 22.3789 99.0899 22.3545C99.5696 22.3349 100.049 22.3251 100.529 22.33C100.607 22.33 100.725 22.3838 100.759 22.4474C101.312 23.479 101.851 24.5205 102.414 25.5913C99.0262 25.5962 95.6875 25.9384 92.3781 26.975ZM102.394 28.6423C100.142 28.8085 97.91 29.1068 95.7511 29.8157C95.5553 29.8793 95.4182 29.8891 95.2616 29.7228C94.5958 29.0383 93.9104 28.3685 93.2397 27.6937C93.2055 27.6595 93.1859 27.6155 93.1418 27.5373C93.2936 27.4835 93.4209 27.4297 93.5579 27.3906C94.9581 27.0141 96.3778 26.7794 97.817 26.6132C99.4228 26.4274 101.033 26.3589 102.644 26.3931C102.771 26.398 102.928 26.4323 103.011 26.5154C103.623 27.1168 104.22 27.7377 104.823 28.3538C104.857 28.388 104.881 28.4271 104.925 28.4809C104.054 28.5396 103.222 28.5787 102.394 28.6423Z" fill="#1E3061"/>
<path d="M48.9748 33.8642C48.8279 33.8446 48.7104 33.8691 48.6566 33.8202C48.1083 33.2921 47.5649 32.7543 47.0215 32.2213C47.0362 32.1871 47.0509 32.1529 47.0655 32.1235C47.1781 32.1529 47.325 32.148 47.3984 32.2213C47.9076 32.7103 48.4069 33.2188 48.9063 33.7224C48.9258 33.7322 48.9307 33.7664 48.9748 33.8642Z" fill="#063F5B"/>
<path d="M30.6113 33.9619C30.861 33.8153 30.9981 33.8495 31.1449 34.0011C31.4974 34.3727 31.8695 34.7296 32.2464 35.1012C32.0359 35.2576 31.894 35.2136 31.7324 35.0425C31.375 34.6758 31.003 34.3335 30.6113 33.9619Z" fill="#063F5B"/>
<path d="M40.2564 28.2023C40.0508 27.9822 39.8941 27.8209 39.6836 27.596C39.9675 27.5715 40.1536 27.5569 40.3739 27.5373C40.3396 27.7475 40.3053 27.9382 40.2564 28.2023Z" fill="#063F5B"/>
<path d="M16.0078 34.9986C16.3897 34.8372 16.5169 35.1306 16.6932 35.2968C16.7372 35.3408 16.6981 35.4729 16.6981 35.5658C16.6638 35.5804 16.6344 35.5951 16.6002 35.6098C16.4092 35.4093 16.2134 35.2088 16.0078 34.9986Z" fill="#063F5B"/>
<path d="M23.582 34.2651C23.7779 34.3287 23.9247 34.3434 24.0275 34.4216C24.0716 34.4509 24.0275 34.6074 24.0226 34.7052C23.9884 34.715 23.959 34.7296 23.9247 34.7394C23.8317 34.6172 23.7436 34.4852 23.582 34.2651Z" fill="#063F5B"/>
<path d="M44.0697 12.0964C43.9815 12.6832 43.9081 13.265 43.8053 13.8371C43.2668 16.8783 42.7234 19.9147 42.1702 22.951C42.1555 23.039 42.0723 23.171 42.0038 23.1808C41.2939 23.303 40.5792 23.4008 39.8008 23.5182C39.8889 23.2639 39.9525 23.0683 40.0211 22.8728C41.103 19.68 42.1849 16.492 43.2668 13.2992C43.3598 13.0206 43.4773 12.7516 43.5556 12.468C43.6193 12.2236 43.7368 12.072 44.0697 12.0964Z" fill="#1E3061"/>
<path d="M36.6711 53.5821C36.9703 52.1858 37.2496 50.8294 37.5089 49.5129C37.6086 48.9444 37.7134 48.356 37.8231 47.7476C37.9328 47.1392 38.0325 46.5358 38.1223 45.9374C38.222 45.339 38.3068 44.7605 38.3766 44.202C38.4564 43.6335 38.5162 43.1199 38.5561 42.6611C38.7855 42.681 39.0448 42.701 39.3341 42.7209C39.6233 42.7309 39.8926 42.7459 40.1419 42.7658C40.4411 42.7858 40.7403 42.7957 41.0395 42.7957C41.0296 42.8356 41.0146 42.9104 40.9947 43.0201C40.9747 43.1298 40.9498 43.2645 40.9199 43.4241C40.8899 43.5737 40.855 43.7432 40.8151 43.9327C40.7852 44.1222 40.7503 44.3117 40.7104 44.5012C40.6306 44.94 40.5409 45.4337 40.4411 45.9823L40.5309 45.9673C40.6306 45.8077 40.7702 45.5883 40.9498 45.3091C41.1393 45.0198 41.3338 44.7156 41.5332 44.3965C41.7327 44.0773 41.9272 43.7731 42.1167 43.4839C42.3062 43.1847 42.4658 42.9304 42.5954 42.7209C43.0941 42.681 43.5928 42.6361 44.0914 42.5863C44.5901 42.5364 45.0888 42.4716 45.5875 42.3918C45.1187 43.0201 44.6649 43.6385 44.2261 44.2469C44.0366 44.5062 43.8421 44.7755 43.6426 45.0547C43.4531 45.334 43.2636 45.6083 43.0741 45.8775C42.8846 46.1468 42.7051 46.4061 42.5356 46.6555C42.376 46.9048 42.2314 47.1342 42.1017 47.3437C42.3211 48.351 42.5804 49.3234 42.8797 50.2609C43.1789 51.1984 43.4831 52.1559 43.7922 53.1333C43.5628 53.1233 43.3285 53.1183 43.0891 53.1183C42.8497 53.1084 42.6154 53.1034 42.386 53.1034C42.0967 53.1034 41.8175 53.1084 41.5482 53.1183C41.2789 53.1183 40.9996 53.1233 40.7104 53.1333C40.6206 52.485 40.5209 51.8068 40.4112 51.0987C40.3115 50.3806 40.2167 49.6974 40.127 49.0491L39.8577 49.3633C39.7879 49.6625 39.7081 50.0315 39.6183 50.4704C39.5385 50.9092 39.4587 51.3331 39.3789 51.742C39.2892 52.2207 39.1944 52.7144 39.0947 53.2231L36.6711 53.5821ZM46.02 53.2679C45.9303 53.2679 45.7507 53.2829 45.4815 53.3128C45.2221 53.3328 44.9529 53.3627 44.6736 53.4026C44.3943 53.4325 44.14 53.4624 43.9106 53.4923C43.6912 53.5223 43.5715 53.5422 43.5516 53.5522C43.6513 53.1233 43.7511 52.6496 43.8508 52.131C43.9605 51.6024 44.0702 51.0538 44.1799 50.4853C44.2896 49.9069 44.3943 49.3234 44.4941 48.735C44.5938 48.1465 44.6886 47.578 44.7783 47.0295C44.9878 45.7529 45.1972 44.4414 45.4067 43.0949L47.7405 42.7209C47.5111 44.0574 47.2867 45.3689 47.0672 46.6555C46.9775 47.204 46.8827 47.7725 46.783 48.361C46.6932 48.9494 46.5985 49.5328 46.4988 50.1113C46.409 50.6898 46.3242 51.2533 46.2444 51.8018C46.1646 52.3404 46.0898 52.8291 46.02 53.2679ZM47.8474 53.5821C48.0768 52.485 48.2962 51.4029 48.5057 50.3357C48.5954 49.8869 48.6852 49.4181 48.7749 48.9294C48.8647 48.4407 48.9495 47.962 49.0293 47.4933C49.119 47.0145 49.1938 46.5557 49.2537 46.1169C49.3235 45.6681 49.3833 45.2592 49.4332 44.8902C49.2038 44.8602 48.9694 44.8503 48.7301 44.8602C48.5007 44.8702 48.2713 44.8403 48.0419 44.7705C48.0519 44.6109 48.0568 44.4264 48.0568 44.217C48.0568 44.0075 48.0618 43.7981 48.0718 43.5886C48.0818 43.3592 48.0918 43.1149 48.1017 42.8556C48.361 42.8755 48.6204 42.8905 48.8797 42.9004C49.139 42.9104 49.3983 42.9154 49.6576 42.9154C50.1663 42.9154 50.655 42.9054 51.1237 42.8855C51.6024 42.8556 52.0413 42.8256 52.4402 42.7957C52.8491 42.7558 53.2481 42.7109 53.637 42.6611L53.4725 43.4689C53.4226 43.6983 53.3727 43.9327 53.3229 44.1721C53.283 44.4114 53.2431 44.6159 53.2032 44.7854C52.9838 44.8453 52.7594 44.8902 52.53 44.9201C52.3106 44.94 52.0911 44.97 51.8717 45.0098C51.8019 45.3489 51.7271 45.7279 51.6473 46.1468C51.5675 46.5557 51.4877 46.9846 51.408 47.4334C51.3381 47.8723 51.2683 48.3211 51.1985 48.7798C51.1287 49.2386 51.0589 49.6775 50.9891 50.0963C50.8295 51.0837 50.6799 52.106 50.5403 53.1632L47.8474 53.5821ZM58.3092 50.3507C58.0698 50.8992 57.8006 51.3779 57.5014 51.7869C57.2121 52.1858 56.9029 52.5249 56.5738 52.8042C56.2547 53.0734 55.9305 53.2729 55.6014 53.4026C55.2723 53.5322 54.9531 53.5971 54.6439 53.5971C54.3348 53.5971 54.0505 53.5272 53.7912 53.3876C53.5419 53.248 53.3224 53.0385 53.1329 52.7593C52.9435 52.48 52.7889 52.1359 52.6692 51.727C52.5595 51.3181 52.5046 50.8394 52.5046 50.2908C52.5046 49.3533 52.6343 48.4308 52.8936 47.5232C53.1529 46.6056 53.5169 45.7828 53.9857 45.0547C54.4544 44.3267 55.008 43.7432 55.6463 43.3044C56.2946 42.8556 57.0077 42.6312 57.7856 42.6312C58.025 42.6312 58.2544 42.681 58.4738 42.7808C58.6932 42.8805 58.8827 43.0201 59.0423 43.1997C59.2018 43.3792 59.3265 43.5986 59.4163 43.8579C59.516 44.1172 59.5659 44.4064 59.5659 44.7256C59.5659 44.7854 59.5659 44.8503 59.5659 44.9201C59.5659 44.9799 59.5609 45.0448 59.5509 45.1146L57.5911 45.6382C57.4714 45.3888 57.3318 45.2642 57.1722 45.2642C57.0127 45.2642 56.8431 45.3589 56.6636 45.5484C56.494 45.7279 56.3245 45.9673 56.1549 46.2665C55.9854 46.5557 55.8208 46.8849 55.6612 47.2539C55.5017 47.6129 55.362 47.977 55.2424 48.346C55.1227 48.715 55.0229 49.0691 54.9431 49.4082C54.8733 49.7373 54.8384 50.0066 54.8384 50.216C54.8384 50.5352 54.8783 50.7596 54.9581 50.8892C55.0479 51.0189 55.1626 51.0837 55.3022 51.0837C55.4119 51.0837 55.5366 51.0438 55.6762 50.964C55.8158 50.8743 55.9455 50.7646 56.0652 50.6349C56.1848 50.4953 56.2946 50.3407 56.3943 50.1712C56.494 50.0016 56.5638 49.8321 56.6037 49.6625L58.3092 50.3507ZM58.2353 53.5971C58.5146 52.2008 58.7839 50.8394 59.0432 49.5129C59.1429 48.9444 59.2477 48.356 59.3574 47.7476C59.4671 47.1292 59.5668 46.5208 59.6566 45.9224C59.7563 45.324 59.8461 44.7455 59.9259 44.187C60.0156 43.6185 60.0854 43.1049 60.1353 42.6461C60.3647 42.6561 60.5741 42.6711 60.7636 42.691C60.9631 42.701 61.1576 42.7109 61.3471 42.7209C61.5366 42.7309 61.7261 42.7409 61.9156 42.7508C62.115 42.7508 62.3295 42.7508 62.5589 42.7508C62.3893 43.459 62.2198 44.1671 62.0502 44.8752C61.8906 45.5833 61.741 46.2964 61.6014 47.0145L63.0825 46.85C63.2221 46.1418 63.3468 45.4587 63.4565 44.8004C63.5662 44.1322 63.7108 43.444 63.8903 42.7359C64.1197 42.696 64.3741 42.6661 64.6533 42.6461C64.9326 42.6162 65.1919 42.5913 65.4312 42.5713C65.6706 42.5514 65.8701 42.5364 66.0297 42.5264C66.1992 42.5065 66.284 42.4965 66.284 42.4965C66.1444 42.9453 66.0097 43.439 65.8801 43.9776C65.7604 44.5062 65.6407 45.0597 65.521 45.6382C65.4013 46.2067 65.2866 46.7851 65.1769 47.3736C65.0672 47.962 64.9675 48.5205 64.8777 49.0491C64.6583 50.3158 64.4538 51.6123 64.2643 52.9388L61.9305 53.2081C62.0602 52.6097 62.1749 52.0262 62.2746 51.4577C62.3744 50.979 62.4741 50.4803 62.5738 49.9617C62.6835 49.4431 62.7683 48.9993 62.8282 48.6302L61.377 48.7649C61.3072 49.1439 61.2224 49.5827 61.1227 50.0814C61.0329 50.5801 60.9481 51.0538 60.8684 51.5026C60.7586 52.0412 60.6489 52.5798 60.5392 53.1183L58.2353 53.5971ZM64.8389 53.5821L66.7987 42.9453L71.5262 42.5414C71.4564 42.7608 71.3965 42.9852 71.3466 43.2146C71.2968 43.4041 71.2469 43.6036 71.197 43.813C71.1571 44.0125 71.1222 44.192 71.0923 44.3516C70.9926 44.3616 70.848 44.3715 70.6585 44.3815C70.4789 44.3815 70.2845 44.3865 70.075 44.3965C69.8656 44.3965 69.6511 44.3965 69.4317 44.3965C69.2223 44.3965 69.0378 44.3965 68.8782 44.3965L68.3546 47.0744C68.6638 47.0544 68.953 47.0395 69.2223 47.0295C69.4417 47.0195 69.6661 47.0145 69.8955 47.0145C70.1249 47.0145 70.2944 47.0095 70.4041 46.9996C70.3643 47.2788 70.3244 47.5531 70.2845 47.8224C70.2545 48.0917 70.2146 48.3659 70.1648 48.6452C70.065 48.6552 69.9005 48.6651 69.6711 48.6751C69.4517 48.6751 69.2273 48.6801 68.9979 48.6901C68.7386 48.7001 68.4543 48.71 68.1451 48.72L67.6365 51.4727L69.8207 51.1286L69.6711 52.8341L64.8389 53.5821ZM69.8928 53.6419C70.192 52.2058 70.4763 50.8144 70.7455 49.468C70.8453 48.8896 70.95 48.2911 71.0597 47.6728C71.1794 47.0544 71.2891 46.446 71.3888 45.8476C71.4886 45.2392 71.5783 44.6608 71.6581 44.1122C71.7379 43.5537 71.7978 43.05 71.8376 42.6012C71.9673 42.6112 72.077 42.6162 72.1668 42.6162C72.2565 42.6162 72.3613 42.6162 72.4809 42.6162C72.6206 42.6162 72.7901 42.6162 72.9896 42.6162C73.1891 42.6062 73.3885 42.5963 73.588 42.5863C73.7875 42.5763 74.0019 42.5663 74.2313 42.5564C74.3709 43.2545 74.4956 43.9277 74.6053 44.576C74.715 45.1445 74.8247 45.7279 74.9344 46.3264C75.0541 46.9248 75.1588 47.4334 75.2486 47.8523C75.2885 47.6528 75.3334 47.4234 75.3832 47.1641C75.4331 46.8948 75.488 46.6156 75.5478 46.3264C75.6076 46.0371 75.6625 45.7479 75.7124 45.4587C75.7722 45.1595 75.832 44.8652 75.8919 44.576C76.0315 43.9277 76.1761 43.2595 76.3257 42.5713L78.1509 42.3469C77.8118 43.8729 77.5126 45.319 77.2533 46.6854C77.1336 47.2738 77.0139 47.8723 76.8942 48.4806C76.7845 49.079 76.6798 49.6575 76.5801 50.216C76.4803 50.7646 76.3955 51.2782 76.3257 51.7569C76.2559 52.2257 76.2011 52.6197 76.1612 52.9388C76.1313 52.9388 76.0116 52.9637 75.8021 53.0136C75.6027 53.0535 75.3683 53.1034 75.099 53.1632C74.8397 53.2231 74.5754 53.2829 74.3061 53.3427C74.0468 53.4026 73.8523 53.4574 73.7226 53.5073C73.6628 52.7094 73.598 51.9514 73.5282 51.2333C73.4982 50.9242 73.4633 50.61 73.4234 50.2908C73.3935 49.9617 73.3586 49.6475 73.3187 49.3483C73.2788 49.0491 73.2389 48.7699 73.199 48.5106C73.1591 48.2512 73.1192 48.0268 73.0793 47.8373C73.0494 48.0268 73.0095 48.2463 72.9597 48.4956C72.9098 48.7449 72.8599 49.0092 72.8101 49.2885C72.7602 49.5678 72.7103 49.862 72.6605 50.1712C72.6106 50.4704 72.5557 50.7596 72.4959 51.0388C72.3662 51.7071 72.2266 52.4052 72.077 53.1333L69.8928 53.6419Z" fill="#1E3061"/>
</g>
<defs>
<clipPath id="clip0_737_84028">
<rect width="110" height="56.5714" fill="white"/>
</clipPath>
</defs>
</svg>
