<svg width="22" height="20" viewBox="0 0 22 20" fill="none" xmlns="http://www.w3.org/2000/svg">
<path d="M1.11011 9.54584L1.38723 9.96202L1.11011 9.54584ZM19.8969 1.09996L19.7475 0.622809L19.7197 0.631535L19.693 0.643445L19.8969 1.09996ZM20.8985 2.57471L20.4087 2.47431L20.8985 2.57471ZM17.4995 18.7595L17.9524 18.9715L17.9761 18.9209L17.988 18.8663L17.4995 18.7595ZM15.8598 18.3747L15.5812 18.7899L15.8598 18.3747ZM9.81338 13.4372L9.43248 13.1133L9.37072 13.1859L9.34001 13.2762L9.81338 13.4372ZM17.3714 4.54963L17.7523 4.87355C17.912 4.68578 17.911 4.40966 17.75 4.22303C17.589 4.0364 17.316 3.99494 17.1068 4.12537L17.3714 4.54963ZM7.7979 17.881L8.29654 17.8442L8.29364 17.8048L8.28458 17.7664L7.7979 17.881ZM8.80564 16.8935L8.32115 16.7699L8.80564 16.8935ZM1.38723 9.96202C1.3586 9.98108 1.34349 9.98633 1.40294 9.95758C1.44195 9.93871 1.49839 9.91205 1.57223 9.87762C1.71944 9.80898 1.92957 9.7124 2.19433 9.59159C2.72352 9.35012 3.46696 9.01365 4.35309 8.61405C6.12514 7.81495 8.46551 6.76444 10.7987 5.7188C13.1318 4.6732 15.4573 3.63262 17.1996 2.85342C18.0708 2.46383 18.7961 2.13959 19.3036 1.91275C19.5574 1.79933 19.7567 1.71026 19.8926 1.64954C19.9605 1.61919 20.0126 1.59592 20.0477 1.58024C20.0652 1.5724 20.0785 1.56646 20.0875 1.56248C20.0919 1.56049 20.0953 1.55899 20.0975 1.55798C20.0986 1.55748 20.0995 1.55711 20.1 1.55685C20.1003 1.55673 20.1005 1.55663 20.1007 1.55657C20.1008 1.55651 20.1009 1.55648 19.8969 1.09996C19.693 0.643445 19.6929 0.643477 19.6928 0.643541C19.6926 0.643604 19.6924 0.643698 19.6922 0.643825C19.6916 0.644077 19.6907 0.644454 19.6896 0.644956C19.6874 0.645961 19.684 0.647463 19.6795 0.649455C19.6706 0.653439 19.6573 0.659383 19.6398 0.667225C19.6047 0.682908 19.5526 0.706181 19.4846 0.736544C19.3487 0.797269 19.1494 0.886352 18.8956 0.999786C18.388 1.22665 17.6626 1.55093 16.7914 1.94056C15.0489 2.71981 12.7231 3.76051 10.3897 4.80626C8.05638 5.85197 5.71515 6.90286 3.942 7.70245C3.05553 8.10221 2.31047 8.43941 1.7792 8.68183C1.51373 8.80296 1.30064 8.90089 1.14964 8.9713C1.07437 9.00639 1.01295 9.03539 0.967596 9.05732C0.942691 9.06936 0.87672 9.10054 0.832984 9.12966L1.38723 9.96202ZM20.0464 1.57711C20.2534 1.51228 20.3823 1.49636 20.4542 1.50063C20.5095 1.50391 20.4854 1.51398 20.4629 1.48533C20.456 1.47656 20.493 1.51875 20.4991 1.69871C20.5051 1.8728 20.4805 2.12398 20.4087 2.47431L21.3883 2.67511C21.4677 2.28797 21.5084 1.95009 21.4986 1.6644C21.489 1.38457 21.4291 1.09627 21.2489 0.867189C21.0531 0.618228 20.7795 0.518171 20.5135 0.502386C20.2642 0.487591 20.0002 0.543672 19.7475 0.622809L20.0464 1.57711ZM20.4087 2.47431C20.0039 4.44912 18.018 14.048 17.0111 18.6527L17.988 18.8663C18.9965 14.2544 20.9836 4.64968 21.3883 2.67511L20.4087 2.47431ZM17.0467 18.5476C17.0364 18.5696 17.0542 18.5256 17.1167 18.5054C17.1573 18.4923 17.1545 18.5111 17.064 18.4835C16.8721 18.4251 16.5781 18.2546 16.1385 17.9596L15.5812 18.7899C16.0008 19.0715 16.4153 19.3314 16.7728 19.4402C16.957 19.4963 17.189 19.5328 17.4237 19.4571C17.6802 19.3744 17.8513 19.1874 17.9524 18.9715L17.0467 18.5476ZM16.1385 17.9596C14.9711 17.176 11.6616 14.384 10.1418 13.0602L9.48497 13.8142C10.9884 15.1238 14.3502 17.9637 15.5812 18.7899L16.1385 17.9596ZM10.1943 13.7611L17.7523 4.87355L16.9905 4.22572L9.43248 13.1133L10.1943 13.7611ZM17.1068 4.12537L6.02172 11.0379L6.55086 11.8864L17.636 4.9739L17.1068 4.12537ZM6.28629 11.4622C6.38531 10.9721 6.38532 10.9721 6.38531 10.9721C6.38527 10.9721 6.38523 10.9721 6.38516 10.972C6.38502 10.972 6.38478 10.972 6.38445 10.9719C6.38379 10.9718 6.38276 10.9716 6.38137 10.9713C6.37858 10.9707 6.37434 10.9698 6.36869 10.9687C6.3574 10.9664 6.34049 10.9629 6.31838 10.9583C6.27416 10.9492 6.20913 10.9356 6.12654 10.9181C5.96133 10.8831 5.72608 10.8322 5.44677 10.769C4.88723 10.6424 4.15498 10.4675 3.45632 10.2728C2.7485 10.0755 2.10757 9.86661 1.71263 9.67649C1.49409 9.5713 1.43841 9.51166 1.44567 9.52141C1.45977 9.54035 1.52276 9.63819 1.49182 9.78235C1.47779 9.84772 1.4491 9.89526 1.42572 9.92421C1.41441 9.93822 1.40447 9.94779 1.39796 9.9535C1.39145 9.9592 1.38743 9.96188 1.38723 9.96202L0.832984 9.12966C0.715802 9.20769 0.562372 9.34753 0.514088 9.57249C0.463471 9.80831 0.556378 10.0014 0.643451 10.1184C0.796654 10.3243 1.05917 10.4718 1.27889 10.5775C1.76045 10.8093 2.47625 11.0378 3.18785 11.2361C3.90861 11.437 4.65846 11.6159 5.22617 11.7443C5.51049 11.8087 5.75014 11.8605 5.91894 11.8963C6.00335 11.9142 6.0701 11.9282 6.1159 11.9376C6.1388 11.9424 6.15647 11.946 6.1685 11.9485C6.17452 11.9497 6.17912 11.9506 6.18227 11.9513C6.18384 11.9516 6.18505 11.9518 6.18588 11.952C6.1863 11.9521 6.18662 11.9521 6.18685 11.9522C6.18697 11.9522 6.18707 11.9522 6.18713 11.9522C6.18721 11.9523 6.18727 11.9523 6.28629 11.4622ZM5.7996 11.5768L7.31121 17.9956L8.28458 17.7664L6.77298 11.3476L5.7996 11.5768ZM9.29012 17.0171C9.68979 15.4505 10.1227 14.0804 10.2867 13.5982L9.34001 13.2762C9.16814 13.7814 8.72767 15.1764 8.32115 16.7699L9.29012 17.0171ZM7.29925 17.9177C7.33259 18.3701 7.74311 18.5439 7.9881 18.5668C8.2847 18.5946 8.60804 18.4732 8.82896 18.1854L8.03563 17.5766C8.02731 17.5874 8.04092 17.5674 8.08136 17.5712C8.09707 17.5727 8.13391 17.5795 8.17787 17.6137C8.22483 17.6502 8.28795 17.7276 8.29654 17.8442L7.29925 17.9177ZM8.85252 18.1519C9.01725 17.8964 9.16079 17.524 9.29012 17.0171L8.32115 16.7699C8.20207 17.2366 8.09082 17.4879 8.01206 17.61L8.85252 18.1519ZM11.5301 14.7786L8.12108 17.4896L8.7435 18.2723L12.1526 15.5613L11.5301 14.7786Z" fill="#1E1E1E"/>
</svg>
