<svg width="22" height="22" viewBox="0 0 22 22" fill="none" xmlns="http://www.w3.org/2000/svg">
<path d="M1.00768 10.3422L1.50745 10.3573L1.50746 10.3571L1.00768 10.3422ZM6.23766 19.6844L6.48048 19.2473L6.30365 19.1491L6.10825 19.2015L6.23766 19.6844ZM1.00768 21.0858L0.525918 20.952C0.477889 21.1249 0.526201 21.3102 0.652509 21.4377C0.778818 21.5652 0.963749 21.6152 1.13708 21.5687L1.00768 21.0858ZM2.40901 16.041L2.89077 16.1748L2.94562 15.9773L2.84609 15.7982L2.40901 16.041ZM7.82583 5.85795L8.26362 5.61641L8.1515 5.41318L7.92389 5.36766L7.82583 5.85795ZM9.32059 8.56719L9.65585 8.93814C9.82803 8.78251 9.87049 8.52886 9.75838 8.32565L9.32059 8.56719ZM12.4035 13.5186L12.2868 14.0048L12.4035 13.5186ZM13.8983 12.0238L14.1398 11.586C14.0098 11.5143 13.8546 11.5041 13.7163 11.5581C13.578 11.6121 13.4709 11.7248 13.4239 11.8657L13.8983 12.0238ZM16.6075 13.5186H17.1075C17.1075 13.3365 17.0085 13.1687 16.849 13.0808L16.6075 13.5186ZM5.49028 9.22114L5.97409 9.09493L5.49028 9.22114ZM1.50746 10.3571C1.55128 8.88161 2.14982 6.65405 3.63917 4.80533C5.11237 2.97666 7.47013 1.5 11.0973 1.5V0.5C7.15721 0.5 4.51689 2.12184 2.86044 4.17797C1.22015 6.21406 0.557494 8.6576 0.507897 10.3274L1.50746 10.3571ZM11.0973 1.5C17.6604 1.5 20.5 6.7081 20.5 10.3422H21.5C21.5 6.2919 18.3396 0.5 11.0973 0.5V1.5ZM20.5 10.3422C20.5 13.0918 19.6434 15.6572 18.0504 17.5268C16.4652 19.3872 14.1294 20.5858 11.0973 20.5858V21.5858C14.4182 21.5858 17.0337 20.2619 18.8116 18.1753C20.5818 16.0978 21.5 13.2914 21.5 10.3422H20.5ZM11.0973 20.5858C9.65661 20.5858 8.71551 20.3613 8.04546 20.0955C7.34708 19.8184 6.96832 19.5184 6.48048 19.2473L5.99484 20.1215C6.34779 20.3176 6.90325 20.7182 7.67669 21.025C8.47845 21.3431 9.54675 21.5858 11.0973 21.5858V20.5858ZM6.10825 19.2015L0.878268 20.6028L1.13708 21.5687L6.36707 20.1674L6.10825 19.2015ZM1.48944 21.2196L2.89077 16.1748L1.92725 15.9072L0.525918 20.952L1.48944 21.2196ZM2.84609 15.7982C2.58957 15.3364 2.25167 14.8649 1.96514 14.043C1.68253 13.2323 1.45548 12.0797 1.50745 10.3573L0.507904 10.3271C0.452762 12.1548 0.692828 13.4311 1.02088 14.3721C1.34502 15.3019 1.76133 15.9047 1.97193 16.2838L2.84609 15.7982ZM9.32059 8.56719C8.98533 8.19624 8.98525 8.19631 8.98517 8.19638C8.98514 8.19641 8.98506 8.19649 8.98499 8.19655C8.98487 8.19666 8.98472 8.19679 8.98456 8.19694C8.98424 8.19723 8.98386 8.19757 8.98342 8.19798C8.98253 8.19878 8.98139 8.19982 8.98001 8.20108C8.97726 8.20361 8.97354 8.20703 8.96892 8.21131C8.95968 8.21988 8.94684 8.23191 8.93094 8.24711C8.89917 8.27747 8.85493 8.32069 8.80262 8.37434C8.69873 8.4809 8.55949 8.63221 8.42197 8.80849C8.28616 8.98256 8.14144 9.19437 8.03646 9.42168C7.9348 9.6418 7.8461 9.92835 7.89205 10.2305L8.88068 10.0802C8.87691 10.0554 8.88013 9.97994 8.94431 9.84097C9.00517 9.70919 9.10022 9.56483 9.21041 9.4236C9.31886 9.28458 9.43182 9.16147 9.51864 9.07242C9.56168 9.02827 9.59743 8.99339 9.62179 8.97011C9.63396 8.95848 9.64323 8.94981 9.64909 8.94437C9.65202 8.94165 9.65409 8.93975 9.65524 8.9387C9.65581 8.93817 9.65616 8.93786 9.65626 8.93776C9.65631 8.93771 9.6563 8.93772 9.65624 8.93778C9.6562 8.93781 9.65615 8.93786 9.65609 8.93792C9.65605 8.93795 9.65599 8.938 9.65598 8.93802C9.65591 8.93807 9.65585 8.93814 9.32059 8.56719ZM7.89205 10.2305C7.91781 10.4 7.99449 10.5685 8.07323 10.711C8.15715 10.8629 8.26711 11.027 8.39455 11.1954C8.64982 11.5327 8.99405 11.9121 9.39164 12.2807C10.1747 13.0067 11.2301 13.7511 12.2868 14.0048L12.5202 13.0324C11.7085 12.8376 10.805 12.2274 10.0715 11.5474C9.71078 11.213 9.40728 10.8765 9.19195 10.592C9.08409 10.4494 9.00304 10.3261 8.94856 10.2275C8.88889 10.1195 8.87978 10.0743 8.88068 10.0802L7.89205 10.2305ZM12.2868 14.0048C12.9248 14.1579 13.8629 13.711 14.3726 12.1819L13.4239 11.8657C12.9994 13.1393 12.4428 13.0138 12.5202 13.0324L12.2868 14.0048ZM13.6567 12.4616L16.366 13.9563L16.849 13.0808L14.1398 11.586L13.6567 12.4616ZM16.1075 13.5186C16.1075 13.798 16.0036 14.3077 15.6418 14.7385C15.2973 15.1487 14.6742 15.541 13.5246 15.541V16.541C14.9314 16.541 15.8498 16.0458 16.4076 15.3816C16.9482 14.738 17.1075 13.9865 17.1075 13.5186H16.1075ZM13.5246 15.541C13.118 15.541 12.4959 15.3748 11.7437 15.0279C11.0043 14.6869 10.184 14.1922 9.39359 13.5853C7.79654 12.3592 6.40312 10.7395 5.97409 9.09493L5.00647 9.34735C5.51717 11.305 7.11326 13.0953 8.78461 14.3785C9.62841 15.0263 10.512 15.5611 11.3249 15.936C12.125 16.305 12.9035 16.541 13.5246 16.541V15.541ZM5.97409 9.09493C5.7541 8.25164 6.106 7.56238 6.62273 7.05578C6.88123 6.80235 7.16811 6.60996 7.40954 6.48863C7.53037 6.4279 7.63135 6.38924 7.70405 6.36875C7.79566 6.34292 7.78972 6.36063 7.72778 6.34824L7.92389 5.36766C7.74517 5.33191 7.56115 5.37006 7.4327 5.40627C7.28535 5.44781 7.12431 5.51279 6.96049 5.59512C6.63263 5.75989 6.25972 6.01126 5.92266 6.34171C5.24826 7.00289 4.66593 8.04194 5.00647 9.34735L5.97409 9.09493ZM7.38805 6.09949L8.8828 8.80873L9.75838 8.32565L8.26362 5.61641L7.38805 6.09949Z" fill="#29A71A"/>
</svg>
